FiraSansMM-2.ufo
<glyph name="exclam" format="1">
  <advance width="240"/>
  <unicode hex="0021"/>
  <outline>
    <contour>
      <point x="16" y="696" type="line"/>
      <point x="224" y="696" type="line"/>
      <point x="198" y="270" type="line"/>
      <point x="42" y="270" type="line"/>
    </contour>
    <contour>
      <point x="120" y="186" type="qcurve" smooth="yes"/>
      <point x="163" y="186"/>
      <point x="223" y="125"/>
      <point x="223" y="83" type="qcurve" smooth="yes"/>
      <point x="223" y="41"/>
      <point x="163" y="-20"/>
      <point x="120" y="-20" type="qcurve" smooth="yes"/>
      <point x="77" y="-20"/>
      <point x="17" y="41"/>
      <point x="17" y="83" type="qcurve" smooth="yes"/>
      <point x="17" y="125"/>
      <point x="77" y="186"/>
    </contour>
  </outline>
</glyph>
<glyph name="dollar" format="1">
  <advance width="560"/>
  <unicode hex="0024"/>
  <outline>
    <contour>
      <point x="223" y="-1" type="line"/>
      <point x="358" y="5" type="line"/>
      <point x="358" y="-165" type="line"/>
      <point x="223" y="-165" type="line"/>
    </contour>
    <contour>
      <point x="223" y="834" type="line"/>
      <point x="358" y="834" type="line"/>
      <point x="358" y="678" type="line"/>
      <point x="223" y="673" type="line"/>
    </contour>
    <contour>
      <point x="284" y="690" type="qcurve" smooth="yes"/>
      <point x="364" y="690"/>
      <point x="484" y="644"/>
      <point x="528" y="600" type="qcurve"/>
      <point x="442" y="498" type="line"/>
      <point x="409" y="524"/>
      <point x="340" y="551"/>
      <point x="300" y="551" type="qcurve" smooth="yes"/>
      <point x="265" y="551"/>
      <point x="229" y="526"/>
      <point x="229" y="504" type="qcurve" smooth="yes"/>
      <point x="229" y="487"/>
      <point x="249" y="465"/>
      <point x="301" y="444"/>
      <point x="348" y="429" type="qcurve" smooth="yes"/>
      <point x="416" y="407"/>
      <point x="503" y="349"/>
      <point x="545" y="267"/>
      <point x="545" y="208" type="qcurve" smooth="yes"/>
      <point x="545" y="144"/>
      <point x="478" y="46"/>
      <point x="353" y="-9"/>
      <point x="266" y="-9" type="qcurve" smooth="yes"/>
      <point x="172" y="-9"/>
      <point x="41" y="51"/>
      <point x="0" y="91" type="qcurve"/>
      <point x="96" y="196" type="line"/>
      <point x="132" y="165"/>
      <point x="213" y="132"/>
      <point x="259" y="132" type="qcurve" smooth="yes"/>
      <point x="288" y="132"/>
      <point x="324" y="147"/>
      <point x="341" y="174"/>
      <point x="341" y="191" type="qcurve" smooth="yes"/>
      <point x="341" y="211"/>
      <point x="323" y="238"/>
      <point x="277" y="261"/>
      <point x="234" y="274" type="qcurve" smooth="yes"/>
      <point x="154" y="299"/>
      <point x="64" y="362"/>
      <point x="28" y="440"/>
      <point x="28" y="488" type="qcurve" smooth="yes"/>
      <point x="28" y="551"/>
      <point x="95" y="641"/>
      <point x="211" y="690"/>
    </contour>
  </outline>
</glyph>
<glyph name="percent" format="1">
  <advance width="879"/>
  <unicode hex="0025"/>
  <outline>
    <contour>
      <point x="151" y="28" type="line"/>
      <point x="614" y="725" type="line"/>
      <point x="732" y="652" type="line"/>
      <point x="268" y="-45" type="line"/>
    </contour>
    <contour>
      <point x="207" y="582" type="qcurve" smooth="yes"/>
      <point x="185" y="582"/>
      <point x="161" y="561"/>
      <point x="152" y="528"/>
      <point x="152" y="510" type="qcurve" smooth="yes"/>
      <point x="152" y="492"/>
      <point x="161" y="459"/>
      <point x="185" y="438"/>
      <point x="207" y="438" type="qcurve" smooth="yes"/>
      <point x="229" y="438"/>
      <point x="252" y="459"/>
      <point x="261" y="492"/>
      <point x="261" y="510" type="qcurve" smooth="yes"/>
      <point x="261" y="528"/>
      <point x="252" y="561"/>
      <point x="229" y="582"/>
    </contour>
    <contour>
      <point x="207" y="696" type="qcurve" smooth="yes"/>
      <point x="259" y="696"/>
      <point x="344" y="651"/>
      <point x="394" y="567"/>
      <point x="394" y="510" type="qcurve" smooth="yes"/>
      <point x="394" y="453"/>
      <point x="344" y="370"/>
      <point x="259" y="324"/>
      <point x="207" y="324" type="qcurve" smooth="yes"/>
      <point x="156" y="324"/>
      <point x="71" y="370"/>
      <point x="20" y="453"/>
      <point x="20" y="510" type="qcurve" smooth="yes"/>
      <point x="20" y="567"/>
      <point x="71" y="651"/>
      <point x="156" y="696"/>
    </contour>
    <contour>
      <point x="672" y="238" type="qcurve" smooth="yes"/>
      <point x="650" y="238"/>
      <point x="626" y="217"/>
      <point x="617" y="184"/>
      <point x="617" y="166" type="qcurve" smooth="yes"/>
      <point x="617" y="148"/>
      <point x="626" y="115"/>
      <point x="650" y="94"/>
      <point x="672" y="94" type="qcurve" smooth="yes"/>
      <point x="694" y="94"/>
      <point x="717" y="115"/>
      <point x="726" y="148"/>
      <point x="726" y="166" type="qcurve" smooth="yes"/>
      <point x="726" y="184"/>
      <point x="717" y="217"/>
      <point x="694" y="238"/>
    </contour>
    <contour>
      <point x="672" y="352" type="qcurve" smooth="yes"/>
      <point x="724" y="352"/>
      <point x="809" y="306"/>
      <point x="859" y="223"/>
      <point x="859" y="166" type="qcurve" smooth="yes"/>
      <point x="859" y="109"/>
      <point x="809" y="26"/>
      <point x="724" y="-20"/>
      <point x="672" y="-20" type="qcurve" smooth="yes"/>
      <point x="621" y="-20"/>
      <point x="535" y="26"/>
      <point x="484" y="109"/>
      <point x="484" y="166" type="qcurve" smooth="yes"/>
      <point x="484" y="223"/>
      <point x="535" y="306"/>
      <point x="621" y="352"/>
    </contour>
  </outline>
</glyph>
<glyph name="ampersand" format="1">
  <advance width="807"/>
  <unicode hex="0026"/>
  <outline>
    <contour>
      <point x="319" y="716" type="qcurve" smooth="yes"/>
      <point x="395" y="716"/>
      <point x="499" y="672"/>
      <point x="553" y="598"/>
      <point x="553" y="551" type="qcurve" smooth="yes"/>
      <point x="553" y="510"/>
      <point x="522" y="443"/>
      <point x="465" y="386"/>
      <point x="425" y="358" type="qcurve"/>
      <point x="536" y="255" type="line"/>
      <point x="548" y="281"/>
      <point x="568" y="346"/>
      <point x="576" y="383" type="qcurve"/>
      <point x="736" y="336" type="line"/>
      <point x="717" y="282"/>
      <point x="670" y="193"/>
      <point x="643" y="157" type="qcurve"/>
      <point x="769" y="49" type="line"/>
      <point x="593" y="-20" type="line"/>
      <point x="526" y="44" type="line"/>
      <point x="476" y="10"/>
      <point x="367" y="-20"/>
      <point x="309" y="-20" type="qcurve" smooth="yes"/>
      <point x="230" y="-20"/>
      <point x="112" y="30"/>
      <point x="47" y="119"/>
      <point x="47" y="179" type="qcurve" smooth="yes"/>
      <point x="47" y="239"/>
      <point x="110" y="326"/>
      <point x="180" y="372" type="qcurve"/>
      <point x="143" y="409"/>
      <point x="101" y="463"/>
      <point x="85" y="513"/>
      <point x="85" y="542" type="qcurve" smooth="yes"/>
      <point x="85" y="585"/>
      <point x="134" y="665"/>
      <point x="238" y="716"/>
    </contour>
    <contour>
      <point x="431" y="134" type="qcurve"/>
      <point x="292" y="266" type="line"/>
      <point x="273" y="250"/>
      <point x="256" y="213"/>
      <point x="256" y="191" type="qcurve" smooth="yes"/>
      <point x="256" y="169"/>
      <point x="277" y="135"/>
      <point x="318" y="116"/>
      <point x="346" y="116" type="qcurve" smooth="yes"/>
      <point x="370" y="116"/>
      <point x="412" y="125"/>
    </contour>
    <contour>
      <point x="322" y="593" type="qcurve" smooth="yes"/>
      <point x="300" y="593"/>
      <point x="274" y="566"/>
      <point x="274" y="542" type="qcurve" smooth="yes"/>
      <point x="274" y="530"/>
      <point x="280" y="508"/>
      <point x="299" y="481"/>
      <point x="318" y="461" type="qcurve"/>
      <point x="336" y="474"/>
      <point x="356" y="500"/>
      <point x="365" y="530"/>
      <point x="365" y="547" type="qcurve" smooth="yes"/>
      <point x="365" y="567"/>
      <point x="343" y="593"/>
    </contour>
  </outline>
</glyph>
<glyph name="parenleft" format="1">
  <advance width="325"/>
  <unicode hex="0028"/>
  <outline>
    <contour>
      <point x="203" y="867" type="qcurve"/>
      <point x="330" y="782" type="line"/>
      <point x="295" y="733"/>
      <point x="246" y="632"/>
      <point x="216" y="526"/>
      <point x="203" y="413"/>
      <point x="203" y="350" type="qcurve" smooth="yes"/>
      <point x="203" y="287"/>
      <point x="216" y="174"/>
      <point x="246" y="68"/>
      <point x="295" y="-33"/>
      <point x="330" y="-82" type="qcurve"/>
      <point x="203" y="-167" type="line"/>
      <point x="165" y="-115"/>
      <point x="94" y="-8"/>
      <point x="38" y="114"/>
      <point x="5" y="260"/>
      <point x="5" y="350" type="qcurve" smooth="yes"/>
      <point x="5" y="440"/>
      <point x="38" y="586"/>
      <point x="94" y="708"/>
      <point x="165" y="815"/>
    </contour>
  </outline>
</glyph>
<glyph name="parenright" format="1">
  <advance width="325"/>
  <unicode hex="0029"/>
  <outline>
    <contour>
      <point x="-5" y="782" type="qcurve"/>
      <point x="122" y="867" type="line"/>
      <point x="160" y="815"/>
      <point x="231" y="708"/>
      <point x="287" y="586"/>
      <point x="320" y="440"/>
      <point x="320" y="350" type="qcurve" smooth="yes"/>
      <point x="320" y="260"/>
      <point x="287" y="114"/>
      <point x="231" y="-8"/>
      <point x="160" y="-115"/>
      <point x="122" y="-167" type="qcurve"/>
      <point x="-5" y="-82" type="line"/>
      <point x="30" y="-33"/>
      <point x="79" y="68"/>
      <point x="109" y="174"/>
      <point x="122" y="287"/>
      <point x="122" y="350" type="qcurve" smooth="yes"/>
      <point x="122" y="413"/>
      <point x="109" y="526"/>
      <point x="79" y="632"/>
      <point x="30" y="733"/>
    </contour>
  </outline>
</glyph>
<glyph name="asterisk" format="1">
  <advance width="455"/>
  <unicode hex="002A"/>
  <outline>
    <contour>
      <point x="404" y="673" type="line"/>
      <point x="455" y="520" type="line"/>
      <point x="321" y="502" type="line"/>
      <point x="420" y="409" type="line"/>
      <point x="287" y="312" type="line"/>
      <point x="228" y="435" type="line"/>
      <point x="170" y="311" type="line"/>
      <point x="37" y="408" type="line"/>
      <point x="135" y="502" type="line"/>
      <point x="0" y="519" type="line"/>
      <point x="51" y="672" type="line"/>
      <point x="170" y="608" type="line"/>
      <point x="146" y="744" type="line"/>
      <point x="310" y="744" type="line"/>
      <point x="286" y="608" type="line"/>
    </contour>
  </outline>
</glyph>
<glyph name="comma" format="1">
  <advance width="240"/>
  <unicode hex="002C"/>
  <outline>
    <contour>
      <point x="120" y="186" type="qcurve" smooth="yes"/>
      <point x="164" y="186"/>
      <point x="223" y="127"/>
      <point x="223" y="83" type="qcurve" smooth="yes"/>
      <point x="223" y="57"/>
      <point x="203" y="2"/>
      <point x="183" y="-44" type="qcurve" smooth="yes"/>
      <point x="121" y="-184" type="line"/>
      <point x="19" y="-184" type="line"/>
      <point x="63" y="-1" type="line"/>
      <point x="41" y="13"/>
      <point x="17" y="57"/>
      <point x="17" y="84" type="qcurve" smooth="yes"/>
      <point x="17" y="128"/>
      <point x="76" y="186"/>
    </contour>
  </outline>
</glyph>
<glyph name="period" format="1">
  <advance width="240"/>
  <unicode hex="002E"/>
  <outline>
    <contour>
      <point x="120" y="186" type="qcurve" smooth="yes"/>
      <point x="163" y="186"/>
      <point x="223" y="125"/>
      <point x="223" y="83" type="qcurve" smooth="yes"/>
      <point x="223" y="41"/>
      <point x="163" y="-20"/>
      <point x="120" y="-20" type="qcurve" smooth="yes"/>
      <point x="77" y="-20"/>
      <point x="17" y="41"/>
      <point x="17" y="83" type="qcurve" smooth="yes"/>
      <point x="17" y="125"/>
      <point x="77" y="186"/>
    </contour>
  </outline>
</glyph>
<glyph name="zero" format="1">
  <advance width="602"/>
  <unicode hex="0030"/>
  <outline>
    <contour>
      <point x="301" y="696" type="qcurve" smooth="yes"/>
      <point x="433" y="696"/>
      <point x="575" y="512"/>
      <point x="575" y="339" type="qcurve" smooth="yes"/>
      <point x="575" y="167"/>
      <point x="433" y="-20"/>
      <point x="301" y="-20" type="qcurve" smooth="yes"/>
      <point x="169" y="-20"/>
      <point x="27" y="167"/>
      <point x="27" y="339" type="qcurve" smooth="yes"/>
      <point x="27" y="512"/>
      <point x="169" y="696"/>
    </contour>
    <contour>
      <point x="301" y="553" type="qcurve" smooth="yes"/>
      <point x="274" y="553"/>
      <point x="242" y="516"/>
      <point x="229" y="423"/>
      <point x="229" y="339" type="qcurve" smooth="yes"/>
      <point x="229" y="255"/>
      <point x="242" y="161"/>
      <point x="274" y="124"/>
      <point x="301" y="124" type="qcurve" smooth="yes"/>
      <point x="329" y="124"/>
      <point x="360" y="159"/>
      <point x="373" y="252"/>
      <point x="373" y="339" type="qcurve" smooth="yes"/>
      <point x="373" y="427"/>
      <point x="360" y="519"/>
      <point x="329" y="553"/>
    </contour>
  </outline>
</glyph>
<glyph name="two" format="1">
  <advance width="530"/>
  <unicode hex="0032"/>
  <outline>
    <contour>
      <point x="244" y="696" type="qcurve" smooth="yes"/>
      <point x="328" y="696"/>
      <point x="440" y="641"/>
      <point x="496" y="550"/>
      <point x="496" y="497" type="qcurve" smooth="yes"/>
      <point x="496" y="469"/>
      <point x="485" y="416"/>
      <point x="455" y="358"/>
      <point x="400" y="289"/>
      <point x="312" y="203"/>
      <point x="247" y="148" type="qcurve"/>
      <point x="510" y="148" type="line"/>
      <point x="490" y="0" type="line"/>
      <point x="23" y="0" type="line"/>
      <point x="23" y="136" type="line"/>
      <point x="89" y="199"/>
      <point x="183" y="292"/>
      <point x="245" y="360"/>
      <point x="280" y="412"/>
      <point x="294" y="454"/>
      <point x="294" y="475" type="qcurve" smooth="yes"/>
      <point x="294" y="498"/>
      <point x="277" y="530"/>
      <point x="245" y="548"/>
      <point x="222" y="548" type="qcurve" smooth="yes"/>
      <point x="188" y="548"/>
      <point x="135" y="515"/>
      <point x="108" y="480" type="qcurve"/>
      <point x="-5" y="570" type="line"/>
      <point x="36" y="626"/>
      <point x="161" y="696"/>
    </contour>
  </outline>
</glyph>
<glyph name="three" format="1">
  <advance width="532"/>
  <unicode hex="0033"/>
  <outline>
    <contour>
      <point x="247" y="696" type="qcurve" smooth="yes"/>
      <point x="326" y="696"/>
      <point x="434" y="651"/>
      <point x="489" y="573"/>
      <point x="489" y="524" type="qcurve" smooth="yes"/>
      <point x="489" y="484"/>
      <point x="459" y="419"/>
      <point x="399" y="373"/>
      <point x="355" y="359" type="qcurve"/>
      <point x="397" y="354"/>
      <point x="468" y="317"/>
      <point x="512" y="245"/>
      <point x="512" y="189" type="qcurve" smooth="yes"/>
      <point x="512" y="134"/>
      <point x="451" y="39"/>
      <point x="328" y="-20"/>
      <point x="236" y="-20" type="qcurve" smooth="yes"/>
      <point x="149" y="-20"/>
      <point x="26" y="41"/>
      <point x="-15" y="90" type="qcurve"/>
      <point x="88" y="191" type="line"/>
      <point x="123" y="158"/>
      <point x="184" y="128"/>
      <point x="222" y="128" type="qcurve" smooth="yes"/>
      <point x="247" y="128"/>
      <point x="286" y="145"/>
      <point x="310" y="180"/>
      <point x="310" y="206" type="qcurve" smooth="yes"/>
      <point x="310" y="249"/>
      <point x="263" y="289"/>
      <point x="213" y="289" type="qcurve" smooth="yes"/>
      <point x="153" y="289" type="line"/>
      <point x="175" y="421" type="line"/>
      <point x="216" y="421" type="line" smooth="yes"/>
      <point x="244" y="421"/>
      <point x="281" y="438"/>
      <point x="299" y="469"/>
      <point x="299" y="490" type="qcurve" smooth="yes"/>
      <point x="299" y="521"/>
      <point x="257" y="553"/>
      <point x="222" y="553" type="qcurve" smooth="yes"/>
      <point x="186" y="553"/>
      <point x="122" y="523"/>
      <point x="94" y="496" type="qcurve"/>
      <point x="-3" y="598" type="line"/>
      <point x="47" y="646"/>
      <point x="172" y="696"/>
    </contour>
  </outline>
</glyph>
<glyph name="five" format="1">
  <advance width="557"/>
  <unicode hex="0035"/>
  <outline>
    <contour>
      <point x="50" y="680" type="line"/>
      <point x="496" y="680" type="line"/>
      <point x="475" y="542" type="line"/>
      <point x="240" y="542" type="line"/>
      <point x="240" y="433" type="line"/>
      <point x="265" y="444"/>
      <point x="313" y="454"/>
      <point x="335" y="454" type="qcurve" smooth="yes"/>
      <point x="390" y="454"/>
      <point x="479" y="401"/>
      <point x="532" y="301"/>
      <point x="532" y="229" type="qcurve" smooth="yes"/>
      <point x="532" y="155"/>
      <point x="462" y="42"/>
      <point x="334" y="-20"/>
      <point x="246" y="-20" type="qcurve" smooth="yes"/>
      <point x="161" y="-20"/>
      <point x="43" y="45"/>
      <point x="5" y="93" type="qcurve"/>
      <point x="114" y="192" type="line"/>
      <point x="137" y="162"/>
      <point x="198" y="126"/>
      <point x="237" y="126" type="qcurve" smooth="yes"/>
      <point x="267" y="126"/>
      <point x="308" y="149"/>
      <point x="330" y="193"/>
      <point x="330" y="226" type="qcurve" smooth="yes"/>
      <point x="330" y="280"/>
      <point x="287" y="323"/>
      <point x="251" y="323" type="qcurve" smooth="yes"/>
      <point x="235" y="323"/>
      <point x="201" y="313"/>
      <point x="179" y="299" type="qcurve"/>
      <point x="50" y="299" type="line"/>
    </contour>
  </outline>
</glyph>
<glyph name="six" format="1">
  <advance width="582"/>
  <unicode hex="0036"/>
  <outline>
    <contour>
      <point x="347" y="696" type="qcurve" smooth="yes"/>
      <point x="399" y="696"/>
      <point x="482" y="670"/>
      <point x="510" y="650" type="qcurve"/>
      <point x="439" y="535" type="line"/>
      <point x="420" y="546"/>
      <point x="379" y="560"/>
      <point x="353" y="560" type="qcurve" smooth="yes"/>
      <point x="320" y="560"/>
      <point x="268" y="524"/>
      <point x="237" y="450"/>
      <point x="233" y="392" type="qcurve"/>
      <point x="235" y="335" type="line"/>
      <point x="234" y="254"/>
      <point x="245" y="159"/>
      <point x="276" y="118"/>
      <point x="305" y="118" type="qcurve" smooth="yes"/>
      <point x="328" y="118"/>
      <point x="356" y="146"/>
      <point x="369" y="198"/>
      <point x="369" y="232" type="qcurve" smooth="yes"/>
      <point x="369" y="289"/>
      <point x="340" y="333"/>
      <point x="306" y="333" type="qcurve" smooth="yes"/>
      <point x="294" y="333"/>
      <point x="265" y="324"/>
      <point x="236" y="305"/>
      <point x="221" y="290" type="qcurve"/>
      <point x="222" y="405" type="line"/>
      <point x="244" y="426"/>
      <point x="293" y="452"/>
      <point x="343" y="464"/>
      <point x="368" y="464" type="qcurve" smooth="yes"/>
      <point x="427" y="464"/>
      <point x="517" y="408"/>
      <point x="567" y="305"/>
      <point x="567" y="233" type="qcurve" smooth="yes"/>
      <point x="567" y="167"/>
      <point x="506" y="52"/>
      <point x="389" y="-20"/>
      <point x="303" y="-20" type="qcurve" smooth="yes"/>
      <point x="208" y="-20"/>
      <point x="86" y="61"/>
      <point x="27" y="208"/>
      <point x="27" y="306" type="qcurve" smooth="yes"/>
      <point x="27" y="424"/>
      <point x="105" y="599"/>
      <point x="248" y="696"/>
    </contour>
  </outline>
</glyph>
<glyph name="eight" format="1">
  <advance width="599"/>
  <unicode hex="0038"/>
  <outline>
    <contour>
      <point x="300" y="696" type="qcurve" smooth="yes"/>
      <point x="378" y="696"/>
      <point x="491" y="653"/>
      <point x="553" y="574"/>
      <point x="553" y="519" type="qcurve" smooth="yes"/>
      <point x="553" y="477"/>
      <point x="495" y="387"/>
      <point x="429" y="355" type="qcurve"/>
      <point x="297" y="402" type="line"/>
      <point x="340" y="428"/>
      <point x="362" y="481"/>
      <point x="362" y="508" type="qcurve" smooth="yes"/>
      <point x="362" y="525"/>
      <point x="349" y="552"/>
      <point x="322" y="567"/>
      <point x="301" y="567" type="qcurve" smooth="yes"/>
      <point x="282" y="567"/>
      <point x="253" y="554"/>
      <point x="237" y="527"/>
      <point x="237" y="506" type="qcurve" smooth="yes"/>
      <point x="237" y="490"/>
      <point x="248" y="461"/>
      <point x="273" y="437"/>
      <point x="293" y="426" type="qcurve"/>
      <point x="332" y="410" type="line"/>
      <point x="428" y="375" type="line"/>
      <point x="482" y="350"/>
      <point x="548" y="292"/>
      <point x="579" y="224"/>
      <point x="579" y="185" type="qcurve" smooth="yes"/>
      <point x="579" y="132"/>
      <point x="515" y="38"/>
      <point x="389" y="-20"/>
      <point x="295" y="-20" type="qcurve" smooth="yes"/>
      <point x="206" y="-20"/>
      <point x="83" y="36"/>
      <point x="20" y="129"/>
      <point x="20" y="182" type="qcurve" smooth="yes"/>
      <point x="20" y="244"/>
      <point x="94" y="329"/>
      <point x="158" y="353" type="qcurve"/>
      <point x="281" y="300" type="line"/>
      <point x="248" y="284"/>
      <point x="216" y="227"/>
      <point x="216" y="194" type="qcurve" smooth="yes"/>
      <point x="216" y="160"/>
      <point x="263" y="118"/>
      <point x="302" y="118" type="qcurve" smooth="yes"/>
      <point x="345" y="118"/>
      <point x="383" y="160"/>
      <point x="383" y="188" type="qcurve" smooth="yes"/>
      <point x="383" y="211"/>
      <point x="367" y="242"/>
      <point x="332" y="266"/>
      <point x="304" y="277" type="qcurve" smooth="yes"/>
      <point x="251" y="297" type="line"/>
      <point x="159" y="335" type="line"/>
      <point x="96" y="371"/>
      <point x="46" y="462"/>
      <point x="46" y="509" type="qcurve" smooth="yes"/>
      <point x="46" y="562"/>
      <point x="108" y="647"/>
      <point x="222" y="696"/>
    </contour>
  </outline>
</glyph>
<glyph name="nine" format="1">
  <advance width="582"/>
  <unicode hex="0039"/>
  <outline>
    <contour>
      <point x="369" y="424" type="qcurve"/>
      <point x="353" y="290" type="line"/>
      <point x="325" y="260"/>
      <point x="261" y="229"/>
      <point x="213" y="229" type="qcurve" smooth="yes"/>
      <point x="160" y="229"/>
      <point x="70" y="283"/>
      <point x="15" y="385"/>
      <point x="15" y="456" type="qcurve" smooth="yes"/>
      <point x="15" y="527"/>
      <point x="87" y="635"/>
      <point x="210" y="696"/>
      <point x="288" y="696" type="qcurve" smooth="yes"/>
      <point x="379" y="696"/>
      <point x="500" y="628"/>
      <point x="562" y="509"/>
      <point x="562" y="433" type="qcurve" smooth="yes"/>
      <point x="562" y="330"/>
      <point x="507" y="173"/>
      <point x="394" y="61"/>
      <point x="220" y="-13"/>
      <point x="102" y="-32" type="qcurve"/>
      <point x="63" y="104" type="line"/>
      <point x="151" y="123"/>
      <point x="263" y="168"/>
      <point x="330" y="238"/>
      <point x="349" y="291" type="qcurve"/>
      <point x="358" y="377" type="line"/>
      <point x="360" y="446"/>
      <point x="350" y="526"/>
      <point x="318" y="560"/>
      <point x="286" y="560" type="qcurve" smooth="yes"/>
      <point x="265" y="560"/>
      <point x="232" y="540"/>
      <point x="213" y="498"/>
      <point x="213" y="466" type="qcurve" smooth="yes"/>
      <point x="213" y="424"/>
      <point x="232" y="380"/>
      <point x="262" y="363"/>
      <point x="279" y="363" type="qcurve" smooth="yes"/>
      <point x="302" y="363"/>
      <point x="351" y="392"/>
    </contour>
  </outline>
</glyph>
<glyph name="question" format="1">
  <advance width="495"/>
  <unicode hex="003F"/>
  <outline>
    <contour>
      <point x="254" y="716" type="qcurve" smooth="yes"/>
      <point x="333" y="716"/>
      <point x="438" y="668"/>
      <point x="490" y="589"/>
      <point x="490" y="542" type="qcurve" smooth="yes"/>
      <point x="490" y="501"/>
      <point x="464" y="444"/>
      <point x="423" y="404"/>
      <point x="378" y="373"/>
      <point x="337" y="344"/>
      <point x="311" y="308"/>
      <point x="311" y="283" type="qcurve" smooth="yes"/>
      <point x="311" y="270" type="line"/>
      <point x="135" y="270" type="line"/>
      <point x="135" y="289" type="line" smooth="yes"/>
      <point x="135" y="333"/>
      <point x="156" y="393"/>
      <point x="190" y="433"/>
      <point x="228" y="461"/>
      <point x="262" y="483"/>
      <point x="283" y="507"/>
      <point x="283" y="523" type="qcurve" smooth="yes"/>
      <point x="283" y="542"/>
      <point x="257" y="562"/>
      <point x="232" y="562" type="qcurve" smooth="yes"/>
      <point x="206" y="562"/>
      <point x="153" y="534"/>
      <point x="128" y="508" type="qcurve"/>
      <point x="5" y="604" type="line"/>
      <point x="47" y="654"/>
      <point x="168" y="716"/>
    </contour>
    <contour>
      <point x="224" y="186" type="qcurve" smooth="yes"/>
      <point x="267" y="186"/>
      <point x="327" y="125"/>
      <point x="327" y="83" type="qcurve" smooth="yes"/>
      <point x="327" y="41"/>
      <point x="267" y="-20"/>
      <point x="224" y="-20" type="qcurve" smooth="yes"/>
      <point x="181" y="-20"/>
      <point x="121" y="41"/>
      <point x="121" y="83" type="qcurve" smooth="yes"/>
      <point x="121" y="125"/>
      <point x="181" y="186"/>
    </contour>
  </outline>
</glyph>
<glyph name="at" format="1">
  <advance width="1020"/>
  <unicode hex="0040"/>
  <outline>
    <contour>
      <point x="527" y="-227" type="qcurve" smooth="yes"/>
      <point x="413" y="-227"/>
      <point x="232" y="-161"/>
      <point x="103" y="-38"/>
      <point x="35" y="135"/>
      <point x="35" y="243" type="qcurve" smooth="yes"/>
      <point x="35" y="348"/>
      <point x="109" y="521"/>
      <point x="242" y="647"/>
      <point x="421" y="716"/>
      <point x="527" y="716" type="qcurve" smooth="yes"/>
      <point x="635" y="716"/>
      <point x="805" y="651"/>
      <point x="923" y="539"/>
      <point x="985" y="397"/>
      <point x="985" y="321" type="qcurve" smooth="yes"/>
      <point x="985" y="249"/>
      <point x="950" y="131"/>
      <point x="887" y="47"/>
      <point x="803" y="1"/>
      <point x="754" y="1" type="qcurve" smooth="yes"/>
      <point x="715" y="1"/>
      <point x="658" y="31"/>
      <point x="623" y="77"/>
      <point x="618" y="102" type="qcurve"/>
      <point x="599" y="57"/>
      <point x="526" y="6"/>
      <point x="475" y="6" type="qcurve" smooth="yes"/>
      <point x="405" y="6"/>
      <point x="322" y="67"/>
      <point x="286" y="171"/>
      <point x="286" y="234" type="qcurve" smooth="yes"/>
      <point x="286" y="314"/>
      <point x="340" y="438"/>
      <point x="447" y="509"/>
      <point x="528" y="509" type="qcurve" smooth="yes"/>
      <point x="570" y="509"/>
      <point x="671" y="484"/>
      <point x="711" y="461" type="qcurve"/>
      <point x="711" y="222" type="line" smooth="yes"/>
      <point x="711" y="161"/>
      <point x="723" y="116"/>
      <point x="745" y="116" type="qcurve" smooth="yes"/>
      <point x="763" y="116"/>
      <point x="795" y="149"/>
      <point x="814" y="237"/>
      <point x="814" y="319" type="qcurve" smooth="yes"/>
      <point x="814" y="380"/>
      <point x="781" y="476"/>
      <point x="711" y="542"/>
      <point x="602" y="577"/>
      <point x="526" y="577" type="qcurve" smooth="yes"/>
      <point x="448" y="577"/>
      <point x="329" y="530"/>
      <point x="249" y="441"/>
      <point x="208" y="319"/>
      <point x="208" y="244" type="qcurve" smooth="yes"/>
      <point x="208" y="140"/>
      <point x="280" y="-8"/>
      <point x="422" y="-86"/>
      <point x="528" y="-86" type="qcurve" smooth="yes"/>
      <point x="561" y="-86"/>
      <point x="634" y="-76"/>
      <point x="702" y="-61"/>
      <point x="727" y="-51" type="qcurve"/>
      <point x="772" y="-183" type="line"/>
      <point x="742" y="-196"/>
      <point x="657" y="-215"/>
      <point x="567" y="-227"/>
    </contour>
    <contour>
      <point x="501" y="125" type="qcurve" smooth="yes"/>
      <point x="511" y="125"/>
      <point x="527" y="132"/>
      <point x="541" y="144"/>
      <point x="546" y="153" type="qcurve"/>
      <point x="546" y="383" type="line"/>
      <point x="537" y="387"/>
      <point x="525" y="389"/>
      <point x="517" y="389" type="qcurve" smooth="yes"/>
      <point x="502" y="389"/>
      <point x="476" y="364"/>
      <point x="460" y="297"/>
      <point x="460" y="233" type="qcurve" smooth="yes"/>
      <point x="460" y="168"/>
      <point x="479" y="125"/>
    </contour>
  </outline>
</glyph>
<glyph name="B" format="1">
  <advance width="622"/>
  <unicode hex="0042"/>
  <outline>
    <contour>
      <point x="287" y="0" type="qcurve" smooth="yes"/>
      <point x="43" y="0" type="line"/>
      <point x="43" y="696" type="line"/>
      <point x="260" y="696" type="line" smooth="yes"/>
      <point x="358" y="696"/>
      <point x="500" y="663"/>
      <point x="578" y="584"/>
      <point x="578" y="516" type="qcurve" smooth="yes"/>
      <point x="578" y="471"/>
      <point x="541" y="412"/>
      <point x="483" y="377"/>
      <point x="452" y="369" type="qcurve"/>
      <point x="490" y="361"/>
      <point x="561" y="326"/>
      <point x="607" y="261"/>
      <point x="607" y="206" type="qcurve" smooth="yes"/>
      <point x="607" y="124"/>
      <point x="523" y="34"/>
      <point x="379" y="0"/>
    </contour>
    <contour>
      <point x="249" y="297" type="line"/>
      <point x="249" y="145" type="line"/>
      <point x="289" y="145" type="line" smooth="yes"/>
      <point x="321" y="145"/>
      <point x="368" y="157"/>
      <point x="395" y="189"/>
      <point x="395" y="220" type="qcurve" smooth="yes"/>
      <point x="395" y="247"/>
      <point x="373" y="281"/>
      <point x="329" y="297"/>
      <point x="297" y="297" type="qcurve" smooth="yes"/>
    </contour>
    <contour>
      <point x="249" y="555" type="line"/>
      <point x="249" y="427" type="line"/>
      <point x="284" y="427" type="line" smooth="yes"/>
      <point x="316" y="427"/>
      <point x="353" y="441"/>
      <point x="369" y="471"/>
      <point x="369" y="495" type="qcurve" smooth="yes"/>
      <point x="369" y="526"/>
      <point x="329" y="555"/>
      <point x="279" y="555" type="qcurve" smooth="yes"/>
    </contour>
    <contour>
      <point x="281" y="680" type="move" name="top"/>
    </contour>
    <contour>
      <point x="310" y="0" type="move" name="bottom"/>
    </contour>
  </outline>
</glyph>
<glyph name="C" format="1">
  <advance width="584"/>
  <unicode hex="0043"/>
  <outline>
    <contour>
      <point x="348" y="716" type="qcurve" smooth="yes"/>
      <point x="421" y="716"/>
      <point x="532" y="672"/>
      <point x="576" y="634" type="qcurve"/>
      <point x="478" y="519" type="line"/>
      <point x="453" y="542"/>
      <point x="396" y="568"/>
      <point x="360" y="568" type="qcurve" smooth="yes"/>
      <point x="321" y="568"/>
      <point x="265" y="520"/>
      <point x="234" y="424"/>
      <point x="234" y="350" type="qcurve" smooth="yes"/>
      <point x="234" y="277"/>
      <point x="265" y="181"/>
      <point x="325" y="135"/>
      <point x="366" y="135" type="qcurve" smooth="yes"/>
      <point x="403" y="135"/>
      <point x="463" y="169"/>
      <point x="494" y="193" type="qcurve"/>
      <point x="584" y="77" type="line"/>
      <point x="546" y="39"/>
      <point x="428" y="-20"/>
      <point x="354" y="-20" type="qcurve" smooth="yes"/>
      <point x="252" y="-20"/>
      <point x="102" y="65"/>
      <point x="20" y="230"/>
      <point x="20" y="350" type="qcurve" smooth="yes"/>
      <point x="20" y="466"/>
      <point x="104" y="630"/>
      <point x="252" y="716"/>
    </contour>
    <contour>
      <point x="323" y="341" type="move" name="center"/>
    </contour>
    <contour>
      <point x="341" y="0" type="move" name="bottom"/>
    </contour>
    <contour>
      <point x="343" y="680" type="move" name="top"/>
    </contour>
  </outline>
</glyph>
<glyph name="D" format="1">
  <advance width="656"/>
  <unicode hex="0044"/>
  <outline>
    <contour>
      <point x="43" y="696" type="line"/>
      <point x="266" y="696" type="line" smooth="yes"/>
      <point x="338" y="696"/>
      <point x="470" y="668"/>
      <point x="575" y="594"/>
      <point x="636" y="458"/>
      <point x="636" y="351" type="qcurve" smooth="yes"/>
      <point x="636" y="247"/>
      <point x="579" y="110"/>
      <point x="480" y="32"/>
      <point x="351" y="0"/>
      <point x="278" y="0" type="qcurve" smooth="yes"/>
      <point x="43" y="0" type="line"/>
    </contour>
    <contour>
      <point x="291" y="551" type="qcurve" smooth="yes"/>
      <point x="249" y="551" type="line"/>
      <point x="249" y="145" type="line"/>
      <point x="290" y="145" type="line" smooth="yes"/>
      <point x="325" y="145"/>
      <point x="376" y="165"/>
      <point x="408" y="212"/>
      <point x="424" y="292"/>
      <point x="424" y="351" type="qcurve" smooth="yes"/>
      <point x="424" y="410"/>
      <point x="407" y="488"/>
      <point x="374" y="533"/>
      <point x="324" y="551"/>
    </contour>
    <contour>
      <point x="309" y="340" type="move" name="center"/>
    </contour>
    <contour>
      <point x="310" y="0" type="move" name="bottom"/>
    </contour>
    <contour>
      <point x="289" y="680" type="move" name="top"/>
    </contour>
  </outline>
</glyph>
<glyph name="G" format="1">
  <advance width="653"/>
  <unicode hex="0047"/>
  <outline>
    <contour>
      <point x="371" y="716" type="qcurve" smooth="yes"/>
      <point x="450" y="716"/>
      <point x="576" y="663"/>
      <point x="618" y="625" type="qcurve"/>
      <point x="514" y="518" type="line"/>
      <point x="483" y="545"/>
      <point x="423" y="572"/>
      <point x="383" y="572" type="qcurve" smooth="yes"/>
      <point x="347" y="572"/>
      <point x="291" y="545"/>
      <point x="252" y="490"/>
      <point x="232" y="405"/>
      <point x="232" y="348" type="qcurve" smooth="yes"/>
      <point x="232" y="262"/>
      <point x="257" y="165"/>
      <point x="309" y="126"/>
      <point x="349" y="126" type="qcurve" smooth="yes"/>
      <point x="369" y="126"/>
      <point x="404" y="135"/>
      <point x="420" y="143" type="qcurve"/>
      <point x="420" y="270" type="line"/>
      <point x="350" y="270" type="line"/>
      <point x="331" y="409" type="line"/>
      <point x="618" y="409" type="line"/>
      <point x="618" y="60" type="line"/>
      <point x="562" y="22"/>
      <point x="420" y="-20"/>
      <point x="355" y="-20" type="qcurve" smooth="yes"/>
      <point x="238" y="-20"/>
      <point x="90" y="66"/>
      <point x="20" y="231"/>
      <point x="20" y="349" type="qcurve" smooth="yes"/>
      <point x="20" y="438"/>
      <point x="73" y="574"/>
      <point x="168" y="668"/>
      <point x="296" y="716"/>
    </contour>
    <contour>
      <point x="337" y="680" type="move" name="top"/>
    </contour>
    <contour>
      <point x="338" y="0" type="move" name="bottom"/>
    </contour>
  </outline>
</glyph>
<glyph name="J" format="1">
  <advance width="325"/>
  <unicode hex="004A"/>
  <outline>
    <contour>
      <point x="78" y="696" type="line"/>
      <point x="284" y="696" type="line"/>
      <point x="284" y="111" type="line" smooth="yes"/>
      <point x="284" y="38"/>
      <point x="241" y="-63"/>
      <point x="169" y="-131"/>
      <point x="80" y="-174"/>
      <point x="35" y="-189" type="qcurve"/>
      <point x="-20" y="-44" type="line"/>
      <point x="25" y="-27"/>
      <point x="66" y="19"/>
      <point x="78" y="80"/>
      <point x="78" y="118" type="qcurve" smooth="yes"/>
    </contour>
    <contour>
      <point x="150" y="680" type="move" name="top"/>
    </contour>
    <contour>
      <point x="137" y="-188" type="move" name="bottom"/>
    </contour>
  </outline>
</glyph>
<glyph name="M" format="1">
  <advance width="791"/>
  <unicode hex="004D"/>
  <outline>
    <contour>
      <point x="471" y="696" type="line"/>
      <point x="726" y="696" type="line"/>
      <point x="776" y="0" type="line"/>
      <point x="573" y="0" type="line"/>
      <point x="568" y="247" type="line" smooth="yes"/>
      <point x="567" y="292"/>
      <point x="567" y="383"/>
      <point x="571" y="479"/>
      <point x="575" y="531" type="qcurve"/>
      <point x="493" y="70" type="line"/>
      <point x="298" y="70" type="line"/>
      <point x="210" y="531" type="line"/>
      <point x="214" y="488"/>
      <point x="220" y="415"/>
      <point x="223" y="348"/>
      <point x="224" y="283"/>
      <point x="223" y="248" type="qcurve" smooth="yes"/>
      <point x="218" y="0" type="line"/>
      <point x="15" y="0" type="line"/>
      <point x="65" y="696" type="line"/>
      <point x="319" y="696" type="line"/>
      <point x="399" y="245" type="line"/>
    </contour>
    <contour>
      <point x="378" y="680" type="move" name="top"/>
    </contour>
    <contour>
      <point x="379" y="0" type="move" name="bottom"/>
    </contour>
    <contour>
      <point x="681" y="0" type="move" name="bottomright"/>
    </contour>
  </outline>
</glyph>
<glyph name="N" format="1">
  <advance width="651"/>
  <unicode hex="004E"/>
  <outline>
    <contour>
      <point x="426" y="696" type="line"/>
      <point x="608" y="696" type="line"/>
      <point x="608" y="0" type="line"/>
      <point x="350" y="0" type="line"/>
      <point x="198" y="508" type="line"/>
      <point x="203" y="475"/>
      <point x="216" y="388"/>
      <point x="225" y="281"/>
      <point x="225" y="216" type="qcurve" smooth="yes"/>
      <point x="225" y="0" type="line"/>
      <point x="43" y="0" type="line"/>
      <point x="43" y="696" type="line"/>
      <point x="296" y="696" type="line"/>
      <point x="454" y="186" type="line"/>
      <point x="448" y="227"/>
      <point x="435" y="311"/>
      <point x="426" y="410"/>
      <point x="426" y="473" type="qcurve" smooth="yes"/>
    </contour>
    <contour>
      <point x="331" y="680" type="move" name="top"/>
    </contour>
    <contour>
      <point x="321" y="0" type="move" name="bottom"/>
    </contour>
  </outline>
</glyph>
<glyph name="O" format="1">
  <advance width="690"/>
  <unicode hex="004F"/>
  <outline>
    <contour>
      <point x="345" y="716" type="qcurve" smooth="yes"/>
      <point x="450" y="716"/>
      <point x="595" y="629"/>
      <point x="670" y="465"/>
      <point x="670" y="349" type="qcurve" smooth="yes"/>
      <point x="670" y="236"/>
      <point x="595" y="70"/>
      <point x="450" y="-20"/>
      <point x="345" y="-20" type="qcurve" smooth="yes"/>
      <point x="240" y="-20"/>
      <point x="95" y="68"/>
      <point x="20" y="234"/>
      <point x="20" y="349" type="qcurve" smooth="yes"/>
      <point x="20" y="462"/>
      <point x="95" y="627"/>
      <point x="240" y="716"/>
    </contour>
    <contour>
      <point x="345" y="570" type="qcurve" smooth="yes"/>
      <point x="306" y="570"/>
      <point x="257" y="527"/>
      <point x="234" y="430"/>
      <point x="234" y="349" type="qcurve" smooth="yes"/>
      <point x="234" y="269"/>
      <point x="257" y="170"/>
      <point x="306" y="126"/>
      <point x="345" y="126" type="qcurve" smooth="yes"/>
      <point x="405" y="126"/>
      <point x="456" y="228"/>
      <point x="456" y="349" type="qcurve" smooth="yes"/>
      <point x="456" y="470"/>
      <point x="404" y="570"/>
    </contour>
    <contour>
      <point x="422" y="0" type="move" name="ogonek"/>
    </contour>
    <contour>
      <point x="344" y="680" type="move" name="top"/>
    </contour>
    <contour>
      <point x="517" y="680" type="move" name="topright"/>
    </contour>
    <contour>
      <point x="102" y="680" type="move" name="topleft"/>
    </contour>
    <contour>
      <point x="344" y="0" type="move" name="bottom"/>
    </contour>
  </outline>
</glyph>
<glyph name="P" format="1">
  <advance width="611"/>
  <unicode hex="0050"/>
  <outline>
    <contour>
      <point x="249" y="553" type="line"/>
      <point x="249" y="0" type="line"/>
      <point x="43" y="0" type="line"/>
      <point x="43" y="696" type="line"/>
      <point x="294" y="696" type="line" smooth="yes"/>
      <point x="434" y="696"/>
      <point x="596" y="579"/>
      <point x="596" y="462" type="qcurve" smooth="yes"/>
      <point x="596" y="381"/>
      <point x="525" y="272"/>
      <point x="400" y="217"/>
      <point x="317" y="217" type="qcurve" smooth="yes"/>
      <point x="233" y="217" type="line"/>
      <point x="233" y="362" type="line"/>
      <point x="297" y="362" type="line" smooth="yes"/>
      <point x="326" y="362"/>
      <point x="366" y="384"/>
      <point x="386" y="428"/>
      <point x="386" y="462" type="qcurve" smooth="yes"/>
      <point x="386" y="505"/>
      <point x="342" y="553"/>
      <point x="291" y="553" type="qcurve" smooth="yes"/>
    </contour>
    <contour>
      <point x="276" y="680" type="move" name="top"/>
    </contour>
    <contour>
      <point x="276" y="0" type="move" name="bottom"/>
    </contour>
    <contour>
      <point x="80" y="680" type="move" name="topleft"/>
    </contour>
  </outline>
</glyph>
<glyph name="Q" format="1">
  <advance width="690"/>
  <unicode hex="0051"/>
  <outline>
    <contour>
      <point x="720" y="-15" type="qcurve"/>
      <point x="599" y="-173" type="line"/>
      <point x="571" y="-137"/>
      <point x="496" y="-64"/>
      <point x="396" y="-16"/>
      <point x="330" y="-16" type="qcurve" smooth="yes"/>
      <point x="233" y="-16"/>
      <point x="94" y="70"/>
      <point x="20" y="234"/>
      <point x="20" y="349" type="qcurve" smooth="yes"/>
      <point x="20" y="462"/>
      <point x="95" y="627"/>
      <point x="240" y="716"/>
      <point x="345" y="716" type="qcurve" smooth="yes"/>
      <point x="450" y="716"/>
      <point x="595" y="629"/>
      <point x="670" y="465"/>
      <point x="670" y="349" type="qcurve" smooth="yes"/>
      <point x="670" y="266"/>
      <point x="620" y="148"/>
      <point x="543" y="71"/>
      <point x="504" y="48" type="qcurve"/>
      <point x="577" y="48"/>
      <point x="676" y="18"/>
    </contour>
    <contour>
      <point x="345" y="126" type="qcurve" smooth="yes"/>
      <point x="405" y="126"/>
      <point x="456" y="228"/>
      <point x="456" y="349" type="qcurve" smooth="yes"/>
      <point x="456" y="470"/>
      <point x="404" y="570"/>
      <point x="345" y="570" type="qcurve" smooth="yes"/>
      <point x="306" y="570"/>
      <point x="257" y="527"/>
      <point x="234" y="430"/>
      <point x="234" y="349" type="qcurve" smooth="yes"/>
      <point x="234" y="269"/>
      <point x="257" y="170"/>
      <point x="306" y="126"/>
    </contour>
    <contour>
      <point x="337" y="680" type="move" name="top"/>
    </contour>
    <contour>
      <point x="337" y="0" type="move" name="bottom"/>
    </contour>
  </outline>
</glyph>
<glyph name="R" format="1">
  <advance width="624"/>
  <unicode hex="0052"/>
  <outline>
    <contour>
      <point x="249" y="0" type="line"/>
      <point x="43" y="0" type="line"/>
      <point x="43" y="696" type="line"/>
      <point x="298" y="696" type="line" smooth="yes"/>
      <point x="398" y="696"/>
      <point x="530" y="649"/>
      <point x="597" y="552"/>
      <point x="597" y="475" type="qcurve" smooth="yes"/>
      <point x="597" y="431"/>
      <point x="571" y="364"/>
      <point x="517" y="311"/>
      <point x="474" y="286" type="qcurve"/>
      <point x="644" y="0" type="line"/>
      <point x="416" y="0" type="line"/>
      <point x="287" y="248" type="line"/>
      <point x="249" y="248" type="line"/>
    </contour>
    <contour>
      <point x="249" y="555" type="line"/>
      <point x="249" y="386" type="line"/>
      <point x="303" y="386" type="line" smooth="yes"/>
      <point x="331" y="386"/>
      <point x="368" y="405"/>
      <point x="387" y="445"/>
      <point x="387" y="475" type="qcurve" smooth="yes"/>
      <point x="387" y="503"/>
      <point x="365" y="538"/>
      <point x="324" y="555"/>
      <point x="293" y="555" type="qcurve" smooth="yes"/>
    </contour>
    <contour>
      <point x="281" y="680" type="move" name="top"/>
    </contour>
    <contour>
      <point x="301" y="0" type="move" name="bottom"/>
    </contour>
  </outline>
</glyph>
<glyph name="S" format="1">
  <advance width="588"/>
  <unicode hex="0053"/>
  <outline>
    <contour>
      <point x="299" y="716" type="qcurve" smooth="yes"/>
      <point x="383" y="716"/>
      <point x="509" y="667"/>
      <point x="556" y="621" type="qcurve"/>
      <point x="465" y="514" type="line"/>
      <point x="431" y="542"/>
      <point x="357" y="570"/>
      <point x="316" y="570" type="qcurve" smooth="yes"/>
      <point x="291" y="570"/>
      <point x="258" y="558"/>
      <point x="241" y="536"/>
      <point x="241" y="520" type="qcurve" smooth="yes"/>
      <point x="241" y="502"/>
      <point x="262" y="479"/>
      <point x="317" y="457"/>
      <point x="366" y="441" type="qcurve" smooth="yes"/>
      <point x="438" y="418"/>
      <point x="529" y="357"/>
      <point x="573" y="271"/>
      <point x="573" y="208" type="qcurve" smooth="yes"/>
      <point x="573" y="141"/>
      <point x="503" y="38"/>
      <point x="372" y="-20"/>
      <point x="280" y="-20" type="qcurve" smooth="yes"/>
      <point x="180" y="-20"/>
      <point x="43" y="44"/>
      <point x="0" y="85" type="qcurve"/>
      <point x="101" y="196" type="line"/>
      <point x="139" y="164"/>
      <point x="223" y="128"/>
      <point x="272" y="128" type="qcurve" smooth="yes"/>
      <point x="302" y="128"/>
      <point x="341" y="144"/>
      <point x="359" y="173"/>
      <point x="359" y="191" type="qcurve" smooth="yes"/>
      <point x="359" y="212"/>
      <point x="340" y="240"/>
      <point x="292" y="264"/>
      <point x="246" y="278" type="qcurve" smooth="yes"/>
      <point x="162" y="305"/>
      <point x="68" y="370"/>
      <point x="29" y="453"/>
      <point x="29" y="503" type="qcurve" smooth="yes"/>
      <point x="29" y="569"/>
      <point x="100" y="665"/>
      <point x="222" y="716"/>
    </contour>
    <contour>
      <point x="273" y="680" type="move" name="top"/>
    </contour>
    <contour>
      <point x="261" y="0" type="move" name="bottom"/>
    </contour>
  </outline>
</glyph>
<glyph name="U" format="1">
  <advance width="644"/>
  <unicode hex="0055"/>
  <outline>
    <contour>
      <point x="405" y="696" type="line"/>
      <point x="611" y="696" type="line"/>
      <point x="611" y="236" type="line" smooth="yes"/>
      <point x="611" y="165"/>
      <point x="548" y="49"/>
      <point x="420" y="-20"/>
      <point x="322" y="-20" type="qcurve" smooth="yes"/>
      <point x="224" y="-20"/>
      <point x="96" y="45"/>
      <point x="33" y="160"/>
      <point x="33" y="236" type="qcurve" smooth="yes"/>
      <point x="33" y="696" type="line"/>
      <point x="239" y="696" type="line"/>
      <point x="239" y="242" type="line" smooth="yes"/>
      <point x="239" y="204"/>
      <point x="255" y="153"/>
      <point x="292" y="128"/>
      <point x="322" y="128" type="qcurve" smooth="yes"/>
      <point x="352" y="128"/>
      <point x="389" y="153"/>
      <point x="405" y="204"/>
      <point x="405" y="242" type="qcurve" smooth="yes"/>
    </contour>
    <contour>
      <point x="397" y="0" type="move" name="ogonek"/>
    </contour>
    <contour>
      <point x="317" y="680" type="move" name="top"/>
    </contour>
    <contour>
      <point x="524" y="680" type="move" name="topright"/>
    </contour>
    <contour>
      <point x="317" y="0" type="move" name="bottom"/>
    </contour>
  </outline>
</glyph>
<glyph name="a" format="1">
  <advance width="551"/>
  <unicode hex="0061"/>
  <outline>
    <contour>
      <point x="191" y="-20" type="qcurve" smooth="yes"/>
      <point x="111" y="-20"/>
      <point x="15" y="76"/>
      <point x="15" y="150" type="qcurve" smooth="yes"/>
      <point x="15" y="239"/>
      <point x="147" y="333"/>
      <point x="273" y="333" type="qcurve" smooth="yes"/>
      <point x="311" y="333" type="line"/>
      <point x="311" y="346" type="line" smooth="yes"/>
      <point x="311" y="387"/>
      <point x="278" y="414"/>
      <point x="234" y="414" type="qcurve" smooth="yes"/>
      <point x="211" y="414"/>
      <point x="136" y="400"/>
      <point x="96" y="386" type="qcurve"/>
      <point x="53" y="512" type="line"/>
      <point x="103" y="532"/>
      <point x="218" y="554"/>
      <point x="264" y="554" type="qcurve" smooth="yes"/>
      <point x="392" y="554"/>
      <point x="504" y="456"/>
      <point x="504" y="357" type="qcurve" smooth="yes"/>
      <point x="504" y="173" type="line" smooth="yes"/>
      <point x="504" y="145"/>
      <point x="518" y="118"/>
      <point x="536" y="111" type="qcurve"/>
      <point x="496" y="-16" type="line"/>
      <point x="444" y="-12"/>
      <point x="375" y="20"/>
      <point x="352" y="58" type="qcurve"/>
      <point x="323" y="14"/>
      <point x="237" y="-20"/>
    </contour>
    <contour>
      <point x="252" y="119" type="qcurve" smooth="yes"/>
      <point x="271" y="119"/>
      <point x="301" y="138"/>
      <point x="311" y="151" type="qcurve"/>
      <point x="311" y="230" type="line"/>
      <point x="290" y="230" type="line" smooth="yes"/>
      <point x="248" y="230"/>
      <point x="208" y="201"/>
      <point x="208" y="169" type="qcurve" smooth="yes"/>
      <point x="208" y="147"/>
      <point x="232" y="119"/>
    </contour>
    <contour>
      <point x="457" y="-9" type="move" name="ogonek"/>
    </contour>
    <contour>
      <point x="250" y="0" type="move" name="bottom"/>
    </contour>
    <contour>
      <point x="250" y="517" type="move" name="top"/>
    </contour>
  </outline>
</glyph>
<glyph name="b" format="1">
  <advance width="599"/>
  <unicode hex="0062"/>
  <outline>
    <contour>
      <point x="363" y="-20" type="qcurve" smooth="yes"/>
      <point x="319" y="-20"/>
      <point x="248" y="15"/>
      <point x="225" y="46" type="qcurve"/>
      <point x="218" y="0" type="line"/>
      <point x="42" y="0" type="line"/>
      <point x="42" y="744" type="line"/>
      <point x="240" y="764" type="line"/>
      <point x="240" y="487" type="line"/>
      <point x="262" y="517"/>
      <point x="338" y="554"/>
      <point x="375" y="554" type="qcurve" smooth="yes"/>
      <point x="479" y="554"/>
      <point x="577" y="400"/>
      <point x="577" y="266" type="qcurve" smooth="yes"/>
      <point x="577" y="185"/>
      <point x="526" y="55"/>
      <point x="431" y="-20"/>
    </contour>
    <contour>
      <point x="305" y="121" type="qcurve" smooth="yes"/>
      <point x="335" y="121"/>
      <point x="374" y="182"/>
      <point x="374" y="266" type="qcurve" smooth="yes"/>
      <point x="374" y="329"/>
      <point x="357" y="391"/>
      <point x="329" y="412"/>
      <point x="311" y="412" type="qcurve" smooth="yes"/>
      <point x="292" y="412"/>
      <point x="255" y="389"/>
      <point x="240" y="362" type="qcurve"/>
      <point x="240" y="160" type="line"/>
      <point x="252" y="140"/>
      <point x="285" y="121"/>
    </contour>
    <contour>
      <point x="289" y="727" type="move" name="top"/>
    </contour>
    <contour>
      <point x="284" y="0" type="move" name="bottom"/>
    </contour>
  </outline>
</glyph>
<glyph name="c" format="1">
  <advance width="479"/>
  <unicode hex="0063"/>
  <outline>
    <contour>
      <point x="295" y="554" type="qcurve" smooth="yes"/>
      <point x="357" y="554"/>
      <point x="451" y="517"/>
      <point x="489" y="483" type="qcurve"/>
      <point x="407" y="368" type="line"/>
      <point x="383" y="388"/>
      <point x="337" y="405"/>
      <point x="313" y="405" type="qcurve" smooth="yes"/>
      <point x="270" y="405"/>
      <point x="223" y="344"/>
      <point x="223" y="263" type="qcurve" smooth="yes"/>
      <point x="223" y="210"/>
      <point x="246" y="153"/>
      <point x="286" y="133"/>
      <point x="311" y="133" type="qcurve" smooth="yes"/>
      <point x="336" y="133"/>
      <point x="376" y="150"/>
      <point x="404" y="167" type="qcurve"/>
      <point x="489" y="46" type="line"/>
      <point x="452" y="16"/>
      <point x="360" y="-20"/>
      <point x="300" y="-20" type="qcurve" smooth="yes"/>
      <point x="212" y="-20"/>
      <point x="85" y="52"/>
      <point x="17" y="180"/>
      <point x="17" y="263" type="qcurve" smooth="yes"/>
      <point x="17" y="348"/>
      <point x="86" y="479"/>
      <point x="211" y="554"/>
    </contour>
    <contour>
      <point x="269" y="517" type="move" name="top"/>
    </contour>
    <contour>
      <point x="285" y="-1" type="move" name="bottom"/>
    </contour>
  </outline>
</glyph>
<glyph name="e" format="1">
  <advance width="557"/>
  <unicode hex="0065"/>
  <outline>
    <contour>
      <point x="283" y="554" type="qcurve" smooth="yes"/>
      <point x="362" y="554"/>
      <point x="480" y="489"/>
      <point x="545" y="364"/>
      <point x="545" y="274" type="qcurve" smooth="yes"/>
      <point x="545" y="261"/>
      <point x="543" y="225"/>
      <point x="541" y="211" type="qcurve"/>
      <point x="201" y="211" type="line"/>
      <point x="199" y="323" type="line"/>
      <point x="350" y="323" type="line"/>
      <point x="350" y="325"/>
      <point x="350" y="329"/>
      <point x="350" y="330" type="qcurve" smooth="yes"/>
      <point x="350" y="357"/>
      <point x="339" y="402"/>
      <point x="313" y="429"/>
      <point x="287" y="429" type="qcurve" smooth="yes"/>
      <point x="262" y="429"/>
      <point x="229" y="400"/>
      <point x="214" y="328"/>
      <point x="214" y="263" type="qcurve" smooth="yes"/>
      <point x="214" y="202"/>
      <point x="240" y="140"/>
      <point x="290" y="120"/>
      <point x="324" y="120" type="qcurve" smooth="yes"/>
      <point x="353" y="120"/>
      <point x="411" y="143"/>
      <point x="445" y="167" type="qcurve"/>
      <point x="525" y="59" type="line"/>
      <point x="485" y="27"/>
      <point x="375" y="-20"/>
      <point x="305" y="-20" type="qcurve" smooth="yes"/>
      <point x="207" y="-20"/>
      <point x="79" y="54"/>
      <point x="17" y="184"/>
      <point x="17" y="266" type="qcurve" smooth="yes"/>
      <point x="17" y="344"/>
      <point x="76" y="475"/>
      <point x="195" y="554"/>
    </contour>
    <contour>
      <point x="364" y="4" type="move" name="ogonek"/>
    </contour>
    <contour>
      <point x="276" y="0" type="move" name="bottom"/>
    </contour>
    <contour>
      <point x="276" y="517" type="move" name="top"/>
    </contour>
  </outline>
</glyph>
<glyph name="f" format="1">
  <advance width="369"/>
  <unicode hex="0066"/>
  <outline>
    <contour>
      <point x="268" y="0" type="line"/>
      <point x="70" y="0" type="line"/>
      <point x="70" y="400" type="line"/>
      <point x="-2" y="400" type="line"/>
      <point x="-2" y="534" type="line"/>
      <point x="70" y="534" type="line"/>
      <point x="70" y="565" type="line" smooth="yes"/>
      <point x="70" y="620"/>
      <point x="119" y="710"/>
      <point x="220" y="764"/>
      <point x="296" y="764" type="qcurve" smooth="yes"/>
      <point x="340" y="764"/>
      <point x="425" y="742"/>
      <point x="453" y="727" type="qcurve"/>
      <point x="401" y="602" type="line"/>
      <point x="380" y="613"/>
      <point x="340" y="622"/>
      <point x="323" y="622" type="qcurve" smooth="yes"/>
      <point x="295" y="622"/>
      <point x="268" y="593"/>
      <point x="268" y="555" type="qcurve" smooth="yes"/>
      <point x="268" y="534" type="line"/>
      <point x="392" y="534" type="line"/>
      <point x="370" y="400" type="line"/>
      <point x="268" y="400" type="line"/>
    </contour>
    <contour>
      <point x="240" y="727" type="move" name="top"/>
    </contour>
    <contour>
      <point x="128" y="0" type="move" name="bottom"/>
    </contour>
  </outline>
</glyph>
<glyph name="g" format="1">
  <advance width="570"/>
  <unicode hex="0067"/>
  <outline>
    <contour>
      <point x="266" y="-227" type="qcurve" smooth="yes"/>
      <point x="157" y="-227"/>
      <point x="39" y="-181"/>
      <point x="-5" y="-101"/>
      <point x="-5" y="-49" type="qcurve"/>
      <point x="172" y="-49" type="line"/>
      <point x="172" y="-69"/>
      <point x="187" y="-92"/>
      <point x="230" y="-102"/>
      <point x="272" y="-102" type="qcurve" smooth="yes"/>
      <point x="312" y="-102"/>
      <point x="351" y="-88"/>
      <point x="363" y="-67"/>
      <point x="363" y="-56" type="qcurve" smooth="yes"/>
      <point x="363" y="-42"/>
      <point x="339" y="-17"/>
      <point x="306" y="-17" type="qcurve" smooth="yes"/>
      <point x="232" y="-17" type="line" smooth="yes"/>
      <point x="135" y="-17"/>
      <point x="52" y="46"/>
      <point x="52" y="90" type="qcurve" smooth="yes"/>
      <point x="52" y="122"/>
      <point x="91" y="180"/>
      <point x="120" y="197" type="qcurve"/>
      <point x="65" y="226"/>
      <point x="20" y="301"/>
      <point x="20" y="353" type="qcurve" smooth="yes"/>
      <point x="20" y="417"/>
      <point x="82" y="507"/>
      <point x="195" y="554"/>
      <point x="271" y="554" type="qcurve" smooth="yes"/>
      <point x="313" y="553"/>
      <point x="385" y="565"/>
      <point x="447" y="588"/>
      <point x="502" y="619"/>
      <point x="527" y="636" type="qcurve"/>
      <point x="570" y="498" type="line"/>
      <point x="545" y="487"/>
      <point x="471" y="474"/>
      <point x="418" y="474" type="qcurve"/>
      <point x="471" y="452"/>
      <point x="522" y="390"/>
      <point x="522" y="334" type="qcurve" smooth="yes"/>
      <point x="522" y="284"/>
      <point x="464" y="204"/>
      <point x="358" y="158"/>
      <point x="285" y="158" type="qcurve" smooth="yes"/>
      <point x="269" y="158"/>
      <point x="242" y="159"/>
      <point x="228" y="161" type="qcurve"/>
      <point x="222" y="158"/>
      <point x="216" y="148"/>
      <point x="216" y="142" type="qcurve" smooth="yes"/>
      <point x="216" y="135"/>
      <point x="231" y="117"/>
      <point x="268" y="117" type="qcurve" smooth="yes"/>
      <point x="345" y="117" type="line" smooth="yes"/>
      <point x="446" y="117"/>
      <point x="562" y="28"/>
      <point x="562" y="-42" type="qcurve" smooth="yes"/>
      <point x="562" y="-127"/>
      <point x="411" y="-227"/>
    </contour>
    <contour>
      <point x="277" y="284" type="qcurve" smooth="yes"/>
      <point x="307" y="284"/>
      <point x="338" y="321"/>
      <point x="338" y="360" type="qcurve" smooth="yes"/>
      <point x="338" y="384"/>
      <point x="325" y="413"/>
      <point x="298" y="426"/>
      <point x="277" y="426" type="qcurve" smooth="yes"/>
      <point x="260" y="426"/>
      <point x="232" y="411"/>
      <point x="216" y="380"/>
      <point x="216" y="357" type="qcurve" smooth="yes"/>
      <point x="216" y="332"/>
      <point x="232" y="299"/>
      <point x="260" y="284"/>
    </contour>
    <contour>
      <point x="244" y="517" type="move" name="top"/>
    </contour>
    <contour>
      <point x="252" y="-188" type="move" name="bottom"/>
    </contour>
  </outline>
</glyph>
<glyph name="h" format="1">
  <advance width="572"/>
  <unicode hex="0068"/>
  <outline>
    <contour>
      <point x="240" y="0" type="line"/>
      <point x="42" y="0" type="line"/>
      <point x="42" y="744" type="line"/>
      <point x="240" y="764" type="line"/>
      <point x="240" y="486" type="line"/>
      <point x="275" y="522"/>
      <point x="346" y="554"/>
      <point x="391" y="554" type="qcurve" smooth="yes"/>
      <point x="458" y="554"/>
      <point x="535" y="471"/>
      <point x="535" y="394" type="qcurve" smooth="yes"/>
      <point x="535" y="0" type="line"/>
      <point x="337" y="0" type="line"/>
      <point x="337" y="358" type="line" smooth="yes"/>
      <point x="337" y="390"/>
      <point x="321" y="410"/>
      <point x="307" y="410" type="qcurve" smooth="yes"/>
      <point x="291" y="410"/>
      <point x="257" y="384"/>
      <point x="240" y="357" type="qcurve"/>
    </contour>
    <contour>
      <point x="293" y="260" type="move" name="center"/>
    </contour>
    <contour>
      <point x="293" y="0" type="move" name="bottom"/>
    </contour>
    <contour>
      <point x="293" y="727" type="move" name="top"/>
    </contour>
  </outline>
</glyph>
<glyph name="l" format="1">
  <advance width="300"/>
  <unicode hex="006C"/>
  <outline>
    <contour>
      <point x="205" y="-20" type="qcurve" smooth="yes"/>
      <point x="124" y="-20"/>
      <point x="37" y="71"/>
      <point x="37" y="154" type="qcurve" smooth="yes"/>
      <point x="37" y="744" type="line"/>
      <point x="235" y="764" type="line"/>
      <point x="235" y="162" type="line" smooth="yes"/>
      <point x="235" y="149"/>
      <point x="247" y="135"/>
      <point x="259" y="135" type="qcurve" smooth="yes"/>
      <point x="266" y="135"/>
      <point x="276" y="138"/>
      <point x="280" y="139" type="qcurve"/>
      <point x="315" y="-2" type="line"/>
      <point x="296" y="-10"/>
      <point x="239" y="-20"/>
    </contour>
    <contour>
      <point x="174" y="0" type="move" name="bottom"/>
    </contour>
    <contour>
      <point x="121" y="730" type="move" name="top"/>
    </contour>
    <contour>
      <point x="182" y="727" type="move" name="topright"/>
    </contour>
    <contour>
      <point x="256" y="375" type="move" name="center"/>
    </contour>
  </outline>
</glyph>
<glyph name="m" format="1">
  <advance width="837"/>
  <unicode hex="006D"/>
  <outline>
    <contour>
      <point x="240" y="0" type="line"/>
      <point x="42" y="0" type="line"/>
      <point x="42" y="534" type="line"/>
      <point x="215" y="534" type="line"/>
      <point x="229" y="480" type="line"/>
      <point x="261" y="519"/>
      <point x="336" y="554"/>
      <point x="384" y="554" type="qcurve" smooth="yes"/>
      <point x="425" y="554"/>
      <point x="488" y="515"/>
      <point x="504" y="477" type="qcurve"/>
      <point x="538" y="518"/>
      <point x="615" y="554"/>
      <point x="664" y="554" type="qcurve" smooth="yes"/>
      <point x="724" y="554"/>
      <point x="800" y="471"/>
      <point x="800" y="394" type="qcurve" smooth="yes"/>
      <point x="800" y="0" type="line"/>
      <point x="602" y="0" type="line"/>
      <point x="602" y="358" type="line" smooth="yes"/>
      <point x="602" y="390"/>
      <point x="586" y="410"/>
      <point x="575" y="410" type="qcurve" smooth="yes"/>
      <point x="561" y="410"/>
      <point x="532" y="384"/>
      <point x="520" y="357" type="qcurve"/>
      <point x="520" y="0" type="line"/>
      <point x="322" y="0" type="line"/>
      <point x="322" y="358" type="line" smooth="yes"/>
      <point x="322" y="390"/>
      <point x="306" y="410"/>
      <point x="295" y="410" type="qcurve" smooth="yes"/>
      <point x="281" y="410"/>
      <point x="252" y="384"/>
      <point x="240" y="357" type="qcurve"/>
    </contour>
    <contour>
      <point x="423" y="517" type="move" name="top"/>
    </contour>
    <contour>
      <point x="423" y="0" type="move" name="bottom"/>
    </contour>
  </outline>
</glyph>
<glyph name="n" format="1">
  <advance width="572"/>
  <unicode hex="006E"/>
  <outline>
    <contour>
      <point x="240" y="0" type="line"/>
      <point x="42" y="0" type="line"/>
      <point x="42" y="534" type="line"/>
      <point x="215" y="534" type="line"/>
      <point x="229" y="479" type="line"/>
      <point x="266" y="518"/>
      <point x="343" y="554"/>
      <point x="391" y="554" type="qcurve" smooth="yes"/>
      <point x="458" y="554"/>
      <point x="535" y="471"/>
      <point x="535" y="394" type="qcurve" smooth="yes"/>
      <point x="535" y="0" type="line"/>
      <point x="337" y="0" type="line"/>
      <point x="337" y="358" type="line" smooth="yes"/>
      <point x="337" y="390"/>
      <point x="321" y="410"/>
      <point x="307" y="410" type="qcurve" smooth="yes"/>
      <point x="291" y="410"/>
      <point x="257" y="384"/>
      <point x="240" y="357" type="qcurve"/>
    </contour>
    <contour>
      <point x="295" y="517" type="move" name="top"/>
    </contour>
    <contour>
      <point x="287" y="0" type="move" name="bottom"/>
    </contour>
    <contour>
      <point x="115" y="517" type="move" name="topleft"/>
    </contour>
  </outline>
</glyph>
<glyph name="o" format="1">
  <advance width="584"/>
  <unicode hex="006F"/>
  <outline>
    <contour>
      <point x="292" y="-20" type="qcurve" smooth="yes"/>
      <point x="166" y="-20"/>
      <point x="17" y="129"/>
      <point x="17" y="268" type="qcurve" smooth="yes"/>
      <point x="17" y="355"/>
      <point x="84" y="484"/>
      <point x="207" y="554"/>
      <point x="292" y="554" type="qcurve" smooth="yes"/>
      <point x="418" y="554"/>
      <point x="567" y="406"/>
      <point x="567" y="266" type="qcurve" smooth="yes"/>
      <point x="567" y="179"/>
      <point x="500" y="51"/>
      <point x="377" y="-20"/>
    </contour>
    <contour>
      <point x="292" y="122" type="qcurve" smooth="yes"/>
      <point x="330" y="122"/>
      <point x="364" y="190"/>
      <point x="364" y="266" type="qcurve" smooth="yes"/>
      <point x="364" y="346"/>
      <point x="330" y="412"/>
      <point x="292" y="412" type="qcurve" smooth="yes"/>
      <point x="255" y="412"/>
      <point x="220" y="344"/>
      <point x="220" y="268" type="qcurve" smooth="yes"/>
      <point x="220" y="189"/>
      <point x="255" y="122"/>
    </contour>
    <contour>
      <point x="348" y="0" type="move" name="ogonek"/>
    </contour>
    <contour>
      <point x="280" y="517" type="move" name="top"/>
    </contour>
    <contour>
      <point x="431" y="517" type="move" name="topright"/>
    </contour>
    <contour>
      <point x="280" y="0" type="move" name="bottom"/>
    </contour>
  </outline>
</glyph>
<glyph name="q" format="1">
  <advance width="596"/>
  <unicode hex="0071"/>
  <outline>
    <contour>
      <point x="372" y="497" type="qcurve"/>
      <point x="381" y="534" type="line"/>
      <point x="554" y="534" type="line"/>
      <point x="554" y="-227" type="line"/>
      <point x="356" y="-207" type="line"/>
      <point x="356" y="40" type="line"/>
      <point x="334" y="15"/>
      <point x="269" y="-20"/>
      <point x="220" y="-20" type="qcurve" smooth="yes"/>
      <point x="116" y="-20"/>
      <point x="17" y="138"/>
      <point x="17" y="270" type="qcurve" smooth="yes"/>
      <point x="17" y="353"/>
      <point x="72" y="481"/>
      <point x="174" y="554"/>
      <point x="245" y="554" type="qcurve" smooth="yes"/>
      <point x="266" y="554"/>
      <point x="310" y="543"/>
      <point x="353" y="518"/>
    </contour>
    <contour>
      <point x="289" y="122" type="qcurve" smooth="yes"/>
      <point x="308" y="122"/>
      <point x="342" y="144"/>
      <point x="356" y="169" type="qcurve"/>
      <point x="356" y="383" type="line"/>
      <point x="347" y="393"/>
      <point x="330" y="406"/>
      <point x="310" y="413"/>
      <point x="298" y="413" type="qcurve" smooth="yes"/>
      <point x="276" y="413"/>
      <point x="241" y="386"/>
      <point x="220" y="322"/>
      <point x="220" y="268" type="qcurve" smooth="yes"/>
      <point x="220" y="204"/>
      <point x="239" y="142"/>
      <point x="270" y="122"/>
    </contour>
    <contour>
      <point x="284" y="517" type="move" name="top"/>
    </contour>
    <contour>
      <point x="284" y="-188" type="move" name="bottom"/>
    </contour>
  </outline>
</glyph>
<glyph name="r" format="1">
  <advance width="410"/>
  <unicode hex="0072"/>
  <outline>
    <contour>
      <point x="366" y="551" type="qcurve" smooth="yes"/>
      <point x="382" y="551"/>
      <point x="406" y="547"/>
      <point x="420" y="542" type="qcurve"/>
      <point x="389" y="351" type="line"/>
      <point x="376" y="355"/>
      <point x="353" y="359"/>
      <point x="340" y="359" type="qcurve" smooth="yes"/>
      <point x="292" y="359"/>
      <point x="251" y="294"/>
      <point x="240" y="243" type="qcurve"/>
      <point x="240" y="0" type="line"/>
      <point x="42" y="0" type="line"/>
      <point x="42" y="534" type="line"/>
      <point x="215" y="534" type="line"/>
      <point x="231" y="434" type="line"/>
      <point x="248" y="487"/>
      <point x="322" y="551"/>
    </contour>
    <contour>
      <point x="230" y="517" type="move" name="top"/>
    </contour>
    <contour>
      <point x="126" y="0" type="move" name="bottom"/>
    </contour>
  </outline>
</glyph>
<glyph name="t" format="1">
  <advance width="401"/>
  <unicode hex="0074"/>
  <outline>
    <contour>
      <point x="352" y="149" type="qcurve"/>
      <point x="416" y="26" type="line"/>
      <point x="383" y="3"/>
      <point x="294" y="-20"/>
      <point x="256" y="-20" type="qcurve" smooth="yes"/>
      <point x="156" y="-19"/>
      <point x="62" y="91"/>
      <point x="62" y="197" type="qcurve" smooth="yes"/>
      <point x="62" y="400" type="line"/>
      <point x="-2" y="400" type="line"/>
      <point x="-2" y="534" type="line"/>
      <point x="62" y="534" type="line"/>
      <point x="62" y="646" type="line"/>
      <point x="260" y="669" type="line"/>
      <point x="260" y="534" type="line"/>
      <point x="380" y="534" type="line"/>
      <point x="360" y="400" type="line"/>
      <point x="260" y="400" type="line"/>
      <point x="260" y="199" type="line" smooth="yes"/>
      <point x="260" y="162"/>
      <point x="283" y="135"/>
      <point x="302" y="135" type="qcurve" smooth="yes"/>
      <point x="313" y="135"/>
      <point x="339" y="142"/>
    </contour>
    <contour>
      <point x="225" y="0" type="move" name="bottom"/>
    </contour>
    <contour>
      <point x="118" y="651" type="move" name="top"/>
    </contour>
    <contour>
      <point x="157" y="730" type="move" name="topright"/>
    </contour>
    <contour>
      <point x="145" y="259" type="move" name="center"/>
    </contour>
  </outline>
</glyph>
<glyph name="u" format="1">
  <advance width="566"/>
  <unicode hex="0075"/>
  <outline>
    <contour>
      <point x="326" y="534" type="line"/>
      <point x="524" y="534" type="line"/>
      <point x="524" y="0" type="line"/>
      <point x="351" y="0" type="line"/>
      <point x="344" y="58" type="line"/>
      <point x="316" y="19"/>
      <point x="236" y="-20"/>
      <point x="186" y="-20" type="qcurve" smooth="yes"/>
      <point x="108" y="-20"/>
      <point x="37" y="74"/>
      <point x="37" y="150" type="qcurve" smooth="yes"/>
      <point x="37" y="534" type="line"/>
      <point x="235" y="534" type="line"/>
      <point x="235" y="176" type="line" smooth="yes"/>
      <point x="235" y="145"/>
      <point x="254" y="124"/>
      <point x="268" y="124" type="qcurve" smooth="yes"/>
      <point x="282" y="124"/>
      <point x="313" y="145"/>
      <point x="326" y="168" type="qcurve"/>
    </contour>
    <contour>
      <point x="460" y="0" type="move" name="ogonek"/>
    </contour>
    <contour>
      <point x="290" y="517" type="move" name="top"/>
    </contour>
    <contour>
      <point x="460" y="517" type="move" name="topright"/>
    </contour>
    <contour>
      <point x="290" y="0" type="move" name="bottom"/>
    </contour>
  </outline>
</glyph>
<glyph name="y" format="1">
  <advance width="534"/>
  <unicode hex="0079"/>
  <outline>
    <contour>
      <point x="345" y="534" type="line"/>
      <point x="549" y="534" type="line"/>
      <point x="385" y="1" type="line" smooth="yes"/>
      <point x="363" y="-73"/>
      <point x="275" y="-173"/>
      <point x="143" y="-226"/>
      <point x="53" y="-228" type="qcurve"/>
      <point x="32" y="-93" type="line"/>
      <point x="83" y="-88"/>
      <point x="149" y="-67"/>
      <point x="191" y="-30"/>
      <point x="205" y="0" type="qcurve"/>
      <point x="137" y="0" type="line"/>
      <point x="-15" y="534" type="line"/>
      <point x="195" y="534" type="line"/>
      <point x="262" y="121" type="line"/>
    </contour>
    <contour>
      <point x="217" y="517" type="move" name="top"/>
    </contour>
    <contour>
      <point x="226" y="-188" type="move" name="bottom"/>
    </contour>
  </outline>
</glyph>
<glyph name="z" format="1">
  <advance width="472"/>
  <unicode hex="007A"/>
  <outline>
    <contour>
      <point x="25" y="534" type="line"/>
      <point x="455" y="534" type="line"/>
      <point x="455" y="397" type="line"/>
      <point x="236" y="146" type="line"/>
      <point x="462" y="146" type="line"/>
      <point x="445" y="0" type="line"/>
      <point x="5" y="0" type="line"/>
      <point x="5" y="138" type="line"/>
      <point x="227" y="390" type="line"/>
      <point x="25" y="390" type="line"/>
    </contour>
    <contour>
      <point x="215" y="517" type="move" name="top"/>
    </contour>
    <contour>
      <point x="207" y="0" type="move" name="bottom"/>
    </contour>
  </outline>
</glyph>
<glyph name="braceleft" format="1">
  <advance width="325"/>
  <unicode hex="007B"/>
  <outline>
    <contour>
      <point x="310" y="842" type="qcurve"/>
      <point x="310" y="708" type="line"/>
      <point x="269" y="708"/>
      <point x="246" y="683"/>
      <point x="246" y="654" type="qcurve" smooth="yes"/>
      <point x="246" y="500" type="line" smooth="yes"/>
      <point x="246" y="426"/>
      <point x="183" y="362"/>
      <point x="125" y="349" type="qcurve"/>
      <point x="181" y="339"/>
      <point x="247" y="273"/>
      <point x="247" y="200" type="qcurve" smooth="yes"/>
      <point x="247" y="46" type="line" smooth="yes"/>
      <point x="247" y="17"/>
      <point x="270" y="-8"/>
      <point x="310" y="-8" type="qcurve"/>
      <point x="310" y="-142" type="line"/>
      <point x="207" y="-142"/>
      <point x="100" y="-101"/>
      <point x="62" y="-23"/>
      <point x="62" y="32" type="qcurve" smooth="yes"/>
      <point x="62" y="185" type="line" smooth="yes"/>
      <point x="62" y="230"/>
      <point x="38" y="269"/>
      <point x="0" y="269" type="qcurve"/>
      <point x="0" y="431" type="line"/>
      <point x="38" y="431"/>
      <point x="62" y="470"/>
      <point x="62" y="515" type="qcurve" smooth="yes"/>
      <point x="62" y="668" type="line" smooth="yes"/>
      <point x="62" y="724"/>
      <point x="100" y="801"/>
      <point x="207" y="842"/>
    </contour>
  </outline>
</glyph>
<glyph name="braceright" format="1">
  <advance width="325"/>
  <unicode hex="007D"/>
  <outline>
    <contour>
      <point x="15" y="708" type="qcurve"/>
      <point x="15" y="842" type="line"/>
      <point x="119" y="842"/>
      <point x="225" y="801"/>
      <point x="263" y="724"/>
      <point x="263" y="668" type="qcurve" smooth="yes"/>
      <point x="263" y="515" type="line" smooth="yes"/>
      <point x="263" y="470"/>
      <point x="287" y="431"/>
      <point x="325" y="431" type="qcurve"/>
      <point x="325" y="269" type="line"/>
      <point x="287" y="269"/>
      <point x="263" y="230"/>
      <point x="263" y="185" type="qcurve" smooth="yes"/>
      <point x="263" y="32" type="line" smooth="yes"/>
      <point x="263" y="-23"/>
      <point x="225" y="-101"/>
      <point x="119" y="-142"/>
      <point x="15" y="-142" type="qcurve"/>
      <point x="15" y="-8" type="line"/>
      <point x="56" y="-8"/>
      <point x="78" y="17"/>
      <point x="78" y="46" type="qcurve" smooth="yes"/>
      <point x="78" y="200" type="line" smooth="yes"/>
      <point x="78" y="273"/>
      <point x="144" y="339"/>
      <point x="200" y="349" type="qcurve"/>
      <point x="142" y="362"/>
      <point x="79" y="426"/>
      <point x="79" y="500" type="qcurve" smooth="yes"/>
      <point x="79" y="654" type="line" smooth="yes"/>
      <point x="79" y="683"/>
      <point x="56" y="708"/>
    </contour>
  </outline>
</glyph>
<glyph name="asciitilde" format="1">
  <advance width="530"/>
  <unicode hex="007E"/>
  <outline>
    <contour>
      <point x="350" y="221" type="qcurve" smooth="yes"/>
      <point x="314" y="221"/>
      <point x="264" y="239"/>
      <point x="226" y="263"/>
      <point x="193" y="281"/>
      <point x="173" y="281" type="qcurve" smooth="yes"/>
      <point x="145" y="281"/>
      <point x="119" y="251"/>
      <point x="105" y="231" type="qcurve"/>
      <point x="5" y="281" type="line"/>
      <point x="23" y="318"/>
      <point x="70" y="384"/>
      <point x="135" y="426"/>
      <point x="180" y="426" type="qcurve" smooth="yes"/>
      <point x="216" y="426"/>
      <point x="266" y="408"/>
      <point x="304" y="384"/>
      <point x="337" y="366"/>
      <point x="357" y="366" type="qcurve" smooth="yes"/>
      <point x="385" y="366"/>
      <point x="411" y="396"/>
      <point x="426" y="414" type="qcurve"/>
      <point x="525" y="366" type="line"/>
      <point x="507" y="329"/>
      <point x="460" y="263"/>
      <point x="395" y="221"/>
    </contour>
    <contour>
      <point x="360" y="332" type="move" name="_center"/>
    </contour>
  </outline>
</glyph>
<glyph name="exclamdown" format="1">
  <advance width="240"/>
  <unicode hex="00A1"/>
  <outline>
    <contour>
      <point x="42" y="228" type="line"/>
      <point x="198" y="228" type="line"/>
      <point x="224" y="-207" type="line"/>
      <point x="16" y="-207" type="line"/>
    </contour>
    <contour>
      <point x="120" y="518" type="qcurve" smooth="yes"/>
      <point x="163" y="518"/>
      <point x="223" y="457"/>
      <point x="223" y="415" type="qcurve" smooth="yes"/>
      <point x="223" y="373"/>
      <point x="163" y="312"/>
      <point x="120" y="312" type="qcurve" smooth="yes"/>
      <point x="77" y="312"/>
      <point x="17" y="373"/>
      <point x="17" y="415" type="qcurve" smooth="yes"/>
      <point x="17" y="457"/>
      <point x="77" y="518"/>
    </contour>
  </outline>
</glyph>
<glyph name="cent" format="1">
  <advance width="479"/>
  <unicode hex="00A2"/>
  <outline>
    <contour>
      <point x="356" y="-165" type="line"/>
      <point x="221" y="-165" type="line"/>
      <point x="221" y="-11" type="line"/>
      <point x="157" y="4"/>
      <point x="66" y="80"/>
      <point x="17" y="193"/>
      <point x="17" y="263" type="qcurve" smooth="yes"/>
      <point x="17" y="335"/>
      <point x="67" y="452"/>
      <point x="159" y="531"/>
      <point x="222" y="546" type="qcurve"/>
      <point x="222" y="696" type="line"/>
      <point x="356" y="696" type="line"/>
      <point x="356" y="549" type="line"/>
      <point x="396" y="542"/>
      <point x="461" y="508"/>
      <point x="489" y="483" type="qcurve"/>
      <point x="407" y="368" type="line"/>
      <point x="383" y="388"/>
      <point x="337" y="405"/>
      <point x="313" y="405" type="qcurve" smooth="yes"/>
      <point x="270" y="405"/>
      <point x="223" y="344"/>
      <point x="223" y="263" type="qcurve" smooth="yes"/>
      <point x="223" y="210"/>
      <point x="246" y="153"/>
      <point x="286" y="133"/>
      <point x="311" y="133" type="qcurve" smooth="yes"/>
      <point x="336" y="133"/>
      <point x="376" y="150"/>
      <point x="404" y="167" type="qcurve"/>
      <point x="489" y="46" type="line"/>
      <point x="461" y="24"/>
      <point x="396" y="-8"/>
      <point x="356" y="-15" type="qcurve"/>
    </contour>
    <contour>
      <point x="269" y="517" type="move" name="top"/>
    </contour>
    <contour>
      <point x="285" y="-1" type="move" name="bottom"/>
    </contour>
  </outline>
</glyph>
<glyph name="sterling" format="1">
  <advance width="566"/>
  <unicode hex="00A3"/>
  <outline>
    <contour>
      <point x="509" y="0" type="line"/>
      <point x="20" y="0" type="line"/>
      <point x="20" y="139" type="line"/>
      <point x="61" y="150"/>
      <point x="96" y="181"/>
      <point x="104" y="224"/>
      <point x="104" y="250" type="qcurve" smooth="yes"/>
      <point x="104" y="304" type="line"/>
      <point x="35" y="304" type="line"/>
      <point x="35" y="399" type="line"/>
      <point x="104" y="399" type="line"/>
      <point x="104" y="475" type="line" smooth="yes"/>
      <point x="104" y="539"/>
      <point x="154" y="638"/>
      <point x="256" y="696"/>
      <point x="332" y="696" type="qcurve" smooth="yes"/>
      <point x="409" y="696"/>
      <point x="514" y="641"/>
      <point x="551" y="587" type="qcurve"/>
      <point x="432" y="501" type="line"/>
      <point x="414" y="530"/>
      <point x="377" y="552"/>
      <point x="355" y="552" type="qcurve" smooth="yes"/>
      <point x="323" y="552"/>
      <point x="298" y="509"/>
      <point x="298" y="473" type="qcurve" smooth="yes"/>
      <point x="298" y="399" type="line"/>
      <point x="469" y="399" type="line"/>
      <point x="469" y="304" type="line"/>
      <point x="298" y="304" type="line"/>
      <point x="298" y="263" type="line" smooth="yes"/>
      <point x="298" y="226"/>
      <point x="273" y="169"/>
      <point x="232" y="146" type="qcurve"/>
      <point x="531" y="146" type="line"/>
    </contour>
  </outline>
</glyph>
<glyph name="currency" format="1">
  <advance width="560"/>
  <unicode hex="00A4"/>
  <outline>
    <contour>
      <point x="168" y="148" type="qcurve"/>
      <point x="89" y="72" type="line"/>
      <point x="10" y="151" type="line"/>
      <point x="86" y="226" type="line"/>
      <point x="71" y="252"/>
      <point x="55" y="310"/>
      <point x="55" y="342" type="qcurve" smooth="yes"/>
      <point x="55" y="374"/>
      <point x="71" y="432"/>
      <point x="86" y="457" type="qcurve"/>
      <point x="10" y="534" type="line"/>
      <point x="89" y="613" type="line"/>
      <point x="167" y="536" type="line"/>
      <point x="192" y="550"/>
      <point x="250" y="564"/>
      <point x="281" y="564" type="qcurve" smooth="yes"/>
      <point x="313" y="564"/>
      <point x="370" y="549"/>
      <point x="395" y="535" type="qcurve"/>
      <point x="472" y="613" type="line"/>
      <point x="551" y="534" type="line"/>
      <point x="476" y="458" type="line"/>
      <point x="491" y="433"/>
      <point x="507" y="374"/>
      <point x="507" y="342" type="qcurve" smooth="yes"/>
      <point x="507" y="310"/>
      <point x="491" y="251"/>
      <point x="476" y="226" type="qcurve"/>
      <point x="551" y="151" type="line"/>
      <point x="472" y="72" type="line"/>
      <point x="394" y="148" type="line"/>
      <point x="369" y="135"/>
      <point x="313" y="120"/>
      <point x="281" y="120" type="qcurve" smooth="yes"/>
      <point x="250" y="120"/>
      <point x="193" y="135"/>
    </contour>
    <contour>
      <point x="281" y="247" type="qcurve" smooth="yes"/>
      <point x="308" y="247"/>
      <point x="344" y="270"/>
      <point x="362" y="312"/>
      <point x="362" y="342" type="qcurve" smooth="yes"/>
      <point x="362" y="372"/>
      <point x="344" y="413"/>
      <point x="308" y="435"/>
      <point x="281" y="435" type="qcurve" smooth="yes"/>
      <point x="254" y="435"/>
      <point x="217" y="413"/>
      <point x="198" y="372"/>
      <point x="198" y="342" type="qcurve" smooth="yes"/>
      <point x="198" y="312"/>
      <point x="217" y="270"/>
      <point x="254" y="247"/>
    </contour>
  </outline>
</glyph>
<glyph name="section" format="1">
  <advance width="560"/>
  <unicode hex="00A7"/>
  <outline>
    <contour>
      <point x="300" y="696" type="qcurve" smooth="yes"/>
      <point x="355" y="696"/>
      <point x="464" y="666"/>
      <point x="506" y="639" type="qcurve"/>
      <point x="442" y="528" type="line"/>
      <point x="410" y="548"/>
      <point x="343" y="564"/>
      <point x="314" y="564" type="qcurve" smooth="yes"/>
      <point x="293" y="564"/>
      <point x="266" y="556"/>
      <point x="254" y="542"/>
      <point x="254" y="532" type="qcurve" smooth="yes"/>
      <point x="254" y="520"/>
      <point x="268" y="503"/>
      <point x="316" y="484"/>
      <point x="367" y="469" type="qcurve" smooth="yes"/>
      <point x="411" y="456"/>
      <point x="479" y="419"/>
      <point x="518" y="360"/>
      <point x="518" y="315" type="qcurve" smooth="yes"/>
      <point x="518" y="267"/>
      <point x="466" y="201"/>
      <point x="428" y="181" type="qcurve"/>
      <point x="324" y="224" type="line"/>
      <point x="337" y="239"/>
      <point x="350" y="275"/>
      <point x="350" y="288" type="qcurve" smooth="yes"/>
      <point x="350" y="301"/>
      <point x="335" y="322"/>
      <point x="295" y="343"/>
      <point x="258" y="354" type="qcurve" smooth="yes"/>
      <point x="184" y="377"/>
      <point x="101" y="426"/>
      <point x="68" y="487"/>
      <point x="68" y="527" type="qcurve" smooth="yes"/>
      <point x="68" y="574"/>
      <point x="123" y="651"/>
      <point x="227" y="696"/>
    </contour>
    <contour>
      <point x="137" y="422" type="qcurve"/>
      <point x="233" y="383" type="line"/>
      <point x="220" y="367"/>
      <point x="210" y="332"/>
      <point x="210" y="319" type="qcurve" smooth="yes"/>
      <point x="210" y="307"/>
      <point x="221" y="287"/>
      <point x="250" y="269"/>
      <point x="277" y="259" type="qcurve" smooth="yes"/>
      <point x="359" y="228"/>
      <point x="454" y="182"/>
      <point x="494" y="125"/>
      <point x="494" y="76" type="qcurve" smooth="yes"/>
      <point x="494" y="28"/>
      <point x="436" y="-48"/>
      <point x="330" y="-91"/>
      <point x="256" y="-91" type="qcurve" smooth="yes"/>
      <point x="194" y="-91"/>
      <point x="90" y="-60"/>
      <point x="50" y="-34" type="qcurve"/>
      <point x="111" y="84" type="line"/>
      <point x="145" y="64"/>
      <point x="210" y="41"/>
      <point x="241" y="41" type="qcurve" smooth="yes"/>
      <point x="276" y="41"/>
      <point x="308" y="58"/>
      <point x="308" y="72" type="qcurve" smooth="yes"/>
      <point x="308" y="84"/>
      <point x="295" y="102"/>
      <point x="246" y="123"/>
      <point x="192" y="139" type="qcurve" smooth="yes"/>
      <point x="148" y="152"/>
      <point x="80" y="189"/>
      <point x="42" y="247"/>
      <point x="42" y="290" type="qcurve" smooth="yes"/>
      <point x="42" y="337"/>
      <point x="100" y="402"/>
    </contour>
  </outline>
</glyph>
<glyph name="dieresis" format="1">
  <advance width="495"/>
  <unicode hex="00A8"/>
  <outline>
    <contour>
      <point x="370" y="818" type="qcurve" smooth="yes"/>
      <point x="411" y="818"/>
      <point x="465" y="764"/>
      <point x="465" y="726" type="qcurve" smooth="yes"/>
      <point x="465" y="687"/>
      <point x="411" y="633"/>
      <point x="370" y="633" type="qcurve" smooth="yes"/>
      <point x="331" y="633"/>
      <point x="275" y="687"/>
      <point x="275" y="726" type="qcurve" smooth="yes"/>
      <point x="275" y="764"/>
      <point x="331" y="818"/>
    </contour>
    <contour>
      <point x="125" y="818" type="qcurve" smooth="yes"/>
      <point x="166" y="818"/>
      <point x="220" y="764"/>
      <point x="220" y="726" type="qcurve" smooth="yes"/>
      <point x="220" y="687"/>
      <point x="166" y="633"/>
      <point x="125" y="633" type="qcurve" smooth="yes"/>
      <point x="86" y="633"/>
      <point x="30" y="687"/>
      <point x="30" y="726" type="qcurve" smooth="yes"/>
      <point x="30" y="764"/>
      <point x="86" y="818"/>
    </contour>
  </outline>
</glyph>
<glyph name="copyright" format="1">
  <advance width="810"/>
  <unicode hex="00A9"/>
  <outline>
    <contour>
      <point x="406" y="777" type="qcurve" smooth="yes"/>
      <point x="480" y="777"/>
      <point x="608" y="724"/>
      <point x="704" y="629"/>
      <point x="758" y="504"/>
      <point x="758" y="431" type="qcurve" smooth="yes"/>
      <point x="758" y="358"/>
      <point x="704" y="233"/>
      <point x="608" y="139"/>
      <point x="480" y="86"/>
      <point x="406" y="86" type="qcurve" smooth="yes"/>
      <point x="333" y="86"/>
      <point x="204" y="139"/>
      <point x="107" y="233"/>
      <point x="52" y="358"/>
      <point x="52" y="431" type="qcurve" smooth="yes"/>
      <point x="52" y="504"/>
      <point x="107" y="629"/>
      <point x="204" y="724"/>
      <point x="333" y="777"/>
    </contour>
    <contour>
      <point x="408" y="633" type="qcurve" smooth="yes"/>
      <point x="446" y="633"/>
      <point x="520" y="603"/>
      <point x="547" y="576" type="qcurve"/>
      <point x="491" y="507" type="line"/>
      <point x="472" y="522"/>
      <point x="442" y="530"/>
      <point x="424" y="530" type="qcurve" smooth="yes"/>
      <point x="406" y="530"/>
      <point x="377" y="511"/>
      <point x="359" y="469"/>
      <point x="359" y="432" type="qcurve" smooth="yes"/>
      <point x="359" y="377"/>
      <point x="393" y="333"/>
      <point x="421" y="333" type="qcurve" smooth="yes"/>
      <point x="444" y="333"/>
      <point x="481" y="347"/>
      <point x="500" y="362" type="qcurve"/>
      <point x="551" y="287" type="line"/>
      <point x="523" y="260"/>
      <point x="449" y="230"/>
      <point x="409" y="230" type="qcurve" smooth="yes"/>
      <point x="323" y="230"/>
      <point x="223" y="335"/>
      <point x="223" y="432" type="qcurve" smooth="yes"/>
      <point x="223" y="493"/>
      <point x="270" y="583"/>
      <point x="353" y="633"/>
    </contour>
    <contour>
      <point x="406" y="681" type="qcurve" smooth="yes"/>
      <point x="336" y="681"/>
      <point x="226" y="614"/>
      <point x="163" y="501"/>
      <point x="163" y="431" type="qcurve" smooth="yes"/>
      <point x="163" y="361"/>
      <point x="226" y="248"/>
      <point x="336" y="182"/>
      <point x="406" y="182" type="qcurve" smooth="yes"/>
      <point x="476" y="182"/>
      <point x="585" y="248"/>
      <point x="648" y="361"/>
      <point x="648" y="431" type="qcurve" smooth="yes"/>
      <point x="648" y="501"/>
      <point x="585" y="614"/>
      <point x="476" y="681"/>
    </contour>
  </outline>
</glyph>
<glyph name="ordfeminine" format="1">
  <advance width="500"/>
  <unicode hex="00AA"/>
  <outline>
    <contour>
      <point x="178" y="260" type="qcurve" smooth="yes"/>
      <point x="114" y="260"/>
      <point x="36" y="334"/>
      <point x="36" y="390" type="qcurve" smooth="yes"/>
      <point x="36" y="458"/>
      <point x="143" y="530"/>
      <point x="246" y="530" type="qcurve" smooth="yes"/>
      <point x="270" y="530" type="line"/>
      <point x="270" y="533" type="line" smooth="yes"/>
      <point x="270" y="560"/>
      <point x="248" y="576"/>
      <point x="213" y="576" type="qcurve" smooth="yes"/>
      <point x="196" y="576"/>
      <point x="136" y="565"/>
      <point x="104" y="555" type="qcurve"/>
      <point x="66" y="663" type="line"/>
      <point x="107" y="679"/>
      <point x="202" y="696"/>
      <point x="239" y="696" type="qcurve" smooth="yes"/>
      <point x="346" y="696"/>
      <point x="439" y="621"/>
      <point x="439" y="543" type="qcurve" smooth="yes"/>
      <point x="439" y="418" type="line" smooth="yes"/>
      <point x="439" y="399"/>
      <point x="449" y="379"/>
      <point x="463" y="374" type="qcurve"/>
      <point x="428" y="264" type="line"/>
      <point x="388" y="266"/>
      <point x="330" y="290"/>
      <point x="308" y="317" type="qcurve"/>
      <point x="285" y="286"/>
      <point x="215" y="260"/>
    </contour>
    <contour>
      <point x="468" y="0" type="line"/>
      <point x="40" y="0" type="line"/>
      <point x="40" y="150" type="line"/>
      <point x="468" y="150" type="line"/>
    </contour>
    <contour>
      <point x="237" y="381" type="qcurve" smooth="yes"/>
      <point x="247" y="381"/>
      <point x="264" y="388"/>
      <point x="270" y="393" type="qcurve"/>
      <point x="270" y="442" type="line"/>
      <point x="262" y="442" type="line" smooth="yes"/>
      <point x="235" y="442"/>
      <point x="210" y="424"/>
      <point x="210" y="405" type="qcurve" smooth="yes"/>
      <point x="210" y="395"/>
      <point x="223" y="381"/>
    </contour>
  </outline>
</glyph>
<glyph name="registered" format="1">
  <advance width="635"/>
  <unicode hex="00AE"/>
  <outline>
    <contour>
      <point x="319" y="196" type="qcurve" smooth="yes"/>
      <point x="236" y="196"/>
      <point x="105" y="270"/>
      <point x="30" y="398"/>
      <point x="30" y="479" type="qcurve" smooth="yes"/>
      <point x="30" y="561"/>
      <point x="105" y="690"/>
      <point x="236" y="764"/>
      <point x="319" y="764" type="qcurve" smooth="yes"/>
      <point x="402" y="764"/>
      <point x="531" y="690"/>
      <point x="605" y="561"/>
      <point x="605" y="479" type="qcurve" smooth="yes"/>
      <point x="605" y="398"/>
      <point x="531" y="270"/>
      <point x="402" y="196"/>
    </contour>
    <contour>
      <point x="319" y="274" type="qcurve" smooth="yes"/>
      <point x="376" y="274"/>
      <point x="464" y="327"/>
      <point x="513" y="420"/>
      <point x="513" y="479" type="qcurve" smooth="yes"/>
      <point x="513" y="539"/>
      <point x="464" y="632"/>
      <point x="376" y="686"/>
      <point x="319" y="686" type="qcurve" smooth="yes"/>
      <point x="262" y="686"/>
      <point x="173" y="632"/>
      <point x="122" y="539"/>
      <point x="122" y="479" type="qcurve" smooth="yes"/>
      <point x="122" y="420"/>
      <point x="173" y="327"/>
      <point x="262" y="274"/>
    </contour>
    <contour>
      <point x="287" y="347" type="line"/>
      <point x="207" y="347" type="line"/>
      <point x="207" y="633" type="line"/>
      <point x="295" y="633" type="line" smooth="yes"/>
      <point x="364" y="633"/>
      <point x="435" y="590"/>
      <point x="435" y="543" type="qcurve" smooth="yes"/>
      <point x="435" y="516"/>
      <point x="405" y="476"/>
      <point x="381" y="465" type="qcurve"/>
      <point x="454" y="347" type="line"/>
      <point x="363" y="347" type="line"/>
      <point x="307" y="448" type="line"/>
      <point x="287" y="448" type="line"/>
    </contour>
    <contour>
      <point x="287" y="574" type="line"/>
      <point x="287" y="514" type="line"/>
      <point x="316" y="514" type="line" smooth="yes"/>
      <point x="331" y="514"/>
      <point x="353" y="529"/>
      <point x="353" y="546" type="qcurve" smooth="yes"/>
      <point x="353" y="560"/>
      <point x="332" y="574"/>
      <point x="315" y="574" type="qcurve" smooth="yes"/>
    </contour>
  </outline>
</glyph>
<glyph name="degree" format="1">
  <advance width="519"/>
  <unicode hex="00B0"/>
  <outline>
    <contour>
      <point x="217" y="473" type="qcurve" smooth="yes"/>
      <point x="247" y="473"/>
      <point x="276" y="513"/>
      <point x="276" y="541" type="qcurve" smooth="yes"/>
      <point x="276" y="569"/>
      <point x="247" y="608"/>
      <point x="217" y="608" type="qcurve" smooth="yes"/>
      <point x="187" y="608"/>
      <point x="158" y="569"/>
      <point x="158" y="541" type="qcurve" smooth="yes"/>
      <point x="158" y="513"/>
      <point x="187" y="473"/>
    </contour>
    <contour>
      <point x="217" y="362" type="qcurve" smooth="yes"/>
      <point x="172" y="362"/>
      <point x="86" y="406"/>
      <point x="30" y="486"/>
      <point x="30" y="541" type="qcurve" smooth="yes"/>
      <point x="30" y="596"/>
      <point x="86" y="674"/>
      <point x="172" y="716"/>
      <point x="217" y="716" type="qcurve" smooth="yes"/>
      <point x="263" y="716"/>
      <point x="348" y="674"/>
      <point x="404" y="596"/>
      <point x="404" y="541" type="qcurve" smooth="yes"/>
      <point x="404" y="486"/>
      <point x="348" y="406"/>
      <point x="263" y="362"/>
    </contour>
  </outline>
</glyph>
<glyph name="paragraph" format="1">
  <advance width="820"/>
  <unicode hex="00B6"/>
  <outline>
    <contour>
      <point x="333" y="696" type="qcurve" smooth="yes"/>
      <point x="720" y="696" type="line"/>
      <point x="720" y="-207" type="line"/>
      <point x="548" y="-228" type="line"/>
      <point x="548" y="563" type="line"/>
      <point x="470" y="563" type="line"/>
      <point x="470" y="-207" type="line"/>
      <point x="298" y="-228" type="line"/>
      <point x="298" y="252" type="line"/>
      <point x="217" y="253"/>
      <point x="107" y="310"/>
      <point x="50" y="409"/>
      <point x="50" y="473" type="qcurve" smooth="yes"/>
      <point x="50" y="542"/>
      <point x="114" y="645"/>
      <point x="240" y="700"/>
    </contour>
  </outline>
</glyph>
<glyph name="ordmasculine" format="1">
  <advance width="500"/>
  <unicode hex="00BA"/>
  <outline>
    <contour>
      <point x="250" y="696" type="qcurve" smooth="yes"/>
      <point x="353" y="696"/>
      <point x="476" y="585"/>
      <point x="476" y="477" type="qcurve" smooth="yes"/>
      <point x="476" y="377"/>
      <point x="355" y="260"/>
      <point x="251" y="260" type="qcurve" smooth="yes"/>
      <point x="148" y="260"/>
      <point x="25" y="371"/>
      <point x="25" y="479" type="qcurve" smooth="yes"/>
      <point x="25" y="579"/>
      <point x="147" y="696"/>
    </contour>
    <contour>
      <point x="250" y="574" type="qcurve" smooth="yes"/>
      <point x="225" y="574"/>
      <point x="202" y="529"/>
      <point x="202" y="479" type="qcurve" smooth="yes"/>
      <point x="202" y="425"/>
      <point x="225" y="382"/>
      <point x="251" y="382" type="qcurve" smooth="yes"/>
      <point x="277" y="382"/>
      <point x="299" y="427"/>
      <point x="299" y="477" type="qcurve" smooth="yes"/>
      <point x="299" y="531"/>
      <point x="276" y="574"/>
    </contour>
    <contour>
      <point x="475" y="0" type="line"/>
      <point x="25" y="0" type="line"/>
      <point x="25" y="150" type="line"/>
      <point x="475" y="150" type="line"/>
    </contour>
  </outline>
</glyph>
<glyph name="questiondown" format="1">
  <advance width="495"/>
  <unicode hex="00BF"/>
  <outline>
    <contour>
      <point x="241" y="-227" type="qcurve" smooth="yes"/>
      <point x="162" y="-227"/>
      <point x="57" y="-179"/>
      <point x="5" y="-100"/>
      <point x="5" y="-53" type="qcurve" smooth="yes"/>
      <point x="5" y="-12"/>
      <point x="31" y="45"/>
      <point x="72" y="85"/>
      <point x="117" y="116"/>
      <point x="158" y="145"/>
      <point x="184" y="181"/>
      <point x="184" y="206" type="qcurve" smooth="yes"/>
      <point x="184" y="229" type="line"/>
      <point x="360" y="229" type="line"/>
      <point x="360" y="200" type="line" smooth="yes"/>
      <point x="360" y="156"/>
      <point x="339" y="96"/>
      <point x="305" y="56"/>
      <point x="267" y="28"/>
      <point x="233" y="6"/>
      <point x="212" y="-18"/>
      <point x="212" y="-34" type="qcurve" smooth="yes"/>
      <point x="212" y="-53"/>
      <point x="238" y="-73"/>
      <point x="263" y="-73" type="qcurve" smooth="yes"/>
      <point x="289" y="-73"/>
      <point x="342" y="-45"/>
      <point x="367" y="-19" type="qcurve"/>
      <point x="490" y="-115" type="line"/>
      <point x="448" y="-165"/>
      <point x="327" y="-227"/>
    </contour>
    <contour>
      <point x="271" y="312" type="qcurve" smooth="yes"/>
      <point x="228" y="312"/>
      <point x="168" y="373"/>
      <point x="168" y="415" type="qcurve" smooth="yes"/>
      <point x="168" y="457"/>
      <point x="228" y="518"/>
      <point x="271" y="518" type="qcurve" smooth="yes"/>
      <point x="314" y="518"/>
      <point x="374" y="457"/>
      <point x="374" y="415" type="qcurve" smooth="yes"/>
      <point x="374" y="373"/>
      <point x="314" y="312"/>
    </contour>
  </outline>
</glyph>
<glyph name="AE" format="1">
  <advance width="863"/>
  <unicode hex="00C6"/>
  <outline>
    <contour>
      <point x="586" y="282" type="line"/>
      <point x="610" y="144" type="line"/>
      <point x="843" y="144" type="line"/>
      <point x="843" y="0" type="line"/>
      <point x="436" y="0" type="line"/>
      <point x="418" y="135" type="line"/>
      <point x="235" y="135" type="line"/>
      <point x="194" y="0" type="line"/>
      <point x="-30" y="0" type="line"/>
      <point x="241" y="696" type="line"/>
      <point x="808" y="696" type="line"/>
      <point x="787" y="553" type="line"/>
      <point x="540" y="553" type="line"/>
      <point x="563" y="421" type="line"/>
      <point x="799" y="421" type="line"/>
      <point x="799" y="282" type="line"/>
    </contour>
    <contour>
      <point x="362" y="549" type="line"/>
      <point x="279" y="279" type="line"/>
      <point x="398" y="279" type="line"/>
    </contour>
    <contour>
      <point x="457" y="680" type="move" name="top"/>
    </contour>
    <contour>
      <point x="375" y="0" type="move" name="bottom"/>
    </contour>
  </outline>
</glyph>
<glyph name="Eth" format="1">
  <advance width="671"/>
  <unicode hex="00D0"/>
  <outline>
    <contour>
      <point x="58" y="696" type="line"/>
      <point x="281" y="696" type="line" smooth="yes"/>
      <point x="353" y="696"/>
      <point x="485" y="668"/>
      <point x="590" y="594"/>
      <point x="651" y="458"/>
      <point x="651" y="351" type="qcurve" smooth="yes"/>
      <point x="651" y="247"/>
      <point x="594" y="110"/>
      <point x="495" y="32"/>
      <point x="366" y="0"/>
      <point x="293" y="0" type="qcurve" smooth="yes"/>
      <point x="58" y="0" type="line"/>
      <point x="58" y="295" type="line"/>
      <point x="10" y="295" type="line"/>
      <point x="10" y="411" type="line"/>
      <point x="58" y="411" type="line"/>
    </contour>
    <contour>
      <point x="264" y="145" type="line"/>
      <point x="305" y="145" type="line" smooth="yes"/>
      <point x="340" y="145"/>
      <point x="391" y="165"/>
      <point x="423" y="212"/>
      <point x="439" y="292"/>
      <point x="439" y="351" type="qcurve" smooth="yes"/>
      <point x="439" y="410"/>
      <point x="422" y="488"/>
      <point x="389" y="533"/>
      <point x="339" y="551"/>
      <point x="306" y="551" type="qcurve" smooth="yes"/>
      <point x="264" y="551" type="line"/>
      <point x="264" y="411" type="line"/>
      <point x="385" y="411" type="line"/>
      <point x="385" y="295" type="line"/>
      <point x="264" y="295" type="line"/>
    </contour>
    <contour>
      <point x="303" y="340" type="move" name="center"/>
    </contour>
    <contour>
      <point x="304" y="0" type="move" name="bottom"/>
    </contour>
    <contour>
      <point x="283" y="680" type="move" name="top"/>
    </contour>
  </outline>
</glyph>
<glyph name="Thorn" format="1">
  <advance width="611"/>
  <unicode hex="00DE"/>
  <outline>
    <contour>
      <point x="249" y="0" type="line"/>
      <point x="43" y="0" type="line"/>
      <point x="43" y="696" type="line"/>
      <point x="249" y="696" type="line"/>
      <point x="249" y="593" type="line"/>
      <point x="294" y="593" type="line" smooth="yes"/>
      <point x="434" y="593"/>
      <point x="596" y="476"/>
      <point x="596" y="358" type="qcurve" smooth="yes"/>
      <point x="596" y="273"/>
      <point x="525" y="161"/>
      <point x="400" y="106"/>
      <point x="317" y="106" type="qcurve" smooth="yes"/>
      <point x="249" y="106" type="line"/>
    </contour>
    <contour>
      <point x="249" y="450" type="line"/>
      <point x="249" y="251" type="line"/>
      <point x="297" y="251" type="line" smooth="yes"/>
      <point x="326" y="251"/>
      <point x="366" y="273"/>
      <point x="386" y="321"/>
      <point x="386" y="358" type="qcurve" smooth="yes"/>
      <point x="386" y="402"/>
      <point x="342" y="450"/>
      <point x="291" y="450" type="qcurve" smooth="yes"/>
    </contour>
    <contour>
      <point x="276" y="680" type="move" name="top"/>
    </contour>
    <contour>
      <point x="276" y="0" type="move" name="bottom"/>
    </contour>
  </outline>
</glyph>
<glyph name="germandbls" format="1">
  <advance width="614"/>
  <unicode hex="00DF"/>
  <outline>
    <contour>
      <point x="299" y="764" type="qcurve" smooth="yes"/>
      <point x="373" y="764"/>
      <point x="472" y="720"/>
      <point x="522" y="651"/>
      <point x="522" y="611" type="qcurve" smooth="yes"/>
      <point x="522" y="582"/>
      <point x="503" y="540"/>
      <point x="475" y="507"/>
      <point x="447" y="479"/>
      <point x="428" y="451"/>
      <point x="428" y="434" type="qcurve"/>
      <point x="428" y="413"/>
      <point x="465" y="379"/>
      <point x="519" y="343"/>
      <point x="572" y="293"/>
      <point x="609" y="221"/>
      <point x="609" y="168" type="qcurve" smooth="yes"/>
      <point x="609" y="109"/>
      <point x="553" y="24"/>
      <point x="456" y="-20"/>
      <point x="393" y="-20" type="qcurve" smooth="yes"/>
      <point x="358" y="-20"/>
      <point x="290" y="-4"/>
      <point x="264" y="9" type="qcurve"/>
      <point x="323" y="142" type="line"/>
      <point x="334" y="136"/>
      <point x="355" y="131"/>
      <point x="366" y="131" type="qcurve" smooth="yes"/>
      <point x="385" y="131"/>
      <point x="404" y="152"/>
      <point x="404" y="172" type="qcurve" smooth="yes"/>
      <point x="404" y="201"/>
      <point x="375" y="238"/>
      <point x="333" y="269"/>
      <point x="290" y="304"/>
      <point x="261" y="356"/>
      <point x="261" y="396" type="qcurve" smooth="yes"/>
      <point x="261" y="429"/>
      <point x="276" y="472"/>
      <point x="299" y="501"/>
      <point x="321" y="527"/>
      <point x="336" y="558"/>
      <point x="336" y="582" type="qcurve" smooth="yes"/>
      <point x="336" y="602"/>
      <point x="315" y="629"/>
      <point x="294" y="629" type="qcurve" smooth="yes"/>
      <point x="265" y="629"/>
      <point x="240" y="581"/>
      <point x="240" y="537" type="qcurve" smooth="yes"/>
      <point x="240" y="0" type="line"/>
      <point x="42" y="0" type="line"/>
      <point x="42" y="530" type="line" smooth="yes"/>
      <point x="42" y="638"/>
      <point x="173" y="764"/>
    </contour>
  </outline>
</glyph>
<glyph name="ae" format="1">
  <advance width="859"/>
  <unicode hex="00E6"/>
  <outline>
    <contour>
      <point x="601" y="554" type="qcurve" smooth="yes"/>
      <point x="672" y="554"/>
      <point x="783" y="489"/>
      <point x="847" y="364"/>
      <point x="847" y="274" type="qcurve" smooth="yes"/>
      <point x="847" y="261"/>
      <point x="845" y="225"/>
      <point x="843" y="211" type="qcurve"/>
      <point x="503" y="211" type="line"/>
      <point x="501" y="323" type="line"/>
      <point x="652" y="323" type="line"/>
      <point x="652" y="325"/>
      <point x="652" y="329"/>
      <point x="652" y="330" type="qcurve" smooth="yes"/>
      <point x="652" y="357"/>
      <point x="641" y="402"/>
      <point x="615" y="429"/>
      <point x="589" y="429" type="qcurve" smooth="yes"/>
      <point x="564" y="429"/>
      <point x="531" y="400"/>
      <point x="516" y="328"/>
      <point x="516" y="263" type="qcurve" smooth="yes"/>
      <point x="516" y="202"/>
      <point x="542" y="140"/>
      <point x="592" y="120"/>
      <point x="626" y="120" type="qcurve" smooth="yes"/>
      <point x="655" y="120"/>
      <point x="713" y="143"/>
      <point x="747" y="167" type="qcurve"/>
      <point x="827" y="59" type="line"/>
      <point x="787" y="27"/>
      <point x="677" y="-20"/>
      <point x="607" y="-20" type="qcurve" smooth="yes"/>
      <point x="516" y="-20"/>
      <point x="391" y="47"/>
      <point x="326" y="157"/>
      <point x="323" y="220" type="qcurve" smooth="yes"/>
      <point x="321" y="266" type="line"/>
      <point x="336" y="321"/>
      <point x="379" y="424"/>
      <point x="443" y="506"/>
      <point x="536" y="554"/>
    </contour>
    <contour>
      <point x="281" y="333" type="qcurve" smooth="yes"/>
      <point x="345" y="333" type="line"/>
      <point x="345" y="225" type="line"/>
      <point x="300" y="225" type="line" smooth="yes"/>
      <point x="260" y="225"/>
      <point x="221" y="198"/>
      <point x="221" y="165" type="qcurve" smooth="yes"/>
      <point x="221" y="145"/>
      <point x="243" y="119"/>
      <point x="263" y="119" type="qcurve" smooth="yes"/>
      <point x="287" y="119"/>
      <point x="320" y="151"/>
      <point x="336" y="173" type="qcurve"/>
      <point x="390" y="77" type="line"/>
      <point x="355" y="22"/>
      <point x="251" y="-20"/>
      <point x="195" y="-20" type="qcurve" smooth="yes"/>
      <point x="111" y="-20"/>
      <point x="15" y="76"/>
      <point x="15" y="150" type="qcurve" smooth="yes"/>
      <point x="15" y="239"/>
      <point x="149" y="333"/>
    </contour>
    <contour>
      <point x="272" y="554" type="qcurve" smooth="yes"/>
      <point x="350" y="554"/>
      <point x="440" y="501"/>
      <point x="486" y="412"/>
      <point x="497" y="357" type="qcurve" smooth="yes"/>
      <point x="516" y="263" type="line"/>
      <point x="321" y="266" type="line"/>
      <point x="319" y="344" type="line" smooth="yes"/>
      <point x="319" y="385"/>
      <point x="286" y="412"/>
      <point x="242" y="412" type="qcurve" smooth="yes"/>
      <point x="219" y="412"/>
      <point x="144" y="398"/>
      <point x="104" y="384" type="qcurve"/>
      <point x="61" y="512" type="line"/>
      <point x="111" y="532"/>
      <point x="226" y="554"/>
    </contour>
    <contour>
      <point x="421" y="517" type="move" name="top"/>
    </contour>
    <contour>
      <point x="417" y="0" type="move" name="bottom"/>
    </contour>
  </outline>
</glyph>
<glyph name="eth" format="1">
  <advance width="584"/>
  <unicode hex="00F0"/>
  <outline>
    <contour>
      <point x="286" y="-20" type="qcurve" smooth="yes"/>
      <point x="210" y="-20"/>
      <point x="88" y="40"/>
      <point x="17" y="154"/>
      <point x="17" y="233" type="qcurve" smooth="yes"/>
      <point x="17" y="307"/>
      <point x="77" y="419"/>
      <point x="174" y="482"/>
      <point x="229" y="482" type="qcurve" smooth="yes"/>
      <point x="267" y="482"/>
      <point x="326" y="464"/>
      <point x="352" y="447" type="qcurve"/>
      <point x="339" y="482"/>
      <point x="298" y="539"/>
      <point x="261" y="567" type="qcurve"/>
      <point x="216" y="521" type="line"/>
      <point x="94" y="576" type="line"/>
      <point x="139" y="624" type="line"/>
      <point x="117" y="629"/>
      <point x="78" y="637"/>
      <point x="63" y="639" type="qcurve"/>
      <point x="101" y="763" type="line"/>
      <point x="134" y="759"/>
      <point x="199" y="745"/>
      <point x="244" y="731" type="qcurve"/>
      <point x="320" y="811" type="line"/>
      <point x="417" y="726" type="line"/>
      <point x="366" y="674" type="line"/>
      <point x="439" y="624"/>
      <point x="525" y="504"/>
      <point x="562" y="365"/>
      <point x="562" y="284" type="qcurve" smooth="yes"/>
      <point x="562" y="203"/>
      <point x="500" y="65"/>
      <point x="378" y="-20"/>
    </contour>
    <contour>
      <point x="290" y="121" type="qcurve" smooth="yes"/>
      <point x="331" y="121"/>
      <point x="360" y="183"/>
      <point x="360" y="250" type="qcurve" smooth="yes"/>
      <point x="360" y="269"/>
      <point x="360" y="307"/>
      <point x="360" y="326" type="qcurve"/>
      <point x="345" y="337"/>
      <point x="309" y="348"/>
      <point x="289" y="348" type="qcurve" smooth="yes"/>
      <point x="265" y="348"/>
      <point x="234" y="323"/>
      <point x="218" y="273"/>
      <point x="218" y="235" type="qcurve" smooth="yes"/>
      <point x="218" y="192"/>
      <point x="235" y="142"/>
      <point x="268" y="121"/>
    </contour>
    <contour>
      <point x="286" y="727" type="move" name="top"/>
    </contour>
    <contour>
      <point x="268" y="0" type="move" name="bottom"/>
    </contour>
  </outline>
</glyph>
<glyph name="oslash" format="1">
  <advance width="584"/>
  <unicode hex="00F8"/>
  <outline>
    <contour>
      <point x="292" y="554" type="qcurve" smooth="yes"/>
      <point x="418" y="554"/>
      <point x="567" y="406"/>
      <point x="567" y="266" type="qcurve" smooth="yes"/>
      <point x="567" y="179"/>
      <point x="500" y="51"/>
      <point x="377" y="-20"/>
      <point x="292" y="-20" type="qcurve" smooth="yes"/>
      <point x="166" y="-20"/>
      <point x="17" y="129"/>
      <point x="17" y="268" type="qcurve" smooth="yes"/>
      <point x="17" y="355"/>
      <point x="84" y="484"/>
      <point x="207" y="554"/>
    </contour>
    <contour>
      <point x="292" y="412" type="qcurve" smooth="yes"/>
      <point x="247" y="412"/>
      <point x="200" y="344"/>
      <point x="200" y="268" type="qcurve" smooth="yes"/>
      <point x="200" y="200"/>
      <point x="221" y="138"/>
      <point x="262" y="122"/>
      <point x="292" y="122" type="qcurve" smooth="yes"/>
      <point x="337" y="122"/>
      <point x="384" y="190"/>
      <point x="384" y="266" type="qcurve" smooth="yes"/>
      <point x="384" y="334"/>
      <point x="363" y="396"/>
      <point x="322" y="412"/>
    </contour>
    <contour>
      <point x="314" y="553" type="line"/>
      <point x="353" y="673" type="line"/>
      <point x="493" y="632" type="line"/>
      <point x="452" y="509" type="line"/>
      <point x="375" y="384" type="line"/>
      <point x="286" y="115" type="line"/>
      <point x="272" y="-12" type="line"/>
      <point x="233" y="-138" type="line"/>
      <point x="93" y="-97" type="line"/>
      <point x="134" y="32" type="line"/>
      <point x="207" y="144" type="line"/>
      <point x="299" y="420" type="line"/>
    </contour>
    <contour>
      <point x="280" y="517" type="move" name="top"/>
    </contour>
    <contour>
      <point x="280" y="0" type="move" name="bottom"/>
    </contour>
  </outline>
</glyph>
<glyph name="thorn" format="1">
  <advance width="599"/>
  <unicode hex="00FE"/>
  <outline>
    <contour>
      <point x="373" y="554" type="qcurve" smooth="yes"/>
      <point x="478" y="554"/>
      <point x="577" y="401"/>
      <point x="577" y="269" type="qcurve" smooth="yes"/>
      <point x="577" y="186"/>
      <point x="524" y="55"/>
      <point x="428" y="-20"/>
      <point x="364" y="-20" type="qcurve" smooth="yes"/>
      <point x="327" y="-20"/>
      <point x="264" y="7"/>
      <point x="240" y="33" type="qcurve"/>
      <point x="240" y="-207" type="line"/>
      <point x="42" y="-227" type="line"/>
      <point x="42" y="744" type="line"/>
      <point x="240" y="764" type="line"/>
      <point x="240" y="492" type="line"/>
      <point x="273" y="528"/>
      <point x="344" y="554"/>
    </contour>
    <contour>
      <point x="299" y="121" type="qcurve" smooth="yes"/>
      <point x="332" y="121"/>
      <point x="374" y="185"/>
      <point x="374" y="266" type="qcurve" smooth="yes"/>
      <point x="374" y="331"/>
      <point x="357" y="393"/>
      <point x="326" y="412"/>
      <point x="306" y="412" type="qcurve" smooth="yes"/>
      <point x="290" y="412"/>
      <point x="255" y="389"/>
      <point x="240" y="362" type="qcurve"/>
      <point x="240" y="158" type="line"/>
      <point x="254" y="138"/>
      <point x="281" y="121"/>
    </contour>
    <contour>
      <point x="284" y="727" type="move" name="top"/>
    </contour>
    <contour>
      <point x="284" y="-188" type="move" name="bottom"/>
    </contour>
  </outline>
</glyph>
<glyph name="dcroat" format="1">
  <advance width="611"/>
  <unicode hex="0111"/>
  <outline>
    <contour>
      <point x="225" y="-20" type="qcurve" smooth="yes"/>
      <point x="121" y="-20"/>
      <point x="22" y="138"/>
      <point x="22" y="270" type="qcurve" smooth="yes"/>
      <point x="22" y="353"/>
      <point x="77" y="481"/>
      <point x="179" y="554"/>
      <point x="250" y="554" type="qcurve" smooth="yes"/>
      <point x="270" y="554"/>
      <point x="310" y="544"/>
      <point x="346" y="526"/>
      <point x="361" y="512" type="qcurve"/>
      <point x="361" y="590" type="line"/>
      <point x="237" y="590" type="line"/>
      <point x="237" y="696" type="line"/>
      <point x="361" y="696" type="line"/>
      <point x="361" y="764" type="line"/>
      <point x="559" y="744" type="line"/>
      <point x="559" y="696" type="line"/>
      <point x="611" y="696" type="line"/>
      <point x="611" y="590" type="line"/>
      <point x="559" y="590" type="line"/>
      <point x="559" y="0" type="line"/>
      <point x="383" y="0" type="line"/>
      <point x="376" y="55" type="line"/>
      <point x="355" y="27"/>
      <point x="283" y="-20"/>
    </contour>
    <contour>
      <point x="294" y="122" type="qcurve" smooth="yes"/>
      <point x="313" y="122"/>
      <point x="347" y="144"/>
      <point x="361" y="169" type="qcurve"/>
      <point x="361" y="383" type="line"/>
      <point x="352" y="393"/>
      <point x="335" y="406"/>
      <point x="315" y="413"/>
      <point x="303" y="413" type="qcurve" smooth="yes"/>
      <point x="281" y="413"/>
      <point x="246" y="386"/>
      <point x="225" y="322"/>
      <point x="225" y="268" type="qcurve" smooth="yes"/>
      <point x="225" y="204"/>
      <point x="244" y="142"/>
      <point x="275" y="122"/>
    </contour>
    <contour>
      <point x="288" y="0" type="move" name="bottom"/>
    </contour>
    <contour>
      <point x="280" y="727" type="move" name="top"/>
    </contour>
    <contour>
      <point x="497" y="727" type="move" name="topright"/>
    </contour>
    <contour>
      <point x="289" y="259" type="move" name="center"/>
    </contour>
  </outline>
</glyph>
<glyph name="Hbar" format="1">
  <advance width="671"/>
  <unicode hex="0126"/>
  <outline>
    <contour>
      <point x="621" y="601" type="line"/>
      <point x="671" y="601" type="line"/>
      <point x="671" y="495" type="line"/>
      <point x="621" y="495" type="line"/>
      <point x="621" y="0" type="line"/>
      <point x="415" y="0" type="line"/>
      <point x="415" y="281" type="line"/>
      <point x="256" y="281" type="line"/>
      <point x="256" y="0" type="line"/>
      <point x="50" y="0" type="line"/>
      <point x="50" y="495" type="line"/>
      <point x="0" y="495" type="line"/>
      <point x="0" y="601" type="line"/>
      <point x="50" y="601" type="line"/>
      <point x="50" y="696" type="line"/>
      <point x="256" y="696" type="line"/>
      <point x="256" y="601" type="line"/>
      <point x="415" y="601" type="line"/>
      <point x="415" y="696" type="line"/>
      <point x="621" y="696" type="line"/>
    </contour>
    <contour>
      <point x="256" y="439" type="line"/>
      <point x="415" y="439" type="line"/>
      <point x="415" y="495" type="line"/>
      <point x="256" y="495" type="line"/>
    </contour>
    <contour>
      <point x="335" y="0" type="move" name="bottom"/>
    </contour>
    <contour>
      <point x="334" y="680" type="move" name="top"/>
    </contour>
    <contour>
      <point x="88" y="680" type="move" name="topleft"/>
    </contour>
    <contour>
      <point x="542" y="0" type="move" name="bottomright"/>
    </contour>
    <contour>
      <point x="334" y="340" type="move" name="center"/>
    </contour>
  </outline>
</glyph>
<glyph name="hbar" format="1">
  <advance width="582"/>
  <unicode hex="0127"/>
  <outline>
    <contour>
      <point x="250" y="0" type="line"/>
      <point x="52" y="0" type="line"/>
      <point x="52" y="590" type="line"/>
      <point x="0" y="590" type="line"/>
      <point x="0" y="696" type="line"/>
      <point x="52" y="696" type="line"/>
      <point x="52" y="744" type="line"/>
      <point x="250" y="764" type="line"/>
      <point x="250" y="696" type="line"/>
      <point x="372" y="696" type="line"/>
      <point x="372" y="590" type="line"/>
      <point x="250" y="590" type="line"/>
      <point x="250" y="486" type="line"/>
      <point x="285" y="522"/>
      <point x="356" y="554"/>
      <point x="401" y="554" type="qcurve" smooth="yes"/>
      <point x="468" y="554"/>
      <point x="545" y="471"/>
      <point x="545" y="394" type="qcurve" smooth="yes"/>
      <point x="545" y="0" type="line"/>
      <point x="347" y="0" type="line"/>
      <point x="347" y="358" type="line" smooth="yes"/>
      <point x="347" y="390"/>
      <point x="331" y="410"/>
      <point x="317" y="410" type="qcurve" smooth="yes"/>
      <point x="301" y="410"/>
      <point x="267" y="384"/>
      <point x="250" y="357" type="qcurve"/>
    </contour>
    <contour>
      <point x="298" y="260" type="move" name="center"/>
    </contour>
    <contour>
      <point x="298" y="0" type="move" name="bottom"/>
    </contour>
    <contour>
      <point x="298" y="727" type="move" name="top"/>
    </contour>
  </outline>
</glyph>
<glyph name="lslash" format="1">
  <advance width="386"/>
  <unicode hex="0142"/>
  <outline>
    <contour>
      <point x="247" y="-20" type="qcurve" smooth="yes"/>
      <point x="166" y="-20"/>
      <point x="79" y="71"/>
      <point x="79" y="154" type="qcurve" smooth="yes"/>
      <point x="79" y="249" type="line"/>
      <point x="43" y="227" type="line"/>
      <point x="-20" y="329" type="line"/>
      <point x="79" y="391" type="line"/>
      <point x="79" y="744" type="line"/>
      <point x="277" y="764" type="line"/>
      <point x="277" y="511" type="line"/>
      <point x="329" y="542" type="line"/>
      <point x="392" y="440" type="line"/>
      <point x="277" y="370" type="line"/>
      <point x="277" y="162" type="line" smooth="yes"/>
      <point x="277" y="149"/>
      <point x="289" y="135"/>
      <point x="301" y="135" type="qcurve" smooth="yes"/>
      <point x="308" y="135"/>
      <point x="318" y="138"/>
      <point x="322" y="139" type="qcurve"/>
      <point x="357" y="-2" type="line"/>
      <point x="338" y="-10"/>
      <point x="281" y="-20"/>
    </contour>
    <contour>
      <point x="180" y="0" type="move" name="bottom"/>
    </contour>
    <contour>
      <point x="127" y="730" type="move" name="top"/>
    </contour>
    <contour>
      <point x="188" y="727" type="move" name="topright"/>
    </contour>
    <contour>
      <point x="262" y="375" type="move" name="center"/>
    </contour>
  </outline>
</glyph>
<glyph name="OE" format="1">
  <advance width="910"/>
  <unicode hex="0152"/>
  <outline>
    <contour>
      <point x="327" y="-20" type="qcurve" smooth="yes"/>
      <point x="231" y="-20"/>
      <point x="94" y="68"/>
      <point x="20" y="234"/>
      <point x="20" y="349" type="qcurve" smooth="yes"/>
      <point x="20" y="462"/>
      <point x="94" y="627"/>
      <point x="231" y="716"/>
      <point x="327" y="716" type="qcurve" smooth="yes"/>
      <point x="389" y="716"/>
      <point x="438" y="696" type="qcurve"/>
      <point x="890" y="696" type="line"/>
      <point x="869" y="553" type="line"/>
      <point x="594" y="553" type="line"/>
      <point x="614" y="524"/>
      <point x="638" y="458"/>
      <point x="644" y="423" type="qcurve"/>
      <point x="841" y="423" type="line"/>
      <point x="841" y="284" type="line"/>
      <point x="645" y="284" type="line"/>
      <point x="639" y="246"/>
      <point x="613" y="175"/>
      <point x="593" y="144" type="qcurve"/>
      <point x="885" y="144" type="line"/>
      <point x="885" y="0" type="line"/>
      <point x="434" y="0" type="line"/>
      <point x="411" y="-10"/>
      <point x="357" y="-20"/>
    </contour>
    <contour>
      <point x="335" y="126" type="qcurve" smooth="yes"/>
      <point x="370" y="126"/>
      <point x="415" y="170"/>
      <point x="436" y="269"/>
      <point x="436" y="349" type="qcurve" smooth="yes"/>
      <point x="436" y="430"/>
      <point x="414" y="527"/>
      <point x="369" y="570"/>
      <point x="335" y="570" type="qcurve" smooth="yes"/>
      <point x="301" y="570"/>
      <point x="256" y="527"/>
      <point x="234" y="430"/>
      <point x="234" y="349" type="qcurve" smooth="yes"/>
      <point x="234" y="269"/>
      <point x="256" y="170"/>
      <point x="301" y="126"/>
    </contour>
    <contour>
      <point x="419" y="680" type="move" name="top"/>
    </contour>
    <contour>
      <point x="419" y="0" type="move" name="bottom"/>
    </contour>
  </outline>
</glyph>
<glyph name="oe" format="1">
  <advance width="902"/>
  <unicode hex="0153"/>
  <outline>
    <contour>
      <point x="291" y="554" type="qcurve" smooth="yes"/>
      <point x="366" y="554"/>
      <point x="478" y="483"/>
      <point x="550" y="354"/>
      <point x="565" y="268" type="qcurve"/>
      <point x="545" y="175"/>
      <point x="473" y="47"/>
      <point x="366" y="-20"/>
      <point x="291" y="-20" type="qcurve" smooth="yes"/>
      <point x="164" y="-20"/>
      <point x="17" y="129"/>
      <point x="17" y="268" type="qcurve" smooth="yes"/>
      <point x="17" y="354"/>
      <point x="84" y="483"/>
      <point x="207" y="554"/>
    </contour>
    <contour>
      <point x="291" y="412" type="qcurve" smooth="yes"/>
      <point x="254" y="412"/>
      <point x="220" y="344"/>
      <point x="220" y="268" type="qcurve" smooth="yes"/>
      <point x="220" y="189"/>
      <point x="254" y="122"/>
      <point x="291" y="122" type="qcurve" smooth="yes"/>
      <point x="328" y="122"/>
      <point x="362" y="189"/>
      <point x="362" y="268" type="qcurve" smooth="yes"/>
      <point x="362" y="344"/>
      <point x="328" y="412"/>
    </contour>
    <contour>
      <point x="628" y="554" type="qcurve" smooth="yes"/>
      <point x="707" y="554"/>
      <point x="825" y="489"/>
      <point x="890" y="364"/>
      <point x="890" y="274" type="qcurve" smooth="yes"/>
      <point x="890" y="261"/>
      <point x="888" y="225"/>
      <point x="886" y="211" type="qcurve"/>
      <point x="546" y="211" type="line"/>
      <point x="544" y="323" type="line"/>
      <point x="695" y="323" type="line"/>
      <point x="695" y="325"/>
      <point x="695" y="329"/>
      <point x="695" y="330" type="qcurve" smooth="yes"/>
      <point x="695" y="357"/>
      <point x="684" y="402"/>
      <point x="658" y="429"/>
      <point x="632" y="429" type="qcurve" smooth="yes"/>
      <point x="607" y="429"/>
      <point x="574" y="400"/>
      <point x="559" y="328"/>
      <point x="559" y="263" type="qcurve" smooth="yes"/>
      <point x="559" y="202"/>
      <point x="585" y="140"/>
      <point x="635" y="120"/>
      <point x="669" y="120" type="qcurve" smooth="yes"/>
      <point x="698" y="120"/>
      <point x="756" y="143"/>
      <point x="790" y="167" type="qcurve"/>
      <point x="870" y="59" type="line"/>
      <point x="830" y="27"/>
      <point x="720" y="-20"/>
      <point x="650" y="-20" type="qcurve" smooth="yes"/>
      <point x="562" y="-20"/>
      <point x="449" y="54"/>
      <point x="382" y="184"/>
      <point x="362" y="266" type="qcurve"/>
      <point x="377" y="344"/>
      <point x="442" y="475"/>
      <point x="550" y="554"/>
    </contour>
    <contour>
      <point x="477" y="517" type="move" name="top"/>
    </contour>
    <contour>
      <point x="478" y="0" type="move" name="bottom"/>
    </contour>
  </outline>
</glyph>
<glyph name="uni0180" format="1">
  <advance width="609"/>
  <unicode hex="0180"/>
  <outline>
    <contour>
      <point x="373" y="-20" type="qcurve" smooth="yes"/>
      <point x="329" y="-20"/>
      <point x="258" y="15"/>
      <point x="235" y="46" type="qcurve"/>
      <point x="228" y="0" type="line"/>
      <point x="52" y="0" type="line"/>
      <point x="52" y="590" type="line"/>
      <point x="0" y="590" type="line"/>
      <point x="0" y="696" type="line"/>
      <point x="52" y="696" type="line"/>
      <point x="52" y="744" type="line"/>
      <point x="250" y="764" type="line"/>
      <point x="250" y="696" type="line"/>
      <point x="372" y="696" type="line"/>
      <point x="372" y="590" type="line"/>
      <point x="250" y="590" type="line"/>
      <point x="250" y="487" type="line"/>
      <point x="272" y="517"/>
      <point x="348" y="554"/>
      <point x="385" y="554" type="qcurve" smooth="yes"/>
      <point x="489" y="554"/>
      <point x="587" y="400"/>
      <point x="587" y="266" type="qcurve" smooth="yes"/>
      <point x="587" y="185"/>
      <point x="536" y="55"/>
      <point x="441" y="-20"/>
    </contour>
    <contour>
      <point x="315" y="121" type="qcurve" smooth="yes"/>
      <point x="345" y="121"/>
      <point x="384" y="182"/>
      <point x="384" y="266" type="qcurve" smooth="yes"/>
      <point x="384" y="329"/>
      <point x="367" y="391"/>
      <point x="339" y="412"/>
      <point x="321" y="412" type="qcurve" smooth="yes"/>
      <point x="302" y="412"/>
      <point x="265" y="389"/>
      <point x="250" y="362" type="qcurve"/>
      <point x="250" y="160" type="line"/>
      <point x="262" y="140"/>
      <point x="295" y="121"/>
    </contour>
    <contour>
      <point x="294" y="727" type="move" name="top"/>
    </contour>
    <contour>
      <point x="289" y="0" type="move" name="bottom"/>
    </contour>
  </outline>
</glyph>
<glyph name="uni0183" format="1">
  <advance width="599"/>
  <unicode hex="0183"/>
  <outline>
    <contour>
      <point x="363" y="-20" type="qcurve" smooth="yes"/>
      <point x="319" y="-20"/>
      <point x="248" y="15"/>
      <point x="225" y="46" type="qcurve"/>
      <point x="218" y="0" type="line"/>
      <point x="42" y="0" type="line"/>
      <point x="42" y="744" type="line"/>
      <point x="454" y="744" type="line"/>
      <point x="434" y="605" type="line"/>
      <point x="240" y="605" type="line"/>
      <point x="240" y="467" type="line"/>
      <point x="262" y="497"/>
      <point x="338" y="534"/>
      <point x="375" y="534" type="qcurve" smooth="yes"/>
      <point x="479" y="534"/>
      <point x="577" y="383"/>
      <point x="577" y="256" type="qcurve" smooth="yes"/>
      <point x="577" y="180"/>
      <point x="526" y="54"/>
      <point x="431" y="-20"/>
    </contour>
    <contour>
      <point x="305" y="121" type="qcurve" smooth="yes"/>
      <point x="335" y="121"/>
      <point x="374" y="180"/>
      <point x="374" y="256" type="qcurve" smooth="yes"/>
      <point x="374" y="314"/>
      <point x="357" y="372"/>
      <point x="329" y="392"/>
      <point x="311" y="392" type="qcurve" smooth="yes"/>
      <point x="292" y="392"/>
      <point x="255" y="369"/>
      <point x="240" y="342" type="qcurve"/>
      <point x="240" y="160" type="line"/>
      <point x="252" y="140"/>
      <point x="285" y="121"/>
    </contour>
    <contour>
      <point x="284" y="727" type="move" name="top"/>
    </contour>
    <contour>
      <point x="284" y="0" type="move" name="bottom"/>
    </contour>
  </outline>
</glyph>
<glyph name="uni0184" format="1">
  <advance width="641"/>
  <unicode hex="0184"/>
  <outline>
    <contour>
      <point x="356" y="0" type="qcurve" smooth="yes"/>
      <point x="78" y="0" type="line"/>
      <point x="78" y="472" type="line"/>
      <point x="0" y="528" type="line"/>
      <point x="35" y="563"/>
      <point x="92" y="649"/>
      <point x="114" y="696" type="qcurve"/>
      <point x="284" y="696" type="line"/>
      <point x="284" y="469" type="line"/>
      <point x="348" y="469" type="line" smooth="yes"/>
      <point x="483" y="469"/>
      <point x="631" y="357"/>
      <point x="631" y="242" type="qcurve" smooth="yes"/>
      <point x="631" y="161"/>
      <point x="560" y="54"/>
      <point x="436" y="0"/>
    </contour>
    <contour>
      <point x="284" y="331" type="line"/>
      <point x="284" y="145" type="line"/>
      <point x="329" y="145" type="line" smooth="yes"/>
      <point x="360" y="145"/>
      <point x="398" y="168"/>
      <point x="417" y="211"/>
      <point x="417" y="240" type="qcurve" smooth="yes"/>
      <point x="417" y="281"/>
      <point x="376" y="331"/>
      <point x="325" y="331" type="qcurve" smooth="yes"/>
    </contour>
    <contour>
      <point x="275" y="680" type="move" name="top"/>
    </contour>
    <contour>
      <point x="275" y="0" type="move" name="bottom"/>
    </contour>
  </outline>
</glyph>
<glyph name="uni0185" format="1">
  <advance width="553"/>
  <unicode hex="0185"/>
  <outline>
    <contour>
      <point x="312" y="0" type="qcurve" smooth="yes"/>
      <point x="69" y="0" type="line"/>
      <point x="69" y="431" type="line"/>
      <point x="104" y="534" type="line"/>
      <point x="267" y="534" type="line"/>
      <point x="267" y="123" type="line"/>
      <point x="290" y="123" type="line" smooth="yes"/>
      <point x="321" y="123"/>
      <point x="349" y="159"/>
      <point x="349" y="188" type="qcurve" smooth="yes"/>
      <point x="349" y="219"/>
      <point x="319" y="251"/>
      <point x="282" y="251" type="qcurve" smooth="yes"/>
      <point x="251" y="251" type="line"/>
      <point x="251" y="371" type="line"/>
      <point x="285" y="371" type="line" smooth="yes"/>
      <point x="422" y="371"/>
      <point x="548" y="278"/>
      <point x="548" y="184" type="qcurve" smooth="yes"/>
      <point x="548" y="124"/>
      <point x="490" y="42"/>
      <point x="384" y="0"/>
    </contour>
    <contour>
      <point x="104" y="534" type="qcurve"/>
      <point x="69" y="319" type="line"/>
      <point x="-10" y="376" type="line"/>
      <point x="25" y="411"/>
      <point x="79" y="486"/>
    </contour>
    <contour>
      <point x="246" y="517" type="move" name="top"/>
    </contour>
    <contour>
      <point x="246" y="0" type="move" name="bottom"/>
    </contour>
  </outline>
</glyph>
<glyph name="uni0186" format="1">
  <advance width="584"/>
  <unicode hex="0186"/>
  <outline>
    <contour>
      <point x="244" y="716" type="qcurve" smooth="yes"/>
      <point x="339" y="716"/>
      <point x="483" y="630"/>
      <point x="564" y="466"/>
      <point x="564" y="350" type="qcurve" smooth="yes"/>
      <point x="564" y="230"/>
      <point x="482" y="65"/>
      <point x="334" y="-20"/>
      <point x="234" y="-20" type="qcurve" smooth="yes"/>
      <point x="158" y="-20"/>
      <point x="39" y="39"/>
      <point x="0" y="77" type="qcurve"/>
      <point x="90" y="193" type="line"/>
      <point x="121" y="169"/>
      <point x="183" y="135"/>
      <point x="223" y="135" type="qcurve" smooth="yes"/>
      <point x="262" y="135"/>
      <point x="319" y="181"/>
      <point x="350" y="277"/>
      <point x="350" y="350" type="qcurve" smooth="yes"/>
      <point x="350" y="424"/>
      <point x="322" y="520"/>
      <point x="270" y="568"/>
      <point x="232" y="568" type="qcurve" smooth="yes"/>
      <point x="194" y="568"/>
      <point x="135" y="542"/>
      <point x="106" y="519" type="qcurve"/>
      <point x="8" y="634" type="line"/>
      <point x="54" y="672"/>
      <point x="167" y="716"/>
    </contour>
    <contour>
      <point x="206" y="341" type="move" name="center"/>
    </contour>
    <contour>
      <point x="205" y="0" type="move" name="bottom"/>
    </contour>
    <contour>
      <point x="205" y="680" type="move" name="top"/>
    </contour>
  </outline>
</glyph>
<glyph name="uni0187" format="1">
  <advance width="584"/>
  <unicode hex="0187"/>
  <outline>
    <contour>
      <point x="589" y="863" type="qcurve" smooth="yes"/>
      <point x="638" y="863"/>
      <point x="710" y="841"/>
      <point x="736" y="826" type="qcurve"/>
      <point x="684" y="704" type="line"/>
      <point x="667" y="712"/>
      <point x="637" y="721"/>
      <point x="620" y="721" type="qcurve" smooth="yes"/>
      <point x="597" y="721"/>
      <point x="576" y="695"/>
      <point x="576" y="667" type="qcurve" smooth="yes"/>
      <point x="576" y="634" type="line"/>
      <point x="489" y="532" type="line"/>
      <point x="462" y="548"/>
      <point x="403" y="568"/>
      <point x="360" y="568" type="qcurve" smooth="yes"/>
      <point x="321" y="568"/>
      <point x="265" y="520"/>
      <point x="234" y="424"/>
      <point x="234" y="350" type="qcurve" smooth="yes"/>
      <point x="234" y="277"/>
      <point x="265" y="181"/>
      <point x="325" y="135"/>
      <point x="366" y="135" type="qcurve" smooth="yes"/>
      <point x="403" y="135"/>
      <point x="463" y="169"/>
      <point x="494" y="193" type="qcurve"/>
      <point x="584" y="77" type="line"/>
      <point x="546" y="39"/>
      <point x="428" y="-20"/>
      <point x="354" y="-20" type="qcurve" smooth="yes"/>
      <point x="252" y="-20"/>
      <point x="102" y="65"/>
      <point x="20" y="230"/>
      <point x="20" y="350" type="qcurve" smooth="yes"/>
      <point x="20" y="437"/>
      <point x="69" y="573"/>
      <point x="153" y="667"/>
      <point x="262" y="716"/>
      <point x="322" y="716" type="qcurve" smooth="yes"/>
      <point x="346" y="716"/>
      <point x="390" y="708"/>
      <point x="408" y="701" type="qcurve"/>
      <point x="408" y="701" type="line"/>
      <point x="413" y="776"/>
      <point x="500" y="863"/>
    </contour>
    <contour>
      <point x="265" y="680" type="move" name="top"/>
    </contour>
    <contour>
      <point x="265" y="0" type="move" name="bottom"/>
    </contour>
  </outline>
</glyph>
<glyph name="uni0188" format="1">
  <advance width="479"/>
  <unicode hex="0188"/>
  <outline>
    <contour>
      <point x="300" y="-20" type="qcurve" smooth="yes"/>
      <point x="212" y="-20"/>
      <point x="85" y="52"/>
      <point x="17" y="180"/>
      <point x="17" y="263" type="qcurve" smooth="yes"/>
      <point x="17" y="348"/>
      <point x="84" y="479"/>
      <point x="197" y="554"/>
      <point x="265" y="554" type="qcurve" smooth="yes"/>
      <point x="280" y="554"/>
      <point x="308" y="550"/>
      <point x="321" y="547" type="qcurve"/>
      <point x="321" y="585" type="line" smooth="yes"/>
      <point x="321" y="668"/>
      <point x="408" y="764"/>
      <point x="502" y="764" type="qcurve" smooth="yes"/>
      <point x="551" y="764"/>
      <point x="623" y="742"/>
      <point x="649" y="727" type="qcurve"/>
      <point x="597" y="605" type="line"/>
      <point x="580" y="613"/>
      <point x="550" y="622"/>
      <point x="533" y="622" type="qcurve" smooth="yes"/>
      <point x="510" y="622"/>
      <point x="489" y="596"/>
      <point x="489" y="568" type="qcurve" smooth="yes"/>
      <point x="489" y="483" type="line"/>
      <point x="418" y="383" type="line"/>
      <point x="396" y="394"/>
      <point x="346" y="405"/>
      <point x="317" y="405" type="qcurve" smooth="yes"/>
      <point x="271" y="405"/>
      <point x="223" y="344"/>
      <point x="223" y="263" type="qcurve" smooth="yes"/>
      <point x="223" y="210"/>
      <point x="246" y="153"/>
      <point x="286" y="133"/>
      <point x="311" y="133" type="qcurve" smooth="yes"/>
      <point x="336" y="133"/>
      <point x="376" y="151"/>
      <point x="401" y="170" type="qcurve"/>
      <point x="489" y="46" type="line"/>
      <point x="452" y="16"/>
      <point x="360" y="-20"/>
    </contour>
    <contour>
      <point x="235" y="727" type="move" name="top"/>
    </contour>
    <contour>
      <point x="235" y="0" type="move" name="bottom"/>
    </contour>
  </outline>
</glyph>
<glyph name="uni018B" format="1">
  <advance width="606"/>
  <unicode hex="018B"/>
  <outline>
    <contour>
      <point x="563" y="0" type="line"/>
      <point x="282" y="0" type="line" smooth="yes"/>
      <point x="203" y="0"/>
      <point x="80" y="50"/>
      <point x="10" y="152"/>
      <point x="10" y="230" type="qcurve" smooth="yes"/>
      <point x="10" y="337"/>
      <point x="157" y="456"/>
      <point x="293" y="456" type="qcurve" smooth="yes"/>
      <point x="357" y="456" type="line"/>
      <point x="357" y="543" type="line"/>
      <point x="103" y="543" type="line"/>
      <point x="103" y="696" type="line"/>
      <point x="563" y="696" type="line"/>
    </contour>
    <contour>
      <point x="312" y="145" type="qcurve" smooth="yes"/>
      <point x="357" y="145" type="line"/>
      <point x="357" y="318" type="line"/>
      <point x="316" y="318" type="line" smooth="yes"/>
      <point x="266" y="318"/>
      <point x="224" y="269"/>
      <point x="224" y="230" type="qcurve" smooth="yes"/>
      <point x="224" y="205"/>
      <point x="243" y="166"/>
      <point x="282" y="145"/>
    </contour>
    <contour>
      <point x="282" y="680" type="move" name="top"/>
    </contour>
    <contour>
      <point x="282" y="0" type="move" name="bottom"/>
    </contour>
  </outline>
</glyph>
<glyph name="uni018C" format="1">
  <advance width="601"/>
  <unicode hex="018C"/>
  <outline>
    <contour>
      <point x="225" y="-20" type="qcurve" smooth="yes"/>
      <point x="156" y="-20"/>
      <point x="66" y="51"/>
      <point x="22" y="177"/>
      <point x="22" y="260" type="qcurve" smooth="yes"/>
      <point x="22" y="338"/>
      <point x="77" y="462"/>
      <point x="179" y="534"/>
      <point x="250" y="534" type="qcurve" smooth="yes"/>
      <point x="270" y="534"/>
      <point x="310" y="524"/>
      <point x="346" y="506"/>
      <point x="361" y="492" type="qcurve"/>
      <point x="361" y="605" type="line"/>
      <point x="157" y="605" type="line"/>
      <point x="157" y="744" type="line"/>
      <point x="559" y="744" type="line"/>
      <point x="559" y="0" type="line"/>
      <point x="383" y="0" type="line"/>
      <point x="376" y="55" type="line"/>
      <point x="355" y="27"/>
      <point x="283" y="-20"/>
    </contour>
    <contour>
      <point x="294" y="122" type="qcurve" smooth="yes"/>
      <point x="313" y="122"/>
      <point x="347" y="144"/>
      <point x="361" y="169" type="qcurve"/>
      <point x="361" y="363" type="line"/>
      <point x="352" y="373"/>
      <point x="335" y="386"/>
      <point x="315" y="393"/>
      <point x="303" y="393" type="qcurve" smooth="yes"/>
      <point x="281" y="393"/>
      <point x="246" y="366"/>
      <point x="225" y="307"/>
      <point x="225" y="258" type="qcurve" smooth="yes"/>
      <point x="225" y="199"/>
      <point x="244" y="141"/>
      <point x="275" y="122"/>
    </contour>
    <contour>
      <point x="286" y="727" type="move" name="top"/>
    </contour>
    <contour>
      <point x="286" y="0" type="move" name="bottom"/>
    </contour>
  </outline>
</glyph>
<glyph name="uni018D" format="1">
  <advance width="576"/>
  <unicode hex="018D"/>
  <outline>
    <contour>
      <point x="70" y="-67" type="qcurve" smooth="yes"/>
      <point x="70" y="-37"/>
      <point x="90" y="17"/>
      <point x="152" y="70"/>
      <point x="215" y="100" type="qcurve" smooth="yes"/>
      <point x="263" y="121"/>
      <point x="319" y="154"/>
      <point x="347" y="191"/>
      <point x="356" y="242"/>
      <point x="356" y="282" type="qcurve" smooth="yes"/>
      <point x="356" y="353"/>
      <point x="322" y="412"/>
      <point x="287" y="412" type="qcurve" smooth="yes"/>
      <point x="251" y="412"/>
      <point x="218" y="352"/>
      <point x="218" y="282" type="qcurve" smooth="yes"/>
      <point x="218" y="247"/>
      <point x="226" y="188"/>
      <point x="253" y="136"/>
      <point x="282" y="111" type="qcurve"/>
      <point x="186" y="70" type="line"/>
      <point x="99" y="106"/>
      <point x="17" y="219"/>
      <point x="17" y="292" type="qcurve" smooth="yes"/>
      <point x="17" y="415"/>
      <point x="161" y="554"/>
      <point x="288" y="554" type="qcurve" smooth="yes"/>
      <point x="370" y="554"/>
      <point x="491" y="491"/>
      <point x="559" y="370"/>
      <point x="559" y="283" type="qcurve" smooth="yes"/>
      <point x="559" y="210"/>
      <point x="514" y="108"/>
      <point x="419" y="35"/>
      <point x="344" y="5" type="qcurve" smooth="yes"/>
      <point x="304" y="-11"/>
      <point x="266" y="-32"/>
      <point x="256" y="-49"/>
      <point x="256" y="-60" type="qcurve" smooth="yes"/>
      <point x="256" y="-75"/>
      <point x="285" y="-94"/>
      <point x="319" y="-94" type="qcurve" smooth="yes"/>
      <point x="348" y="-94"/>
      <point x="398" y="-76"/>
      <point x="420" y="-62" type="qcurve"/>
      <point x="507" y="-162" type="line"/>
      <point x="476" y="-188"/>
      <point x="372" y="-227"/>
      <point x="303" y="-227" type="qcurve" smooth="yes"/>
      <point x="221" y="-227"/>
      <point x="118" y="-182"/>
      <point x="70" y="-110"/>
    </contour>
    <contour>
      <point x="277" y="517" type="move" name="top"/>
    </contour>
    <contour>
      <point x="277" y="-188" type="move" name="bottom"/>
    </contour>
  </outline>
</glyph>
<glyph name="uni0190" format="1">
  <advance width="553"/>
  <unicode hex="0190"/>
  <outline>
    <contour>
      <point x="299" y="716" type="qcurve" smooth="yes"/>
      <point x="375" y="716"/>
      <point x="491" y="667"/>
      <point x="540" y="620" type="qcurve"/>
      <point x="445" y="520" type="line"/>
      <point x="415" y="547"/>
      <point x="355" y="572"/>
      <point x="325" y="572" type="qcurve" smooth="yes"/>
      <point x="280" y="572"/>
      <point x="245" y="534"/>
      <point x="245" y="506" type="qcurve" smooth="yes"/>
      <point x="245" y="484"/>
      <point x="264" y="453"/>
      <point x="303" y="436"/>
      <point x="332" y="436" type="qcurve" smooth="yes"/>
      <point x="413" y="436" type="line"/>
      <point x="390" y="295" type="line"/>
      <point x="336" y="295" type="line" smooth="yes"/>
      <point x="281" y="295"/>
      <point x="229" y="249"/>
      <point x="229" y="209" type="qcurve" smooth="yes"/>
      <point x="229" y="167"/>
      <point x="282" y="126"/>
      <point x="326" y="126" type="qcurve" smooth="yes"/>
      <point x="363" y="126"/>
      <point x="423" y="155"/>
      <point x="456" y="184" type="qcurve"/>
      <point x="563" y="80" type="line"/>
      <point x="519" y="34"/>
      <point x="393" y="-20"/>
      <point x="304" y="-20" type="qcurve" smooth="yes"/>
      <point x="219" y="-20"/>
      <point x="89" y="32"/>
      <point x="15" y="128"/>
      <point x="15" y="193" type="qcurve" smooth="yes"/>
      <point x="15" y="245"/>
      <point x="58" y="318"/>
      <point x="141" y="361"/>
      <point x="201" y="367" type="qcurve"/>
      <point x="142" y="379"/>
      <point x="69" y="427"/>
      <point x="35" y="493"/>
      <point x="35" y="530" type="qcurve" smooth="yes"/>
      <point x="35" y="585"/>
      <point x="103" y="668"/>
      <point x="222" y="716"/>
    </contour>
    <contour>
      <point x="254" y="680" type="move" name="top"/>
    </contour>
    <contour>
      <point x="254" y="0" type="move" name="bottom"/>
    </contour>
  </outline>
</glyph>
<glyph name="florin" format="1">
  <advance width="390"/>
  <unicode hex="0192"/>
  <outline>
    <contour>
      <point x="338" y="622" type="qcurve" smooth="yes"/>
      <point x="299" y="622"/>
      <point x="273" y="593"/>
      <point x="273" y="555" type="qcurve" smooth="yes"/>
      <point x="273" y="534" type="line"/>
      <point x="397" y="534" type="line"/>
      <point x="375" y="400" type="line"/>
      <point x="273" y="400" type="line"/>
      <point x="273" y="77" type="line" smooth="yes"/>
      <point x="273" y="-17"/>
      <point x="207" y="-135"/>
      <point x="97" y="-206"/>
      <point x="31" y="-227" type="qcurve"/>
      <point x="-37" y="-83" type="line"/>
      <point x="-4" y="-68"/>
      <point x="47" y="-32"/>
      <point x="75" y="22"/>
      <point x="75" y="65" type="qcurve" smooth="yes"/>
      <point x="75" y="400" type="line"/>
      <point x="-5" y="400" type="line"/>
      <point x="-5" y="534" type="line"/>
      <point x="75" y="534" type="line"/>
      <point x="75" y="565" type="line" smooth="yes"/>
      <point x="75" y="620"/>
      <point x="124" y="710"/>
      <point x="225" y="764"/>
      <point x="301" y="764" type="qcurve" smooth="yes"/>
      <point x="352" y="764"/>
      <point x="442" y="742"/>
      <point x="474" y="727" type="qcurve"/>
      <point x="422" y="602" type="line"/>
      <point x="397" y="613"/>
      <point x="357" y="622"/>
    </contour>
  </outline>
</glyph>
<glyph name="uni0193" format="1">
  <advance width="626"/>
  <unicode hex="0193"/>
  <outline>
    <contour>
      <point x="355" y="-20" type="qcurve" smooth="yes"/>
      <point x="238" y="-20"/>
      <point x="90" y="66"/>
      <point x="20" y="231"/>
      <point x="20" y="349" type="qcurve" smooth="yes"/>
      <point x="20" y="438"/>
      <point x="73" y="574"/>
      <point x="165" y="668"/>
      <point x="283" y="716"/>
      <point x="348" y="716" type="qcurve" smooth="yes"/>
      <point x="377" y="716"/>
      <point x="429" y="705"/>
      <point x="450" y="697" type="qcurve"/>
      <point x="450" y="697" type="line"/>
      <point x="450" y="768"/>
      <point x="537" y="863"/>
      <point x="631" y="863" type="qcurve" smooth="yes"/>
      <point x="680" y="863"/>
      <point x="752" y="841"/>
      <point x="778" y="826" type="qcurve"/>
      <point x="726" y="704" type="line"/>
      <point x="709" y="712"/>
      <point x="679" y="721"/>
      <point x="662" y="721" type="qcurve" smooth="yes"/>
      <point x="639" y="721"/>
      <point x="618" y="695"/>
      <point x="618" y="667" type="qcurve" smooth="yes"/>
      <point x="618" y="625" type="line"/>
      <point x="524" y="528" type="line"/>
      <point x="490" y="548"/>
      <point x="423" y="572"/>
      <point x="383" y="572" type="qcurve" smooth="yes"/>
      <point x="347" y="572"/>
      <point x="291" y="545"/>
      <point x="252" y="490"/>
      <point x="232" y="405"/>
      <point x="232" y="348" type="qcurve" smooth="yes"/>
      <point x="232" y="262"/>
      <point x="257" y="165"/>
      <point x="309" y="126"/>
      <point x="349" y="126" type="qcurve" smooth="yes"/>
      <point x="369" y="126"/>
      <point x="404" y="135"/>
      <point x="420" y="143" type="qcurve"/>
      <point x="420" y="270" type="line"/>
      <point x="350" y="270" type="line"/>
      <point x="331" y="409" type="line"/>
      <point x="618" y="409" type="line"/>
      <point x="618" y="60" type="line"/>
      <point x="562" y="22"/>
      <point x="420" y="-20"/>
    </contour>
    <contour>
      <point x="268" y="680" type="move" name="top"/>
    </contour>
    <contour>
      <point x="268" y="0" type="move" name="bottom"/>
    </contour>
  </outline>
</glyph>
<glyph name="uni0194" format="1">
  <advance width="579"/>
  <unicode hex="0194"/>
  <outline>
    <contour>
      <point x="293" y="-227" type="qcurve" smooth="yes"/>
      <point x="202" y="-227"/>
      <point x="123" y="-150"/>
      <point x="123" y="-89" type="qcurve" smooth="yes"/>
      <point x="123" y="-44"/>
      <point x="156" y="44"/>
      <point x="193" y="106" type="qcurve"/>
      <point x="-25" y="696" type="line"/>
      <point x="192" y="696" type="line"/>
      <point x="293" y="237" type="line"/>
      <point x="393" y="696" type="line"/>
      <point x="604" y="696" type="line"/>
      <point x="394" y="106" type="line"/>
      <point x="429" y="54"/>
      <point x="463" y="-40"/>
      <point x="463" y="-89" type="qcurve" smooth="yes"/>
      <point x="463" y="-149"/>
      <point x="387" y="-227"/>
    </contour>
    <contour>
      <point x="293" y="-106" type="qcurve" smooth="yes"/>
      <point x="307" y="-106"/>
      <point x="320" y="-90"/>
      <point x="320" y="-76" type="qcurve" smooth="yes"/>
      <point x="320" y="-57"/>
      <point x="305" y="-20"/>
      <point x="293" y="6" type="qcurve"/>
      <point x="281" y="-19"/>
      <point x="266" y="-60"/>
      <point x="266" y="-77" type="qcurve" smooth="yes"/>
      <point x="266" y="-91"/>
      <point x="280" y="-106"/>
    </contour>
    <contour>
      <point x="262" y="680" type="move" name="top"/>
    </contour>
    <contour>
      <point x="262" y="-188" type="move" name="bottom"/>
    </contour>
  </outline>
</glyph>
<glyph name="uni0195" format="1">
  <advance width="861"/>
  <unicode hex="0195"/>
  <outline>
    <contour>
      <point x="611" y="534" type="qcurve"/>
      <point x="805" y="534" type="line"/>
      <point x="816" y="476"/>
      <point x="836" y="330"/>
      <point x="836" y="244" type="qcurve" smooth="yes"/>
      <point x="836" y="173"/>
      <point x="789" y="72"/>
      <point x="710" y="9"/>
      <point x="611" y="-20"/>
      <point x="560" y="-20" type="qcurve" smooth="yes"/>
      <point x="501" y="-20"/>
      <point x="399" y="22"/>
      <point x="337" y="115"/>
      <point x="337" y="191" type="qcurve" smooth="yes"/>
      <point x="337" y="358" type="line" smooth="yes"/>
      <point x="337" y="390"/>
      <point x="321" y="410"/>
      <point x="307" y="410" type="qcurve" smooth="yes"/>
      <point x="291" y="410"/>
      <point x="257" y="384"/>
      <point x="240" y="357" type="qcurve"/>
      <point x="240" y="0" type="line"/>
      <point x="42" y="0" type="line"/>
      <point x="42" y="744" type="line"/>
      <point x="240" y="764" type="line"/>
      <point x="240" y="486" type="line"/>
      <point x="275" y="522"/>
      <point x="346" y="554"/>
      <point x="391" y="554" type="qcurve" smooth="yes"/>
      <point x="458" y="554"/>
      <point x="535" y="471"/>
      <point x="535" y="394" type="qcurve" smooth="yes"/>
      <point x="535" y="190" type="line" smooth="yes"/>
      <point x="535" y="150"/>
      <point x="557" y="122"/>
      <point x="576" y="122" type="qcurve" smooth="yes"/>
      <point x="593" y="122"/>
      <point x="621" y="148"/>
      <point x="638" y="209"/>
      <point x="638" y="259" type="qcurve" smooth="yes"/>
      <point x="638" y="324"/>
      <point x="622" y="467"/>
    </contour>
    <contour>
      <point x="446" y="727" type="move" name="top"/>
    </contour>
    <contour>
      <point x="446" y="0" type="move" name="bottom"/>
    </contour>
  </outline>
</glyph>
<glyph name="uni0196" format="1">
  <advance width="406"/>
  <unicode hex="0196"/>
  <outline>
    <contour>
      <point x="357" y="145" type="qcurve"/>
      <point x="421" y="25" type="line"/>
      <point x="394" y="6"/>
      <point x="318" y="-20"/>
      <point x="264" y="-20" type="qcurve" smooth="yes"/>
      <point x="161" y="-20"/>
      <point x="33" y="85"/>
      <point x="33" y="191" type="qcurve" smooth="yes"/>
      <point x="33" y="696" type="line"/>
      <point x="239" y="696" type="line"/>
      <point x="239" y="178" type="line" smooth="yes"/>
      <point x="239" y="152"/>
      <point x="266" y="125"/>
      <point x="289" y="125" type="qcurve" smooth="yes"/>
      <point x="310" y="125"/>
      <point x="339" y="136"/>
    </contour>
    <contour>
      <point x="121" y="680" type="move" name="top"/>
    </contour>
    <contour>
      <point x="192" y="0" type="move" name="bottom"/>
    </contour>
  </outline>
</glyph>
<glyph name="uni0198" format="1">
  <advance width="675"/>
  <unicode hex="0198"/>
  <outline>
    <contour>
      <point x="43" y="696" type="line"/>
      <point x="249" y="696" type="line"/>
      <point x="249" y="0" type="line"/>
      <point x="43" y="0" type="line"/>
    </contour>
    <contour>
      <point x="547" y="526" type="qcurve" smooth="yes"/>
      <point x="464" y="387" type="line"/>
      <point x="679" y="0" type="line"/>
      <point x="445" y="0" type="line"/>
      <point x="255" y="371" type="line"/>
      <point x="375" y="580" type="line" smooth="yes"/>
      <point x="404" y="630"/>
      <point x="459" y="689"/>
      <point x="527" y="716"/>
      <point x="575" y="716" type="qcurve" smooth="yes"/>
      <point x="616" y="716"/>
      <point x="676" y="692"/>
      <point x="695" y="677" type="qcurve"/>
      <point x="646" y="564" type="line"/>
      <point x="639" y="567"/>
      <point x="622" y="574"/>
      <point x="608" y="574" type="qcurve" smooth="yes"/>
      <point x="596" y="574"/>
      <point x="578" y="567"/>
      <point x="559" y="546"/>
    </contour>
    <contour>
      <point x="271" y="680" type="move" name="top"/>
    </contour>
    <contour>
      <point x="271" y="0" type="move" name="bottom"/>
    </contour>
  </outline>
</glyph>
<glyph name="uni0199" format="1">
  <advance width="576"/>
  <unicode hex="0199"/>
  <outline>
    <contour>
      <point x="240" y="0" type="line"/>
      <point x="42" y="0" type="line"/>
      <point x="42" y="565" type="line" smooth="yes"/>
      <point x="42" y="620"/>
      <point x="91" y="710"/>
      <point x="192" y="764"/>
      <point x="268" y="764" type="qcurve" smooth="yes"/>
      <point x="312" y="764"/>
      <point x="397" y="742"/>
      <point x="425" y="727" type="qcurve"/>
      <point x="373" y="602" type="line"/>
      <point x="352" y="613"/>
      <point x="312" y="622"/>
      <point x="295" y="622" type="qcurve" smooth="yes"/>
      <point x="267" y="622"/>
      <point x="240" y="593"/>
      <point x="240" y="555" type="qcurve" smooth="yes"/>
    </contour>
    <contour>
      <point x="591" y="0" type="line"/>
      <point x="372" y="0" type="line"/>
      <point x="244" y="292" type="line"/>
      <point x="387" y="534" type="line"/>
      <point x="583" y="534" type="line"/>
      <point x="442" y="300" type="line"/>
    </contour>
  </outline>
</glyph>
<glyph name="uni019B" format="1">
  <advance width="553"/>
  <unicode hex="019B"/>
  <outline>
    <contour>
      <point x="269" y="350" type="qcurve"/>
      <point x="197" y="-20" type="line"/>
      <point x="0" y="24" type="line"/>
      <point x="154" y="484" type="line"/>
      <point x="250" y="484" type="line"/>
      <point x="235" y="542"/>
      <point x="196" y="605"/>
      <point x="124" y="634"/>
      <point x="58" y="641" type="qcurve"/>
      <point x="80" y="762" type="line"/>
      <point x="150" y="753"/>
      <point x="260" y="721"/>
      <point x="343" y="655"/>
      <point x="405" y="540"/>
      <point x="427" y="447" type="qcurve" smooth="yes"/>
      <point x="441" y="389"/>
      <point x="465" y="290"/>
      <point x="490" y="207"/>
      <point x="518" y="135"/>
      <point x="552" y="71"/>
      <point x="573" y="40" type="qcurve"/>
      <point x="380" y="-20" type="line"/>
      <point x="362" y="12"/>
      <point x="334" y="76"/>
      <point x="312" y="143"/>
      <point x="293" y="217"/>
      <point x="277" y="301"/>
    </contour>
    <contour>
      <point x="241" y="555" type="line"/>
      <point x="177" y="509" type="line"/>
      <point x="77" y="574" type="line"/>
      <point x="142" y="623" type="line"/>
      <point x="240" y="693" type="line"/>
      <point x="340" y="767" type="line"/>
      <point x="411" y="676" type="line"/>
      <point x="342" y="627" type="line"/>
    </contour>
    <contour>
      <point x="222" y="727" type="move" name="top"/>
    </contour>
    <contour>
      <point x="222" y="0" type="move" name="bottom"/>
    </contour>
  </outline>
</glyph>
<glyph name="uni019C" format="1">
  <advance width="904"/>
  <unicode hex="019C"/>
  <outline>
    <contour>
      <point x="200" y="-20" type="qcurve" smooth="yes"/>
      <point x="121" y="-20"/>
      <point x="33" y="86"/>
      <point x="33" y="170" type="qcurve" smooth="yes"/>
      <point x="33" y="696" type="line"/>
      <point x="239" y="696" type="line"/>
      <point x="239" y="181" type="line" smooth="yes"/>
      <point x="239" y="157"/>
      <point x="259" y="129"/>
      <point x="278" y="129" type="qcurve" smooth="yes"/>
      <point x="295" y="129"/>
      <point x="327" y="163"/>
      <point x="344" y="182" type="qcurve"/>
      <point x="344" y="183"/>
      <point x="344" y="184"/>
      <point x="344" y="185" type="qcurve" smooth="yes"/>
      <point x="344" y="696" type="line"/>
      <point x="550" y="696" type="line"/>
      <point x="550" y="181" type="line" smooth="yes"/>
      <point x="550" y="157"/>
      <point x="570" y="129"/>
      <point x="588" y="129" type="qcurve" smooth="yes"/>
      <point x="607" y="129"/>
      <point x="638" y="155"/>
      <point x="655" y="182" type="qcurve"/>
      <point x="655" y="696" type="line"/>
      <point x="861" y="696" type="line"/>
      <point x="861" y="0" type="line"/>
      <point x="680" y="0" type="line"/>
      <point x="666" y="55" type="line"/>
      <point x="629" y="16"/>
      <point x="558" y="-20"/>
      <point x="511" y="-20" type="qcurve" smooth="yes"/>
      <point x="460" y="-20"/>
      <point x="386" y="25"/>
      <point x="366" y="68" type="qcurve"/>
      <point x="326" y="22"/>
      <point x="250" y="-20"/>
    </contour>
    <contour>
      <point x="459" y="680" type="move" name="top"/>
    </contour>
    <contour>
      <point x="459" y="0" type="move" name="bottom"/>
    </contour>
  </outline>
</glyph>
<glyph name="uni019D" format="1">
  <advance width="651"/>
  <unicode hex="019D"/>
  <outline>
    <contour>
      <point x="16" y="-227" type="qcurve" smooth="yes"/>
      <point x="-38" y="-227"/>
      <point x="-114" y="-202"/>
      <point x="-141" y="-182" type="qcurve"/>
      <point x="-77" y="-67" type="line"/>
      <point x="-59" y="-76"/>
      <point x="-30" y="-87"/>
      <point x="-9" y="-87" type="qcurve" smooth="yes"/>
      <point x="16" y="-87"/>
      <point x="43" y="-60"/>
      <point x="43" y="-34" type="qcurve" smooth="yes"/>
      <point x="43" y="696" type="line"/>
      <point x="296" y="696" type="line"/>
      <point x="454" y="186" type="line"/>
      <point x="448" y="227"/>
      <point x="435" y="311"/>
      <point x="426" y="410"/>
      <point x="426" y="473" type="qcurve" smooth="yes"/>
      <point x="426" y="696" type="line"/>
      <point x="608" y="696" type="line"/>
      <point x="608" y="0" type="line"/>
      <point x="350" y="0" type="line"/>
      <point x="198" y="508" type="line"/>
      <point x="203" y="475"/>
      <point x="216" y="388"/>
      <point x="225" y="281"/>
      <point x="225" y="216" type="qcurve" smooth="yes"/>
      <point x="225" y="-16" type="line" smooth="yes"/>
      <point x="225" y="-122"/>
      <point x="109" y="-227"/>
    </contour>
    <contour>
      <point x="331" y="680" type="move" name="top"/>
    </contour>
    <contour>
      <point x="321" y="0" type="move" name="bottom"/>
    </contour>
  </outline>
</glyph>
<glyph name="uni01A2" format="1">
  <advance width="981"/>
  <unicode hex="01A2"/>
  <outline>
    <contour>
      <point x="938" y="-215" type="line"/>
      <point x="732" y="-215" type="line"/>
      <point x="732" y="513" type="line" smooth="yes"/>
      <point x="732" y="547"/>
      <point x="705" y="576"/>
      <point x="680" y="576" type="qcurve" smooth="yes"/>
      <point x="662" y="576"/>
      <point x="635" y="570"/>
      <point x="621" y="563" type="qcurve"/>
      <point x="645" y="520"/>
      <point x="670" y="413"/>
      <point x="670" y="349" type="qcurve" smooth="yes"/>
      <point x="670" y="236"/>
      <point x="595" y="70"/>
      <point x="450" y="-20"/>
      <point x="345" y="-20" type="qcurve" smooth="yes"/>
      <point x="240" y="-20"/>
      <point x="95" y="68"/>
      <point x="20" y="234"/>
      <point x="20" y="349" type="qcurve" smooth="yes"/>
      <point x="20" y="462"/>
      <point x="95" y="627"/>
      <point x="240" y="716"/>
      <point x="345" y="716" type="qcurve" smooth="yes"/>
      <point x="454" y="716"/>
      <point x="533" y="662" type="qcurve"/>
      <point x="570" y="687"/>
      <point x="658" y="716"/>
      <point x="710" y="716" type="qcurve" smooth="yes"/>
      <point x="811" y="716"/>
      <point x="938" y="611"/>
      <point x="938" y="505" type="qcurve" smooth="yes"/>
    </contour>
    <contour>
      <point x="345" y="126" type="qcurve" smooth="yes"/>
      <point x="405" y="126"/>
      <point x="456" y="228"/>
      <point x="456" y="349" type="qcurve" smooth="yes"/>
      <point x="456" y="470"/>
      <point x="404" y="570"/>
      <point x="345" y="570" type="qcurve" smooth="yes"/>
      <point x="306" y="570"/>
      <point x="257" y="527"/>
      <point x="234" y="430"/>
      <point x="234" y="349" type="qcurve" smooth="yes"/>
      <point x="234" y="269"/>
      <point x="257" y="170"/>
      <point x="306" y="126"/>
    </contour>
    <contour>
      <point x="437" y="680" type="move" name="top"/>
    </contour>
    <contour>
      <point x="437" y="-188" type="move" name="bottom"/>
    </contour>
  </outline>
</glyph>
<glyph name="uni01A3" format="1">
  <advance width="852"/>
  <unicode hex="01A3"/>
  <outline>
    <contour>
      <point x="810" y="-227" type="line"/>
      <point x="612" y="-207" type="line"/>
      <point x="612" y="361" type="line" smooth="yes"/>
      <point x="612" y="390"/>
      <point x="587" y="414"/>
      <point x="564" y="414" type="qcurve" smooth="yes"/>
      <point x="549" y="414"/>
      <point x="518" y="406"/>
      <point x="492" y="397" type="qcurve"/>
      <point x="398" y="489" type="line"/>
      <point x="448" y="524"/>
      <point x="534" y="554"/>
      <point x="595" y="554" type="qcurve" smooth="yes"/>
      <point x="690" y="554"/>
      <point x="810" y="449"/>
      <point x="810" y="343" type="qcurve" smooth="yes"/>
    </contour>
    <contour>
      <point x="292" y="554" type="qcurve" smooth="yes"/>
      <point x="372" y="554"/>
      <point x="496" y="488"/>
      <point x="567" y="359"/>
      <point x="567" y="266" type="qcurve" smooth="yes"/>
      <point x="567" y="179"/>
      <point x="500" y="51"/>
      <point x="377" y="-20"/>
      <point x="292" y="-20" type="qcurve" smooth="yes"/>
      <point x="166" y="-20"/>
      <point x="17" y="129"/>
      <point x="17" y="268" type="qcurve" smooth="yes"/>
      <point x="17" y="355"/>
      <point x="84" y="484"/>
      <point x="207" y="554"/>
    </contour>
    <contour>
      <point x="292" y="412" type="qcurve" smooth="yes"/>
      <point x="255" y="412"/>
      <point x="220" y="344"/>
      <point x="220" y="268" type="qcurve" smooth="yes"/>
      <point x="220" y="189"/>
      <point x="255" y="122"/>
      <point x="292" y="122" type="qcurve" smooth="yes"/>
      <point x="330" y="122"/>
      <point x="364" y="190"/>
      <point x="364" y="266" type="qcurve" smooth="yes"/>
      <point x="364" y="346"/>
      <point x="330" y="412"/>
    </contour>
    <contour>
      <point x="364" y="517" type="move" name="top"/>
    </contour>
    <contour>
      <point x="364" y="-188" type="move" name="bottom"/>
    </contour>
  </outline>
</glyph>
<glyph name="uni01A5" format="1">
  <advance width="599"/>
  <unicode hex="01A5"/>
  <outline>
    <contour>
      <point x="373" y="554" type="qcurve" smooth="yes"/>
      <point x="478" y="554"/>
      <point x="577" y="401"/>
      <point x="577" y="269" type="qcurve" smooth="yes"/>
      <point x="577" y="186"/>
      <point x="524" y="55"/>
      <point x="428" y="-20"/>
      <point x="364" y="-20" type="qcurve" smooth="yes"/>
      <point x="327" y="-20"/>
      <point x="264" y="7"/>
      <point x="240" y="33" type="qcurve"/>
      <point x="240" y="-207" type="line"/>
      <point x="42" y="-227" type="line"/>
      <point x="42" y="565" type="line" smooth="yes"/>
      <point x="42" y="620"/>
      <point x="91" y="710"/>
      <point x="192" y="764"/>
      <point x="268" y="764" type="qcurve" smooth="yes"/>
      <point x="312" y="764"/>
      <point x="397" y="742"/>
      <point x="425" y="727" type="qcurve"/>
      <point x="373" y="602" type="line"/>
      <point x="352" y="613"/>
      <point x="312" y="622"/>
      <point x="295" y="622" type="qcurve" smooth="yes"/>
      <point x="267" y="622"/>
      <point x="240" y="593"/>
      <point x="240" y="555" type="qcurve" smooth="yes"/>
      <point x="240" y="492" type="line"/>
      <point x="273" y="528"/>
      <point x="344" y="554"/>
    </contour>
    <contour>
      <point x="299" y="121" type="qcurve" smooth="yes"/>
      <point x="332" y="121"/>
      <point x="374" y="185"/>
      <point x="374" y="266" type="qcurve" smooth="yes"/>
      <point x="374" y="331"/>
      <point x="357" y="393"/>
      <point x="326" y="412"/>
      <point x="306" y="412" type="qcurve" smooth="yes"/>
      <point x="290" y="412"/>
      <point x="255" y="389"/>
      <point x="240" y="362" type="qcurve"/>
      <point x="240" y="158" type="line"/>
      <point x="254" y="138"/>
      <point x="281" y="121"/>
    </contour>
    <contour>
      <point x="284" y="727" type="move" name="top"/>
    </contour>
    <contour>
      <point x="284" y="-188" type="move" name="bottom"/>
    </contour>
  </outline>
</glyph>
<glyph name="uni01A6" format="1">
  <advance width="624"/>
  <unicode hex="01A6"/>
  <outline>
    <contour>
      <point x="644" y="-110" type="line"/>
      <point x="416" y="-110" type="line"/>
      <point x="287" y="138" type="line"/>
      <point x="249" y="138" type="line"/>
      <point x="249" y="0" type="line"/>
      <point x="43" y="0" type="line"/>
      <point x="43" y="696" type="line"/>
      <point x="249" y="696" type="line"/>
      <point x="249" y="586" type="line"/>
      <point x="298" y="586" type="line" smooth="yes"/>
      <point x="398" y="586"/>
      <point x="530" y="539"/>
      <point x="597" y="442"/>
      <point x="597" y="365" type="qcurve" smooth="yes"/>
      <point x="597" y="321"/>
      <point x="571" y="254"/>
      <point x="517" y="201"/>
      <point x="474" y="176" type="qcurve"/>
    </contour>
    <contour>
      <point x="249" y="445" type="line"/>
      <point x="249" y="276" type="line"/>
      <point x="303" y="276" type="line" smooth="yes"/>
      <point x="331" y="276"/>
      <point x="368" y="295"/>
      <point x="387" y="335"/>
      <point x="387" y="365" type="qcurve" smooth="yes"/>
      <point x="387" y="393"/>
      <point x="365" y="428"/>
      <point x="324" y="445"/>
      <point x="293" y="445" type="qcurve" smooth="yes"/>
    </contour>
    <contour>
      <point x="281" y="680" type="move" name="top"/>
    </contour>
    <contour>
      <point x="281" y="-188" type="move" name="bottom"/>
    </contour>
  </outline>
</glyph>
<glyph name="uni01A7" format="1">
  <advance width="578"/>
  <unicode hex="01A7"/>
  <outline>
    <contour>
      <point x="304" y="716" type="qcurve" smooth="yes"/>
      <point x="381" y="716"/>
      <point x="498" y="664"/>
      <point x="564" y="570"/>
      <point x="564" y="507" type="qcurve" smooth="yes"/>
      <point x="564" y="455"/>
      <point x="521" y="374"/>
      <point x="423" y="312"/>
      <point x="342" y="287" type="qcurve" smooth="yes"/>
      <point x="297" y="273"/>
      <point x="248" y="244"/>
      <point x="229" y="212"/>
      <point x="229" y="193" type="qcurve" smooth="yes"/>
      <point x="229" y="175"/>
      <point x="247" y="147"/>
      <point x="284" y="131"/>
      <point x="311" y="131" type="qcurve" smooth="yes"/>
      <point x="356" y="131"/>
      <point x="440" y="166"/>
      <point x="477" y="196" type="qcurve"/>
      <point x="578" y="85" type="line"/>
      <point x="535" y="44"/>
      <point x="397" y="-20"/>
      <point x="293" y="-20" type="qcurve" smooth="yes"/>
      <point x="209" y="-20"/>
      <point x="84" y="38"/>
      <point x="15" y="141"/>
      <point x="15" y="208" type="qcurve" smooth="yes"/>
      <point x="15" y="267"/>
      <point x="59" y="350"/>
      <point x="151" y="409"/>
      <point x="222" y="432" type="qcurve" smooth="yes"/>
      <point x="272" y="448"/>
      <point x="328" y="474"/>
      <point x="352" y="502"/>
      <point x="352" y="520" type="qcurve" smooth="yes"/>
      <point x="352" y="543"/>
      <point x="316" y="570"/>
      <point x="282" y="570" type="qcurve" smooth="yes"/>
      <point x="237" y="570"/>
      <point x="163" y="542"/>
      <point x="128" y="514" type="qcurve"/>
      <point x="37" y="621" type="line"/>
      <point x="88" y="667"/>
      <point x="220" y="716"/>
    </contour>
    <contour>
      <point x="270" y="680" type="move" name="top"/>
    </contour>
    <contour>
      <point x="270" y="0" type="move" name="bottom"/>
    </contour>
  </outline>
</glyph>
<glyph name="uni01A8" format="1">
  <advance width="484"/>
  <unicode hex="01A8"/>
  <outline>
    <contour>
      <point x="251" y="554" type="qcurve" smooth="yes"/>
      <point x="321" y="554"/>
      <point x="418" y="507"/>
      <point x="470" y="428"/>
      <point x="470" y="379" type="qcurve" smooth="yes"/>
      <point x="470" y="309"/>
      <point x="385" y="237"/>
      <point x="310" y="214" type="qcurve" smooth="yes"/>
      <point x="266" y="201"/>
      <point x="224" y="181"/>
      <point x="212" y="163"/>
      <point x="212" y="151" type="qcurve" smooth="yes"/>
      <point x="212" y="133"/>
      <point x="241" y="116"/>
      <point x="263" y="116" type="qcurve" smooth="yes"/>
      <point x="297" y="116"/>
      <point x="367" y="147"/>
      <point x="395" y="169" type="qcurve"/>
      <point x="489" y="65" type="line"/>
      <point x="448" y="26"/>
      <point x="325" y="-20"/>
      <point x="254" y="-20" type="qcurve" smooth="yes"/>
      <point x="181" y="-20"/>
      <point x="71" y="26"/>
      <point x="10" y="107"/>
      <point x="10" y="160" type="qcurve" smooth="yes"/>
      <point x="10" y="234"/>
      <point x="95" y="307"/>
      <point x="171" y="330" type="qcurve" smooth="yes"/>
      <point x="219" y="345"/>
      <point x="262" y="364"/>
      <point x="274" y="381"/>
      <point x="274" y="391" type="qcurve" smooth="yes"/>
      <point x="274" y="402"/>
      <point x="254" y="417"/>
      <point x="230" y="417" type="qcurve" smooth="yes"/>
      <point x="197" y="417"/>
      <point x="131" y="396"/>
      <point x="102" y="378" type="qcurve"/>
      <point x="32" y="485" type="line"/>
      <point x="76" y="517"/>
      <point x="185" y="554"/>
    </contour>
    <contour>
      <point x="229" y="517" type="move" name="top"/>
    </contour>
    <contour>
      <point x="229" y="0" type="move" name="bottom"/>
    </contour>
  </outline>
</glyph>
<glyph name="uni01AA" format="1">
  <advance width="488"/>
  <unicode hex="01AA"/>
  <outline>
    <contour>
      <point x="446" y="-227" type="qcurve" smooth="yes"/>
      <point x="345" y="-227"/>
      <point x="220" y="-122"/>
      <point x="220" y="-16" type="qcurve" smooth="yes"/>
      <point x="220" y="395" type="line"/>
      <point x="207" y="390"/>
      <point x="176" y="383"/>
      <point x="158" y="383" type="qcurve" smooth="yes"/>
      <point x="105" y="383"/>
      <point x="24" y="432"/>
      <point x="-20" y="517"/>
      <point x="-20" y="572" type="qcurve" smooth="yes"/>
      <point x="-20" y="626"/>
      <point x="29" y="713"/>
      <point x="125" y="764"/>
      <point x="193" y="764" type="qcurve" smooth="yes"/>
      <point x="266" y="764"/>
      <point x="366" y="709"/>
      <point x="418" y="615"/>
      <point x="418" y="555" type="qcurve" smooth="yes"/>
      <point x="418" y="-34" type="line" smooth="yes"/>
      <point x="418" y="-60"/>
      <point x="445" y="-87"/>
      <point x="470" y="-87" type="qcurve" smooth="yes"/>
      <point x="491" y="-87"/>
      <point x="520" y="-76"/>
      <point x="538" y="-67" type="qcurve"/>
      <point x="602" y="-182" type="line"/>
      <point x="575" y="-202"/>
      <point x="499" y="-227"/>
    </contour>
    <contour>
      <point x="192" y="515" type="qcurve" smooth="yes"/>
      <point x="200" y="515"/>
      <point x="213" y="517"/>
      <point x="220" y="518" type="qcurve"/>
      <point x="220" y="586" type="line" smooth="yes"/>
      <point x="220" y="609"/>
      <point x="203" y="632"/>
      <point x="184" y="632" type="qcurve" smooth="yes"/>
      <point x="165" y="632"/>
      <point x="144" y="604"/>
      <point x="144" y="575" type="qcurve" smooth="yes"/>
      <point x="144" y="543"/>
      <point x="169" y="515"/>
    </contour>
    <contour>
      <point x="128" y="727" type="move" name="top"/>
    </contour>
    <contour>
      <point x="128" y="-188" type="move" name="bottom"/>
    </contour>
  </outline>
</glyph>
<glyph name="uni01AB" format="1">
  <advance width="401"/>
  <unicode hex="01AB"/>
  <outline>
    <contour>
      <point x="197" y="-226" type="qcurve" smooth="yes"/>
      <point x="145" y="-226"/>
      <point x="61" y="-201"/>
      <point x="34" y="-181" type="qcurve"/>
      <point x="98" y="-66" type="line"/>
      <point x="118" y="-75"/>
      <point x="156" y="-86"/>
      <point x="184" y="-86" type="qcurve" smooth="yes"/>
      <point x="214" y="-86"/>
      <point x="248" y="-61"/>
      <point x="248" y="-33" type="qcurve" smooth="yes"/>
      <point x="248" y="1" type="line"/>
      <point x="416" y="26" type="line"/>
      <point x="416" y="-15" type="line" smooth="yes"/>
      <point x="416" y="-121"/>
      <point x="300" y="-226"/>
    </contour>
    <contour>
      <point x="62" y="646" type="line"/>
      <point x="260" y="669" type="line"/>
      <point x="260" y="183" type="line" smooth="yes"/>
      <point x="260" y="150"/>
      <point x="286" y="125"/>
      <point x="310" y="125" type="qcurve" smooth="yes"/>
      <point x="323" y="125"/>
      <point x="345" y="128"/>
      <point x="361" y="132" type="qcurve"/>
      <point x="416" y="26" type="line"/>
      <point x="395" y="11"/>
      <point x="343" y="1"/>
      <point x="316" y="-4" type="qcurve"/>
      <point x="304" y="-10"/>
      <point x="270" y="-20"/>
      <point x="256" y="-20" type="qcurve" smooth="yes"/>
      <point x="156" y="-19"/>
      <point x="62" y="91"/>
      <point x="62" y="197" type="qcurve" smooth="yes"/>
    </contour>
    <contour>
      <point x="-2" y="534" type="line"/>
      <point x="380" y="534" type="line"/>
      <point x="360" y="400" type="line"/>
      <point x="-2" y="400" type="line"/>
    </contour>
    <contour>
      <point x="118" y="651" type="move" name="top"/>
    </contour>
    <contour>
      <point x="161" y="-188" type="move" name="bottom"/>
    </contour>
  </outline>
</glyph>
<glyph name="uni01AC" format="1">
  <advance width="619"/>
  <unicode hex="01AC"/>
  <outline>
    <contour>
      <point x="445" y="0" type="line"/>
      <point x="239" y="0" type="line"/>
      <point x="239" y="542" type="line"/>
      <point x="195" y="542" type="line" smooth="yes"/>
      <point x="176" y="542"/>
      <point x="154" y="523"/>
      <point x="154" y="506" type="qcurve" smooth="yes"/>
      <point x="154" y="491"/>
      <point x="162" y="468"/>
      <point x="167" y="455" type="qcurve"/>
      <point x="37" y="403" type="line"/>
      <point x="22" y="429"/>
      <point x="0" y="495"/>
      <point x="0" y="530" type="qcurve" smooth="yes"/>
      <point x="0" y="610"/>
      <point x="118" y="696"/>
      <point x="215" y="696" type="qcurve" smooth="yes"/>
      <point x="624" y="696" type="line"/>
      <point x="603" y="542" type="line"/>
      <point x="445" y="542" type="line"/>
    </contour>
    <contour>
      <point x="246" y="680" type="move" name="top"/>
    </contour>
    <contour>
      <point x="246" y="0" type="move" name="bottom"/>
    </contour>
  </outline>
</glyph>
<glyph name="uni01AD" format="1">
  <advance width="401"/>
  <unicode hex="01AD"/>
  <outline>
    <contour>
      <point x="256" y="-20" type="qcurve" smooth="yes"/>
      <point x="156" y="-19"/>
      <point x="62" y="91"/>
      <point x="62" y="197" type="qcurve" smooth="yes"/>
      <point x="62" y="550" type="line"/>
      <point x="260" y="553" type="line"/>
      <point x="260" y="199" type="line" smooth="yes"/>
      <point x="260" y="162"/>
      <point x="283" y="135"/>
      <point x="302" y="135" type="qcurve" smooth="yes"/>
      <point x="313" y="135"/>
      <point x="339" y="142"/>
      <point x="352" y="149" type="qcurve"/>
      <point x="416" y="26" type="line"/>
      <point x="383" y="3"/>
      <point x="294" y="-20"/>
    </contour>
    <contour>
      <point x="360" y="400" type="line"/>
      <point x="-2" y="400" type="line"/>
      <point x="-2" y="534" type="line"/>
      <point x="380" y="534" type="line"/>
    </contour>
    <contour>
      <point x="260" y="533" type="line"/>
      <point x="62" y="533" type="line"/>
      <point x="62" y="565" type="line" smooth="yes"/>
      <point x="62" y="620"/>
      <point x="108" y="710"/>
      <point x="200" y="764"/>
      <point x="270" y="764" type="qcurve" smooth="yes"/>
      <point x="317" y="764"/>
      <point x="388" y="742"/>
      <point x="414" y="727" type="qcurve"/>
      <point x="362" y="615" type="line"/>
      <point x="345" y="623"/>
      <point x="315" y="632"/>
      <point x="301" y="632" type="qcurve" smooth="yes"/>
      <point x="280" y="632"/>
      <point x="260" y="606"/>
      <point x="260" y="578" type="qcurve" smooth="yes"/>
    </contour>
    <contour>
      <point x="161" y="727" type="move" name="top"/>
    </contour>
    <contour>
      <point x="161" y="0" type="move" name="bottom"/>
    </contour>
  </outline>
</glyph>
<glyph name="uni01B1" format="1">
  <advance width="690"/>
  <unicode hex="01B1"/>
  <outline>
    <contour>
      <point x="345" y="-20" type="qcurve" smooth="yes"/>
      <point x="240" y="-20"/>
      <point x="95" y="66"/>
      <point x="20" y="209"/>
      <point x="20" y="294" type="qcurve" smooth="yes"/>
      <point x="20" y="357"/>
      <point x="52" y="454"/>
      <point x="112" y="528"/>
      <point x="153" y="554" type="qcurve"/>
      <point x="41" y="554" type="line"/>
      <point x="41" y="696" type="line"/>
      <point x="297" y="696" type="line"/>
      <point x="297" y="564" type="line"/>
      <point x="277" y="533"/>
      <point x="248" y="464"/>
      <point x="234" y="367"/>
      <point x="234" y="294" type="qcurve" smooth="yes"/>
      <point x="234" y="240"/>
      <point x="257" y="165"/>
      <point x="306" y="126"/>
      <point x="345" y="126" type="qcurve" smooth="yes"/>
      <point x="384" y="126"/>
      <point x="433" y="165"/>
      <point x="456" y="240"/>
      <point x="456" y="294" type="qcurve" smooth="yes"/>
      <point x="456" y="367"/>
      <point x="442" y="464"/>
      <point x="414" y="533"/>
      <point x="393" y="564" type="qcurve"/>
      <point x="393" y="696" type="line"/>
      <point x="649" y="696" type="line"/>
      <point x="649" y="554" type="line"/>
      <point x="537" y="554" type="line"/>
      <point x="579" y="528"/>
      <point x="638" y="454"/>
      <point x="670" y="357"/>
      <point x="670" y="294" type="qcurve" smooth="yes"/>
      <point x="670" y="209"/>
      <point x="595" y="66"/>
      <point x="450" y="-20"/>
    </contour>
    <contour>
      <point x="344" y="680" type="move" name="top"/>
    </contour>
    <contour>
      <point x="344" y="0" type="move" name="bottom"/>
    </contour>
  </outline>
</glyph>
<glyph name="uni01B2" format="1">
  <advance width="636"/>
  <unicode hex="01B2"/>
  <outline>
    <contour>
      <point x="300" y="-20" type="qcurve" smooth="yes"/>
      <point x="216" y="-20"/>
      <point x="97" y="41"/>
      <point x="33" y="148"/>
      <point x="33" y="216" type="qcurve" smooth="yes"/>
      <point x="33" y="696" type="line"/>
      <point x="239" y="696" type="line"/>
      <point x="239" y="214" type="line" smooth="yes"/>
      <point x="239" y="174"/>
      <point x="273" y="128"/>
      <point x="307" y="128" type="qcurve" smooth="yes"/>
      <point x="334" y="128"/>
      <point x="379" y="156"/>
      <point x="405" y="222"/>
      <point x="405" y="279" type="qcurve" smooth="yes"/>
      <point x="405" y="539" type="line" smooth="yes"/>
      <point x="405" y="556"/>
      <point x="392" y="571"/>
      <point x="379" y="571" type="qcurve" smooth="yes"/>
      <point x="374" y="571"/>
      <point x="363" y="570"/>
      <point x="358" y="568" type="qcurve"/>
      <point x="331" y="699" type="line"/>
      <point x="354" y="707"/>
      <point x="404" y="716"/>
      <point x="438" y="716" type="qcurve" smooth="yes"/>
      <point x="520" y="716"/>
      <point x="611" y="625"/>
      <point x="611" y="526" type="qcurve" smooth="yes"/>
      <point x="611" y="286" type="line" smooth="yes"/>
      <point x="611" y="188"/>
      <point x="533" y="51"/>
      <point x="393" y="-20"/>
    </contour>
    <contour>
      <point x="302" y="680" type="move" name="top"/>
    </contour>
    <contour>
      <point x="302" y="0" type="move" name="bottom"/>
    </contour>
  </outline>
</glyph>
<glyph name="uni01B3" format="1">
  <advance width="661"/>
  <unicode hex="01B3"/>
  <outline>
    <contour>
      <point x="413" y="0" type="line"/>
      <point x="207" y="0" type="line"/>
      <point x="207" y="256" type="line"/>
      <point x="-15" y="696" type="line"/>
      <point x="210" y="696" type="line"/>
      <point x="313" y="412" type="line"/>
      <point x="358" y="553" type="line" smooth="yes"/>
      <point x="387" y="642"/>
      <point x="478" y="716"/>
      <point x="558" y="716" type="qcurve" smooth="yes"/>
      <point x="605" y="716"/>
      <point x="666" y="696"/>
      <point x="691" y="681" type="qcurve"/>
      <point x="640" y="562" type="line"/>
      <point x="630" y="567"/>
      <point x="608" y="574"/>
      <point x="591" y="574" type="qcurve" smooth="yes"/>
      <point x="569" y="574"/>
      <point x="542" y="553"/>
      <point x="531" y="527" type="qcurve" smooth="yes"/>
      <point x="413" y="257" type="line"/>
    </contour>
    <contour>
      <point x="253" y="680" type="move" name="top"/>
    </contour>
    <contour>
      <point x="253" y="0" type="move" name="bottom"/>
    </contour>
    <contour>
      <point x="15" y="680" type="move" name="topleft"/>
    </contour>
  </outline>
</glyph>
<glyph name="uni01B4" format="1">
  <advance width="542"/>
  <unicode hex="01B4"/>
  <outline>
    <contour>
      <point x="53" y="-228" type="qcurve"/>
      <point x="32" y="-93" type="line"/>
      <point x="83" y="-88"/>
      <point x="149" y="-67"/>
      <point x="191" y="-30"/>
      <point x="205" y="0" type="qcurve"/>
      <point x="137" y="0" type="line"/>
      <point x="-15" y="534" type="line"/>
      <point x="195" y="534" type="line"/>
      <point x="262" y="121" type="line"/>
      <point x="314" y="420" type="line" smooth="yes"/>
      <point x="329" y="505"/>
      <point x="403" y="590"/>
      <point x="482" y="590" type="qcurve" smooth="yes"/>
      <point x="510" y="590"/>
      <point x="553" y="583"/>
      <point x="573" y="577" type="qcurve"/>
      <point x="544" y="446" type="line"/>
      <point x="540" y="448"/>
      <point x="528" y="450"/>
      <point x="521" y="450" type="qcurve" smooth="yes"/>
      <point x="506" y="450"/>
      <point x="484" y="435"/>
      <point x="479" y="411" type="qcurve" smooth="yes"/>
      <point x="400" y="38" type="line" smooth="yes"/>
      <point x="380" y="-59"/>
      <point x="284" y="-173"/>
      <point x="143" y="-226"/>
    </contour>
    <contour>
      <point x="222" y="517" type="move" name="top"/>
    </contour>
    <contour>
      <point x="222" y="-188" type="move" name="bottom"/>
    </contour>
  </outline>
</glyph>
<glyph name="uni01B6" format="1">
  <advance width="472"/>
  <unicode hex="01B6"/>
  <outline>
    <contour>
      <point x="25" y="534" type="line"/>
      <point x="455" y="534" type="line"/>
      <point x="455" y="407" type="line"/>
      <point x="226" y="136" type="line"/>
      <point x="462" y="136" type="line"/>
      <point x="445" y="0" type="line"/>
      <point x="5" y="0" type="line"/>
      <point x="5" y="128" type="line"/>
      <point x="237" y="400" type="line"/>
      <point x="25" y="400" type="line"/>
    </contour>
    <contour>
      <point x="436" y="226" type="line"/>
      <point x="28" y="226" type="line"/>
      <point x="28" y="331" type="line"/>
      <point x="436" y="331" type="line"/>
    </contour>
    <contour>
      <point x="205" y="517" type="move" name="top"/>
    </contour>
    <contour>
      <point x="205" y="0" type="move" name="bottom"/>
    </contour>
  </outline>
</glyph>
<glyph name="uni01B7" format="1">
  <advance width="565"/>
  <unicode hex="01B7"/>
  <outline>
    <contour>
      <point x="254" y="-20" type="qcurve" smooth="yes"/>
      <point x="164" y="-20"/>
      <point x="42" y="41"/>
      <point x="0" y="90" type="qcurve"/>
      <point x="102" y="189" type="line"/>
      <point x="137" y="158"/>
      <point x="200" y="128"/>
      <point x="242" y="128" type="qcurve" smooth="yes"/>
      <point x="284" y="128"/>
      <point x="338" y="174"/>
      <point x="338" y="219" type="qcurve" smooth="yes"/>
      <point x="338" y="261"/>
      <point x="277" y="296"/>
      <point x="233" y="296" type="qcurve" smooth="yes"/>
      <point x="127" y="296" type="line"/>
      <point x="127" y="403" type="line"/>
      <point x="285" y="552" type="line"/>
      <point x="45" y="552" type="line"/>
      <point x="45" y="696" type="line"/>
      <point x="508" y="696" type="line"/>
      <point x="508" y="557" type="line"/>
      <point x="341" y="395" type="line"/>
      <point x="325" y="407" type="line"/>
      <point x="432" y="407"/>
      <point x="550" y="302"/>
      <point x="550" y="210" type="qcurve" smooth="yes"/>
      <point x="550" y="147"/>
      <point x="482" y="43"/>
      <point x="350" y="-20"/>
    </contour>
    <contour>
      <point x="211" y="680" type="move" name="top"/>
    </contour>
    <contour>
      <point x="232" y="0" type="move" name="bottom"/>
    </contour>
  </outline>
</glyph>
<glyph name="uni01B8" format="1">
  <advance width="565"/>
  <unicode hex="01B8"/>
  <outline>
    <contour>
      <point x="304" y="-20" type="qcurve" smooth="yes"/>
      <point x="212" y="-20"/>
      <point x="83" y="40"/>
      <point x="15" y="145"/>
      <point x="15" y="210" type="qcurve" smooth="yes"/>
      <point x="15" y="265"/>
      <point x="68" y="354"/>
      <point x="169" y="407"/>
      <point x="240" y="407" type="qcurve"/>
      <point x="227" y="392" type="line"/>
      <point x="57" y="557" type="line"/>
      <point x="57" y="696" type="line"/>
      <point x="520" y="696" type="line"/>
      <point x="520" y="552" type="line"/>
      <point x="283" y="552" type="line"/>
      <point x="438" y="400" type="line"/>
      <point x="438" y="296" type="line"/>
      <point x="332" y="296" type="line" smooth="yes"/>
      <point x="283" y="296"/>
      <point x="227" y="253"/>
      <point x="227" y="213" type="qcurve" smooth="yes"/>
      <point x="227" y="173"/>
      <point x="277" y="128"/>
      <point x="317" y="128" type="qcurve" smooth="yes"/>
      <point x="361" y="128"/>
      <point x="428" y="158"/>
      <point x="463" y="189" type="qcurve"/>
      <point x="565" y="90" type="line"/>
      <point x="522" y="41"/>
      <point x="398" y="-20"/>
    </contour>
    <contour>
      <point x="232" y="680" type="move" name="top"/>
    </contour>
    <contour>
      <point x="232" y="0" type="move" name="bottom"/>
    </contour>
  </outline>
</glyph>
<glyph name="uni01B9" format="1">
  <advance width="527"/>
  <unicode hex="01B9"/>
  <outline>
    <contour>
      <point x="295" y="-227" type="qcurve" smooth="yes"/>
      <point x="204" y="-227"/>
      <point x="77" y="-164"/>
      <point x="10" y="-57"/>
      <point x="10" y="8" type="qcurve" smooth="yes"/>
      <point x="10" y="74"/>
      <point x="63" y="163"/>
      <point x="162" y="212"/>
      <point x="230" y="217" type="qcurve"/>
      <point x="250" y="217" type="line"/>
      <point x="420" y="109" type="line"/>
      <point x="319" y="109" type="line" smooth="yes"/>
      <point x="270" y="109"/>
      <point x="212" y="68"/>
      <point x="212" y="21" type="qcurve" smooth="yes"/>
      <point x="212" y="-14"/>
      <point x="238" y="-58"/>
      <point x="282" y="-79"/>
      <point x="309" y="-79" type="qcurve" smooth="yes"/>
      <point x="347" y="-79"/>
      <point x="411" y="-52"/>
      <point x="448" y="-20" type="qcurve"/>
      <point x="547" y="-117" type="line"/>
      <point x="507" y="-167"/>
      <point x="384" y="-227"/>
    </contour>
    <contour>
      <point x="266" y="390" type="line"/>
      <point x="420" y="211" type="line"/>
      <point x="420" y="109" type="line"/>
      <point x="272" y="149" type="line"/>
      <point x="47" y="402" type="line"/>
      <point x="47" y="534" type="line"/>
      <point x="502" y="534" type="line"/>
      <point x="502" y="390" type="line"/>
    </contour>
    <contour>
      <point x="219" y="517" type="move" name="top"/>
    </contour>
    <contour>
      <point x="219" y="-188" type="move" name="bottom"/>
    </contour>
  </outline>
</glyph>
<glyph name="uni01BA" format="1">
  <advance width="532"/>
  <unicode hex="01BA"/>
  <outline>
    <contour>
      <point x="243" y="-123" type="qcurve"/>
      <point x="203" y="-227" type="line"/>
      <point x="127" y="-208"/>
      <point x="27" y="-127"/>
      <point x="27" y="-67" type="qcurve" smooth="yes"/>
      <point x="27" y="-8"/>
      <point x="114" y="60"/>
      <point x="202" y="79" type="qcurve" smooth="yes"/>
      <point x="262" y="93"/>
      <point x="310" y="119"/>
      <point x="310" y="141" type="qcurve" smooth="yes"/>
      <point x="310" y="161"/>
      <point x="275" y="179"/>
      <point x="233" y="179" type="qcurve" smooth="yes"/>
      <point x="112" y="179" type="line"/>
      <point x="112" y="276" type="line"/>
      <point x="247" y="400" type="line"/>
      <point x="20" y="400" type="line"/>
      <point x="20" y="534" type="line"/>
      <point x="475" y="534" type="line"/>
      <point x="475" y="412" type="line"/>
      <point x="323" y="285" type="line"/>
      <point x="332" y="285" type="line" smooth="yes"/>
      <point x="419" y="285"/>
      <point x="512" y="202"/>
      <point x="512" y="134" type="qcurve" smooth="yes"/>
      <point x="512" y="76"/>
      <point x="457" y="6"/>
      <point x="367" y="-33"/>
      <point x="314" y="-43" type="qcurve" smooth="yes"/>
      <point x="268" y="-53"/>
      <point x="221" y="-68"/>
      <point x="205" y="-83"/>
      <point x="205" y="-91" type="qcurve" smooth="yes"/>
      <point x="205" y="-101"/>
      <point x="225" y="-116"/>
    </contour>
    <contour>
      <point x="207" y="517" type="move" name="top"/>
    </contour>
    <contour>
      <point x="221" y="-188" type="move" name="bottom"/>
    </contour>
  </outline>
</glyph>
<glyph name="uni01BD" format="1">
  <advance width="496"/>
  <unicode hex="01BD"/>
  <outline>
    <contour>
      <point x="56" y="534" type="line"/>
      <point x="442" y="534" type="line"/>
      <point x="416" y="395" type="line"/>
      <point x="226" y="395" type="line"/>
      <point x="226" y="338" type="line"/>
      <point x="240" y="343"/>
      <point x="277" y="349"/>
      <point x="302" y="349" type="qcurve" smooth="yes"/>
      <point x="348" y="349"/>
      <point x="427" y="310"/>
      <point x="476" y="233"/>
      <point x="476" y="175" type="qcurve" smooth="yes"/>
      <point x="476" y="116"/>
      <point x="413" y="28"/>
      <point x="303" y="-20"/>
      <point x="232" y="-20" type="qcurve" smooth="yes"/>
      <point x="178" y="-20"/>
      <point x="101" y="2"/>
      <point x="40" y="41"/>
      <point x="10" y="67" type="qcurve"/>
      <point x="108" y="170" type="line"/>
      <point x="141" y="145"/>
      <point x="190" y="122"/>
      <point x="224" y="122" type="qcurve" smooth="yes"/>
      <point x="252" y="122"/>
      <point x="282" y="151"/>
      <point x="282" y="176" type="qcurve" smooth="yes"/>
      <point x="282" y="202"/>
      <point x="255" y="225"/>
      <point x="235" y="225" type="qcurve" smooth="yes"/>
      <point x="221" y="225"/>
      <point x="196" y="219"/>
      <point x="183" y="214" type="qcurve"/>
      <point x="56" y="214" type="line"/>
    </contour>
    <contour>
      <point x="211" y="517" type="move" name="top"/>
    </contour>
    <contour>
      <point x="211" y="0" type="move" name="bottom"/>
    </contour>
  </outline>
</glyph>
<glyph name="uni01BE" format="1">
  <advance width="512"/>
  <unicode hex="01BE"/>
  <outline>
    <contour>
      <point x="234" y="-20" type="qcurve" smooth="yes"/>
      <point x="160" y="-20"/>
      <point x="40" y="29"/>
      <point x="-10" y="76" type="qcurve"/>
      <point x="85" y="173" type="line"/>
      <point x="114" y="147"/>
      <point x="169" y="122"/>
      <point x="201" y="122" type="qcurve" smooth="yes"/>
      <point x="241" y="122"/>
      <point x="293" y="174"/>
      <point x="293" y="228" type="qcurve" smooth="yes"/>
      <point x="293" y="268"/>
      <point x="269" y="327"/>
      <point x="217" y="368"/>
      <point x="175" y="378" type="qcurve"/>
      <point x="129" y="387" type="line"/>
      <point x="129" y="520" type="line"/>
      <point x="63" y="520" type="line"/>
      <point x="63" y="626" type="line"/>
      <point x="129" y="626" type="line"/>
      <point x="129" y="744" type="line"/>
      <point x="327" y="764" type="line"/>
      <point x="327" y="626" type="line"/>
      <point x="417" y="626" type="line"/>
      <point x="417" y="520" type="line"/>
      <point x="327" y="520" type="line"/>
      <point x="327" y="442" type="line"/>
      <point x="363" y="433" type="line"/>
      <point x="396" y="421"/>
      <point x="446" y="386"/>
      <point x="479" y="335"/>
      <point x="495" y="270"/>
      <point x="495" y="228" type="qcurve" smooth="yes"/>
      <point x="495" y="151"/>
      <point x="429" y="39"/>
      <point x="311" y="-20"/>
    </contour>
    <contour>
      <point x="179" y="727" type="move" name="top"/>
    </contour>
    <contour>
      <point x="226" y="0" type="move" name="bottom"/>
    </contour>
  </outline>
</glyph>
